ThiruValluvar-Bold.ufo
<glyph name="exclam" format="2">
  <advance width="592"/>
  <unicode hex="0021"/>
  <outline>
    <contour>
      <point x="354" y="377" type="curve"/>
      <point x="434" y="1300" type="line"/>
      <point x="387" y="1332" type="line"/>
      <point x="337" y="1314"/>
      <point x="202" y="1251"/>
      <point x="147" y="1222" type="curve"/>
      <point x="225" y="360" type="line"/>
      <point x="252" y="342" type="line"/>
      <point x="281" y="351"/>
      <point x="332" y="360"/>
    </contour>
    <contour>
      <point x="453" y="119" type="curve" smooth="yes"/>
      <point x="453" y="211"/>
      <point x="378" y="248"/>
      <point x="310" y="248" type="curve" smooth="yes"/>
      <point x="216" y="248"/>
      <point x="131" y="190"/>
      <point x="131" y="91" type="curve" smooth="yes"/>
      <point x="131" y="0"/>
      <point x="202" y="-36"/>
      <point x="275" y="-36" type="curve" smooth="yes"/>
      <point x="372" y="-36"/>
      <point x="453" y="18"/>
    </contour>
  </outline>
</glyph>
<glyph name="quotedbl" format="2">
  <advance width="837"/>
  <unicode hex="0022"/>
  <outline>
    <contour>
      <point x="650" y="750" type="curve"/>
      <point x="706" y="1308" type="line"/>
      <point x="663" y="1332" type="line"/>
      <point x="638" y="1326"/>
      <point x="506" y="1280"/>
      <point x="479" y="1265" type="curve"/>
      <point x="545" y="731" type="line"/>
      <point x="573" y="731"/>
      <point x="631" y="740"/>
    </contour>
    <contour>
      <point x="300" y="750" type="curve"/>
      <point x="357" y="1308" type="line"/>
      <point x="314" y="1332" type="line"/>
      <point x="288" y="1326"/>
      <point x="157" y="1280"/>
      <point x="130" y="1265" type="curve"/>
      <point x="196" y="731" type="line"/>
      <point x="224" y="731"/>
      <point x="282" y="740"/>
    </contour>
  </outline>
</glyph>
<glyph name="numbersign" format="2">
  <advance width="909"/>
  <unicode hex="0023"/>
  <outline>
    <contour>
      <point x="919" y="851" type="curve"/>
      <point x="897" y="873" type="line"/>
      <point x="201" y="873" type="line"/>
      <point x="192" y="849"/>
      <point x="170" y="800"/>
      <point x="164" y="774" type="curve"/>
      <point x="187" y="752" type="line"/>
      <point x="882" y="752" type="line"/>
      <point x="891" y="772"/>
      <point x="914" y="825"/>
    </contour>
    <contour>
      <point x="553" y="153" type="curve"/>
      <point x="836" y="1143" type="line"/>
      <point x="811" y="1162" type="line"/>
      <point x="783" y="1152"/>
      <point x="738" y="1144"/>
      <point x="712" y="1125" type="curve"/>
      <point x="429" y="132" type="line"/>
      <point x="452" y="114" type="line"/>
      <point x="484" y="125"/>
      <point x="531" y="136"/>
    </contour>
    <contour>
      <point x="273" y="153" type="curve"/>
      <point x="558" y="1143" type="line"/>
      <point x="531" y="1162" type="line"/>
      <point x="505" y="1152"/>
      <point x="460" y="1144"/>
      <point x="434" y="1125" type="curve"/>
      <point x="151" y="132" type="line"/>
      <point x="174" y="114" type="line"/>
      <point x="206" y="125"/>
      <point x="252" y="136"/>
    </contour>
    <contour>
      <point x="821" y="515" type="curve"/>
      <point x="801" y="540" type="line"/>
      <point x="105" y="540" type="line"/>
      <point x="94" y="515"/>
      <point x="74" y="464"/>
      <point x="69" y="441" type="curve"/>
      <point x="89" y="418" type="line"/>
      <point x="787" y="418" type="line"/>
      <point x="796" y="439"/>
      <point x="816" y="492"/>
    </contour>
  </outline>
</glyph>
<glyph name="dollar" format="2">
  <advance width="954"/>
  <unicode hex="0024"/>
  <outline>
    <contour>
      <point x="532" y="-110" type="curve"/>
      <point x="532" y="1216" type="line"/>
      <point x="500" y="1245" type="line"/>
      <point x="465" y="1236"/>
      <point x="449" y="1222"/>
      <point x="415" y="1202" type="curve"/>
      <point x="415" y="-127" type="line"/>
      <point x="449" y="-156" type="line"/>
      <point x="478" y="-149"/>
      <point x="511" y="-129"/>
    </contour>
    <contour>
      <point x="433" y="-9" type="curve" smooth="yes"/>
      <point x="764" y="-9"/>
      <point x="883" y="170"/>
      <point x="883" y="330" type="curve" smooth="yes"/>
      <point x="883" y="707"/>
      <point x="274" y="629"/>
      <point x="274" y="853" type="curve" smooth="yes"/>
      <point x="274" y="921"/>
      <point x="347" y="977"/>
      <point x="450" y="977" type="curve" smooth="yes"/>
      <point x="578" y="977"/>
      <point x="652" y="905"/>
      <point x="700" y="783" type="curve"/>
      <point x="771" y="776" type="line"/>
      <point x="802" y="804"/>
      <point x="861" y="977"/>
      <point x="846" y="993" type="curve" smooth="yes"/>
      <point x="800" y="1043"/>
      <point x="630" y="1092"/>
      <point x="487" y="1092" type="curve" smooth="yes"/>
      <point x="165" y="1092"/>
      <point x="70" y="923"/>
      <point x="70" y="810" type="curve" smooth="yes"/>
      <point x="70" y="459"/>
      <point x="672" y="565"/>
      <point x="672" y="282" type="curve" smooth="yes"/>
      <point x="672" y="168"/>
      <point x="576" y="126"/>
      <point x="485" y="126" type="curve" smooth="yes"/>
      <point x="317" y="126"/>
      <point x="224" y="241"/>
      <point x="157" y="383" type="curve"/>
      <point x="82" y="387" type="line"/>
      <point x="64" y="320"/>
      <point x="57" y="116"/>
      <point x="73" y="104" type="curve"/>
      <point x="182" y="36"/>
      <point x="336" y="-9"/>
    </contour>
  </outline>
</glyph>
<glyph name="percent" format="2">
  <advance width="1221"/>
  <unicode hex="0025"/>
  <outline>
    <contour>
      <point x="638" y="285" type="curve" smooth="yes"/>
      <point x="638" y="180"/>
      <point x="658" y="112"/>
      <point x="697" y="78" type="curve" smooth="yes"/>
      <point x="736" y="46"/>
      <point x="778" y="29"/>
      <point x="821" y="29" type="curve" smooth="yes"/>
      <point x="914" y="29"/>
      <point x="1044" y="102"/>
      <point x="1044" y="328" type="curve" smooth="yes"/>
      <point x="1044" y="429"/>
      <point x="1024" y="499"/>
      <point x="984" y="537" type="curve" smooth="yes"/>
      <point x="945" y="575"/>
      <point x="901" y="594"/>
      <point x="853" y="594" type="curve" smooth="yes"/>
      <point x="784" y="594"/>
      <point x="638" y="534"/>
    </contour>
    <contour>
      <point x="903" y="1022" type="line"/>
      <point x="786" y="1022" type="line"/>
      <point x="187" y="24" type="line"/>
      <point x="303" y="24" type="line"/>
    </contour>
    <contour>
      <point x="59" y="724" type="curve" smooth="yes"/>
      <point x="59" y="624"/>
      <point x="78" y="555"/>
      <point x="118" y="516" type="curve" smooth="yes"/>
      <point x="156" y="477"/>
      <point x="200" y="458"/>
      <point x="247" y="458" type="curve" smooth="yes"/>
      <point x="303" y="458"/>
      <point x="464" y="503"/>
      <point x="464" y="769" type="curve" smooth="yes"/>
      <point x="464" y="874"/>
      <point x="444" y="943"/>
      <point x="404" y="975" type="curve" smooth="yes"/>
      <point x="364" y="1007"/>
      <point x="323" y="1023"/>
      <point x="280" y="1023" type="curve" smooth="yes"/>
      <point x="198" y="1023"/>
      <point x="59" y="964"/>
    </contour>
    <contour>
      <point x="804" y="463" type="curve" smooth="yes"/>
      <point x="918" y="463"/>
      <point x="931" y="320"/>
      <point x="931" y="254" type="curve" smooth="yes"/>
      <point x="931" y="190"/>
      <point x="914" y="158"/>
      <point x="880" y="158" type="curve" smooth="yes"/>
      <point x="794" y="158"/>
      <point x="751" y="232"/>
      <point x="751" y="381" type="curve" smooth="yes"/>
      <point x="751" y="443"/>
      <point x="764" y="463"/>
    </contour>
    <contour>
      <point x="171" y="800" type="curve" smooth="yes"/>
      <point x="171" y="863"/>
      <point x="191" y="894"/>
      <point x="230" y="894" type="curve" smooth="yes"/>
      <point x="340" y="894"/>
      <point x="352" y="738"/>
      <point x="352" y="673" type="curve" smooth="yes"/>
      <point x="352" y="616"/>
      <point x="333" y="587"/>
      <point x="296" y="587" type="curve" smooth="yes"/>
      <point x="181" y="587"/>
      <point x="171" y="743"/>
    </contour>
  </outline>
</glyph>
<glyph name="ampersand" format="2">
  <advance width="1034"/>
  <unicode hex="0026"/>
  <outline>
    <contour>
      <point x="821" y="125" type="curve" smooth="yes"/>
      <point x="745" y="125"/>
      <point x="673" y="202"/>
      <point x="649" y="230" type="curve"/>
      <point x="765" y="374"/>
      <point x="804" y="497"/>
      <point x="844" y="527" type="curve" smooth="yes"/>
      <point x="865" y="542"/>
      <point x="895" y="549"/>
      <point x="932" y="549" type="curve"/>
      <point x="932" y="596" type="line"/>
      <point x="645" y="596" type="line"/>
      <point x="645" y="551" type="line"/>
      <point x="685" y="546"/>
      <point x="705" y="525"/>
      <point x="705" y="490" type="curve" smooth="yes"/>
      <point x="705" y="465"/>
      <point x="700" y="404"/>
      <point x="606" y="287" type="curve"/>
      <point x="579" y="322"/>
      <point x="528" y="400"/>
      <point x="453" y="522" type="curve"/>
      <point x="591" y="592"/>
      <point x="658" y="656"/>
      <point x="658" y="756" type="curve" smooth="yes"/>
      <point x="658" y="852"/>
      <point x="578" y="920"/>
      <point x="477" y="920" type="curve" smooth="yes"/>
      <point x="356" y="920"/>
      <point x="244" y="840"/>
      <point x="244" y="701" type="curve" smooth="yes"/>
      <point x="244" y="639"/>
      <point x="272" y="568"/>
      <point x="295" y="518" type="curve"/>
      <point x="196" y="463"/>
      <point x="128" y="412"/>
      <point x="92" y="363" type="curve" smooth="yes"/>
      <point x="54" y="310"/>
      <point x="35" y="258"/>
      <point x="35" y="207" type="curve" smooth="yes"/>
      <point x="35" y="93"/>
      <point x="142" y="2"/>
      <point x="271" y="2" type="curve" smooth="yes"/>
      <point x="362" y="2"/>
      <point x="454" y="42"/>
      <point x="547" y="121" type="curve"/>
      <point x="661" y="2"/>
      <point x="746" y="2"/>
      <point x="776" y="2" type="curve" smooth="yes"/>
      <point x="914" y="2"/>
      <point x="964" y="138"/>
      <point x="979" y="191" type="curve"/>
      <point x="932" y="226" type="line"/>
      <point x="913" y="149"/>
      <point x="862" y="125"/>
    </contour>
    <contour>
      <point x="475" y="852" type="curve" smooth="yes"/>
      <point x="517" y="852"/>
      <point x="561" y="812"/>
      <point x="561" y="758" type="curve" smooth="yes"/>
      <point x="561" y="691"/>
      <point x="515" y="633"/>
      <point x="424" y="586" type="curve"/>
      <point x="393" y="653"/>
      <point x="377" y="707"/>
      <point x="377" y="750" type="curve" smooth="yes"/>
      <point x="377" y="787"/>
      <point x="406" y="852"/>
    </contour>
    <contour>
      <point x="189" y="262" type="curve" smooth="yes"/>
      <point x="189" y="359"/>
      <point x="264" y="415"/>
      <point x="324" y="453" type="curve"/>
      <point x="374" y="358"/>
      <point x="400" y="315"/>
      <point x="498" y="178" type="curve"/>
      <point x="435" y="125"/>
      <point x="381" y="99"/>
      <point x="334" y="99" type="curve" smooth="yes"/>
      <point x="259" y="99"/>
      <point x="189" y="171"/>
    </contour>
  </outline>
</glyph>
<glyph name="quotesingle" format="2">
  <advance width="514"/>
  <unicode hex="0027"/>
  <outline>
    <contour>
      <point x="323" y="750" type="curve"/>
      <point x="397" y="1304" type="line"/>
      <point x="350" y="1332" type="line"/>
      <point x="324" y="1326"/>
      <point x="144" y="1262"/>
      <point x="117" y="1247" type="curve"/>
      <point x="200" y="731" type="line"/>
      <point x="228" y="731"/>
      <point x="305" y="740"/>
    </contour>
  </outline>
</glyph>
<glyph name="parenleft" format="2">
  <advance width="602"/>
  <unicode hex="0028"/>
  <outline>
    <contour>
      <point x="533" y="-283" type="curve"/>
      <point x="576" y="-225" type="line"/>
      <point x="401" y="-64"/>
      <point x="306" y="235"/>
      <point x="306" y="585" type="curve" smooth="yes"/>
      <point x="306" y="971"/>
      <point x="428" y="1242"/>
      <point x="576" y="1381" type="curve"/>
      <point x="533" y="1440" type="line"/>
      <point x="268" y="1288"/>
      <point x="99" y="954"/>
      <point x="99" y="560" type="curve" smooth="yes"/>
      <point x="99" y="179"/>
      <point x="243" y="-135"/>
    </contour>
  </outline>
</glyph>
<glyph name="parenright" format="2">
  <advance width="620"/>
  <unicode hex="0029"/>
  <outline>
    <contour>
      <point x="531" y="594" type="curve" smooth="yes"/>
      <point x="531" y="976"/>
      <point x="382" y="1269"/>
      <point x="74" y="1439" type="curve"/>
      <point x="18" y="1362" type="line"/>
      <point x="184" y="1193"/>
      <point x="270" y="919"/>
      <point x="270" y="569" type="curve" smooth="yes"/>
      <point x="270" y="184"/>
      <point x="157" y="-59"/>
      <point x="18" y="-207" type="curve"/>
      <point x="74" y="-284" type="line"/>
      <point x="358" y="-110"/>
      <point x="531" y="200"/>
    </contour>
  </outline>
</glyph>
<glyph name="asterisk" format="2">
  <advance width="813"/>
  <unicode hex="002A"/>
  <outline>
    <contour>
      <point x="454" y="1107" type="line"/>
      <point x="506" y="1368" type="line"/>
      <point x="465" y="1404" type="line"/>
      <point x="439" y="1398"/>
      <point x="332" y="1357"/>
      <point x="306" y="1343" type="curve"/>
      <point x="354" y="1106" type="line"/>
      <point x="155" y="1280" type="line"/>
      <point x="103" y="1263" type="line"/>
      <point x="95" y="1237"/>
      <point x="78" y="1124"/>
      <point x="76" y="1095" type="curve"/>
      <point x="307" y="1018" type="line"/>
      <point x="55" y="933" type="line"/>
      <point x="45" y="879" type="line"/>
      <point x="63" y="859"/>
      <point x="153" y="787"/>
      <point x="177" y="772" type="curve"/>
      <point x="358" y="933" type="line"/>
      <point x="306" y="673" type="line"/>
      <point x="348" y="636" type="line"/>
      <point x="374" y="642"/>
      <point x="481" y="684"/>
      <point x="507" y="697" type="curve"/>
      <point x="459" y="934" type="line"/>
      <point x="657" y="760" type="line"/>
      <point x="710" y="777" type="line"/>
      <point x="718" y="803"/>
      <point x="735" y="917"/>
      <point x="737" y="945" type="curve"/>
      <point x="506" y="1022" type="line"/>
      <point x="757" y="1107" type="line"/>
      <point x="768" y="1161" type="line"/>
      <point x="750" y="1181"/>
      <point x="660" y="1253"/>
      <point x="636" y="1269" type="curve"/>
    </contour>
  </outline>
</glyph>
<glyph name="plus" format="2">
  <advance width="783"/>
  <unicode hex="002B"/>
  <outline>
    <contour>
      <point x="738" y="545" type="curve"/>
      <point x="706" y="576" type="line"/>
      <point x="90" y="576" type="line"/>
      <point x="80" y="552"/>
      <point x="51" y="493"/>
      <point x="45" y="467" type="curve"/>
      <point x="76" y="436" type="line"/>
      <point x="692" y="436" type="line"/>
      <point x="701" y="456"/>
      <point x="730" y="519"/>
    </contour>
    <contour>
      <point x="463" y="198" type="curve"/>
      <point x="463" y="820" type="line"/>
      <point x="432" y="850" type="line"/>
      <point x="406" y="844"/>
      <point x="346" y="822"/>
      <point x="324" y="815" type="curve"/>
      <point x="324" y="190" type="line"/>
      <point x="355" y="162" type="line"/>
      <point x="381" y="167"/>
      <point x="440" y="187"/>
    </contour>
  </outline>
</glyph>
<glyph name="comma" format="2">
  <advance width="521"/>
  <unicode hex="002C"/>
  <outline>
    <contour>
      <point x="459" y="63" type="curve" smooth="yes"/>
      <point x="459" y="166"/>
      <point x="425" y="215"/>
      <point x="368" y="242" type="curve"/>
      <point x="298" y="243"/>
      <point x="99" y="171"/>
      <point x="79" y="143" type="curve"/>
      <point x="93" y="64" type="line"/>
      <point x="171" y="70"/>
      <point x="221" y="8"/>
      <point x="221" y="-45" type="curve" smooth="yes"/>
      <point x="221" y="-148"/>
      <point x="175" y="-237"/>
      <point x="108" y="-315" type="curve"/>
      <point x="176" y="-364" type="line"/>
      <point x="328" y="-270"/>
      <point x="459" y="-76"/>
    </contour>
  </outline>
</glyph>
<glyph name="hyphen" format="2">
  <advance width="666"/>
  <unicode hex="002D"/>
  <outline>
    <contour>
      <point x="621" y="500" type="curve"/>
      <point x="589" y="531" type="line"/>
      <point x="90" y="531" type="line"/>
      <point x="80" y="507"/>
      <point x="51" y="448"/>
      <point x="45" y="422" type="curve"/>
      <point x="76" y="391" type="line"/>
      <point x="575" y="391" type="line"/>
      <point x="584" y="411"/>
      <point x="613" y="474"/>
    </contour>
  </outline>
</glyph>
<glyph name="period" format="2">
  <advance width="521"/>
  <unicode hex="002E"/>
  <outline>
    <contour>
      <point x="440" y="119" type="curve" smooth="yes"/>
      <point x="440" y="211"/>
      <point x="365" y="248"/>
      <point x="297" y="248" type="curve" smooth="yes"/>
      <point x="202" y="248"/>
      <point x="117" y="190"/>
      <point x="117" y="91" type="curve" smooth="yes"/>
      <point x="117" y="0"/>
      <point x="189" y="-36"/>
      <point x="261" y="-36" type="curve" smooth="yes"/>
      <point x="359" y="-36"/>
      <point x="440" y="18"/>
    </contour>
  </outline>
</glyph>
<glyph name="slash" format="2">
  <advance width="882"/>
  <unicode hex="002F"/>
  <outline>
    <contour>
      <point x="226" y="-246" type="curve"/>
      <point x="855" y="1411" type="line"/>
      <point x="812" y="1440" type="line"/>
      <point x="778" y="1431"/>
      <point x="690" y="1407"/>
      <point x="657" y="1386" type="curve"/>
      <point x="27" y="-270" type="line"/>
      <point x="69" y="-301" type="line"/>
      <point x="99" y="-292"/>
      <point x="202" y="-262"/>
    </contour>
  </outline>
</glyph>
<glyph name="zero" format="2">
  <advance width="711"/>
  <unicode hex="0030"/>
  <outline>
    <contour>
      <point x="355" y="922" type="curve" smooth="yes"/>
      <point x="40" y="922"/>
      <point x="33" y="488"/>
      <point x="33" y="451" type="curve" smooth="yes"/>
      <point x="33" y="366"/>
      <point x="58" y="-19"/>
      <point x="355" y="-19" type="curve" smooth="yes"/>
      <point x="610" y="-19"/>
      <point x="680" y="274"/>
      <point x="680" y="451" type="curve" smooth="yes"/>
      <point x="680" y="576"/>
      <point x="635" y="922"/>
    </contour>
    <contour>
      <point x="195" y="451" type="curve" smooth="yes"/>
      <point x="195" y="721"/>
      <point x="248" y="856"/>
      <point x="355" y="856" type="curve" smooth="yes"/>
      <point x="464" y="856"/>
      <point x="518" y="721"/>
      <point x="518" y="451" type="curve" smooth="yes"/>
      <point x="518" y="180"/>
      <point x="464" y="45"/>
      <point x="355" y="45" type="curve" smooth="yes"/>
      <point x="218" y="45"/>
      <point x="195" y="236"/>
    </contour>
  </outline>
</glyph>
<glyph name="one" format="2">
  <advance width="909"/>
  <unicode hex="0031"/>
  <outline>
    <contour>
      <point x="144" y="0" type="line"/>
      <point x="801" y="0" type="line"/>
      <point x="801" y="65" type="line"/>
      <point x="620" y="88"/>
      <point x="576" y="123"/>
      <point x="576" y="146" type="curve" smooth="yes"/>
      <point x="576" y="1084" type="line"/>
      <point x="538" y="1120" type="line"/>
      <point x="454" y="1080"/>
      <point x="217" y="991"/>
      <point x="116" y="967" type="curve"/>
      <point x="139" y="903" type="line"/>
      <point x="297" y="936"/>
      <point x="356" y="931"/>
      <point x="370" y="916" type="curve" smooth="yes"/>
      <point x="385" y="900"/>
      <point x="387" y="875"/>
      <point x="387" y="828" type="curve" smooth="yes"/>
      <point x="387" y="146" type="line" smooth="yes"/>
      <point x="387" y="121"/>
      <point x="332" y="88"/>
      <point x="144" y="65" type="curve"/>
    </contour>
  </outline>
</glyph>
<glyph name="two" format="2">
  <advance width="954"/>
  <unicode hex="0032"/>
  <outline>
    <contour>
      <point x="846" y="0" type="line"/>
      <point x="860" y="339" type="line"/>
      <point x="779" y="359" type="line"/>
      <point x="779" y="359"/>
      <point x="768" y="171"/>
      <point x="687" y="171" type="curve" smooth="yes"/>
      <point x="333" y="171" type="line"/>
      <point x="723" y="594"/>
      <point x="848" y="729"/>
      <point x="848" y="892" type="curve" smooth="yes"/>
      <point x="848" y="1034"/>
      <point x="725" y="1111"/>
      <point x="526" y="1111" type="curve" smooth="yes"/>
      <point x="288" y="1111"/>
      <point x="94" y="956"/>
      <point x="94" y="832" type="curve"/>
      <point x="127" y="760" type="line"/>
      <point x="182" y="765"/>
      <point x="310" y="800"/>
      <point x="351" y="822" type="curve"/>
      <point x="331" y="913"/>
      <point x="367" y="1003"/>
      <point x="465" y="1003" type="curve" smooth="yes"/>
      <point x="555" y="1003"/>
      <point x="592" y="930"/>
      <point x="592" y="831" type="curve" smooth="yes"/>
      <point x="592" y="704"/>
      <point x="489" y="559"/>
      <point x="70" y="66" type="curve"/>
      <point x="96" y="0" type="line"/>
    </contour>
  </outline>
</glyph>
<glyph name="three" format="2">
  <advance width="909"/>
  <unicode hex="0033"/>
  <outline>
    <contour>
      <point x="796" y="342" type="curve"/>
      <point x="796" y="488"/>
      <point x="697" y="612"/>
      <point x="553" y="628" type="curve"/>
      <point x="668" y="671"/>
      <point x="745" y="772"/>
      <point x="745" y="862" type="curve" smooth="yes"/>
      <point x="745" y="984"/>
      <point x="663" y="1111"/>
      <point x="457" y="1111" type="curve" smooth="yes"/>
      <point x="249" y="1111"/>
      <point x="94" y="960"/>
      <point x="94" y="859" type="curve"/>
      <point x="122" y="813" type="line"/>
      <point x="184" y="818"/>
      <point x="250" y="841"/>
      <point x="297" y="866" type="curve"/>
      <point x="277" y="948"/>
      <point x="331" y="1016"/>
      <point x="405" y="1016" type="curve" smooth="yes"/>
      <point x="504" y="1016"/>
      <point x="542" y="928"/>
      <point x="542" y="846" type="curve" smooth="yes"/>
      <point x="542" y="772"/>
      <point x="512" y="669"/>
      <point x="301" y="612" type="curve"/>
      <point x="316" y="540" type="line"/>
      <point x="353" y="547"/>
      <point x="353" y="547"/>
      <point x="387" y="547" type="curve" smooth="yes"/>
      <point x="475" y="547"/>
      <point x="594" y="489"/>
      <point x="594" y="317" type="curve" smooth="yes"/>
      <point x="594" y="164"/>
      <point x="500" y="85"/>
      <point x="376" y="85" type="curve" smooth="yes"/>
      <point x="286" y="85"/>
      <point x="209" y="113"/>
      <point x="100" y="194" type="curve"/>
      <point x="65" y="116" type="line"/>
      <point x="173" y="12"/>
      <point x="302" y="-27"/>
      <point x="396" y="-27" type="curve" smooth="yes"/>
      <point x="643" y="-27"/>
      <point x="796" y="140"/>
    </contour>
  </outline>
</glyph>
<glyph name="four" format="2">
  <advance width="954"/>
  <unicode hex="0034"/>
  <outline>
    <contour>
      <point x="885" y="405" type="curve"/>
      <point x="862" y="432" type="line"/>
      <point x="742" y="432" type="line"/>
      <point x="742" y="1080" type="line"/>
      <point x="700" y="1120" type="line"/>
      <point x="642" y="1099"/>
      <point x="537" y="1067"/>
      <point x="477" y="1047" type="curve"/>
      <point x="49" y="335" type="line"/>
      <point x="88" y="297" type="line"/>
      <point x="508" y="297" type="line"/>
      <point x="508" y="139" type="line" smooth="yes"/>
      <point x="508" y="118"/>
      <point x="476" y="100"/>
      <point x="319" y="74" type="curve"/>
      <point x="319" y="0" type="line"/>
      <point x="867" y="0" type="line"/>
      <point x="867" y="74" type="line"/>
      <point x="768" y="97"/>
      <point x="742" y="111"/>
      <point x="742" y="129" type="curve" smooth="yes"/>
      <point x="742" y="297" type="line"/>
      <point x="787" y="297" type="line"/>
      <point x="814" y="317"/>
      <point x="860" y="366"/>
    </contour>
    <contour>
      <point x="508" y="864" type="line"/>
      <point x="508" y="432" type="line"/>
      <point x="236" y="432" type="line"/>
    </contour>
  </outline>
</glyph>
<glyph name="five" format="2">
  <advance width="954"/>
  <unicode hex="0035"/>
  <outline>
    <contour>
      <point x="853" y="369" type="curve" smooth="yes"/>
      <point x="853" y="545"/>
      <point x="730" y="720"/>
      <point x="481" y="720" type="curve" smooth="yes"/>
      <point x="400" y="720"/>
      <point x="333" y="704"/>
      <point x="279" y="678" type="curve"/>
      <point x="289" y="731"/>
      <point x="307" y="834"/>
      <point x="311" y="904" type="curve"/>
      <point x="713" y="904" type="line"/>
      <point x="741" y="925"/>
      <point x="817" y="1026"/>
      <point x="843" y="1065" type="curve"/>
      <point x="808" y="1100" type="line"/>
      <point x="808" y="1100"/>
      <point x="767" y="1084"/>
      <point x="699" y="1084" type="curve" smooth="yes"/>
      <point x="198" y="1084" type="line"/>
      <point x="191" y="957"/>
      <point x="147" y="655"/>
      <point x="125" y="524" type="curve"/>
      <point x="167" y="495" type="line"/>
      <point x="230" y="542"/>
      <point x="289" y="576"/>
      <point x="400" y="576" type="curve" smooth="yes"/>
      <point x="519" y="576"/>
      <point x="610" y="494"/>
      <point x="610" y="330" type="curve" smooth="yes"/>
      <point x="610" y="193"/>
      <point x="522" y="99"/>
      <point x="414" y="99" type="curve" smooth="yes"/>
      <point x="345" y="99"/>
      <point x="248" y="119"/>
      <point x="121" y="207" type="curve"/>
      <point x="72" y="120" type="line"/>
      <point x="175" y="24"/>
      <point x="323" y="-27"/>
      <point x="433" y="-27" type="curve" smooth="yes"/>
      <point x="729" y="-27"/>
      <point x="853" y="160"/>
    </contour>
  </outline>
</glyph>
<glyph name="six" format="2">
  <advance width="954"/>
  <unicode hex="0036"/>
  <outline>
    <contour>
      <point x="900" y="370" type="curve" smooth="yes"/>
      <point x="900" y="567"/>
      <point x="775" y="711"/>
      <point x="567" y="711" type="curve" smooth="yes"/>
      <point x="472" y="711"/>
      <point x="342" y="638"/>
      <point x="247" y="511" type="curve"/>
      <point x="268" y="388" type="line"/>
      <point x="339" y="498"/>
      <point x="433" y="576"/>
      <point x="504" y="576" type="curve" smooth="yes"/>
      <point x="577" y="576"/>
      <point x="648" y="538"/>
      <point x="648" y="313" type="curve" smooth="yes"/>
      <point x="648" y="202"/>
      <point x="622" y="94"/>
      <point x="526" y="94" type="curve" smooth="yes"/>
      <point x="424" y="94"/>
      <point x="342" y="198"/>
      <point x="342" y="483" type="curve" smooth="yes"/>
      <point x="342" y="729"/>
      <point x="446" y="959"/>
      <point x="807" y="1035" type="curve"/>
      <point x="781" y="1124" type="line"/>
      <point x="324" y="1061"/>
      <point x="81" y="765"/>
      <point x="81" y="425" type="curve" smooth="yes"/>
      <point x="81" y="154"/>
      <point x="270" y="-27"/>
      <point x="509" y="-27" type="curve" smooth="yes"/>
      <point x="767" y="-27"/>
      <point x="900" y="202"/>
    </contour>
  </outline>
</glyph>
<glyph name="seven" format="2">
  <advance width="909"/>
  <unicode hex="0037"/>
  <outline>
    <contour>
      <point x="841" y="1050" type="curve"/>
      <point x="811" y="1084" type="line"/>
      <point x="132" y="1084" type="line"/>
      <point x="117" y="1031"/>
      <point x="96" y="873"/>
      <point x="89" y="817" type="curve"/>
      <point x="144" y="796" type="line"/>
      <point x="193" y="931"/>
      <point x="229" y="936"/>
      <point x="269" y="936" type="curve" smooth="yes"/>
      <point x="673" y="936" type="line"/>
      <point x="510" y="553"/>
      <point x="412" y="340"/>
      <point x="224" y="7" type="curve"/>
      <point x="265" y="-27" type="line"/>
      <point x="324" y="-11"/>
      <point x="405" y="14"/>
      <point x="447" y="44" type="curve"/>
      <point x="510" y="235"/>
      <point x="675" y="663"/>
    </contour>
  </outline>
</glyph>
<glyph name="eight" format="2">
  <advance width="954"/>
  <unicode hex="0038"/>
  <outline>
    <contour>
      <point x="888" y="316" type="curve" smooth="yes"/>
      <point x="888" y="702"/>
      <point x="346" y="633"/>
      <point x="346" y="855" type="curve" smooth="yes"/>
      <point x="346" y="936"/>
      <point x="388" y="999"/>
      <point x="459" y="999" type="curve" smooth="yes"/>
      <point x="523" y="999"/>
      <point x="590" y="969"/>
      <point x="591" y="844" type="curve" smooth="yes"/>
      <point x="592" y="775"/>
      <point x="553" y="705"/>
      <point x="477" y="638" type="curve"/>
      <point x="585" y="599" type="line"/>
      <point x="726" y="678"/>
      <point x="843" y="763"/>
      <point x="843" y="872" type="curve" smooth="yes"/>
      <point x="843" y="1011"/>
      <point x="730" y="1111"/>
      <point x="487" y="1111" type="curve" smooth="yes"/>
      <point x="279" y="1111"/>
      <point x="112" y="990"/>
      <point x="112" y="823" type="curve" smooth="yes"/>
      <point x="112" y="485"/>
      <point x="627" y="594"/>
      <point x="627" y="278" type="curve" smooth="yes"/>
      <point x="627" y="173"/>
      <point x="573" y="90"/>
      <point x="486" y="90" type="curve" smooth="yes"/>
      <point x="412" y="90"/>
      <point x="327" y="158"/>
      <point x="327" y="283" type="curve" smooth="yes"/>
      <point x="327" y="394"/>
      <point x="377" y="468"/>
      <point x="468" y="552" type="curve"/>
      <point x="359" y="585" type="line"/>
      <point x="191" y="513"/>
      <point x="66" y="390"/>
      <point x="66" y="256" type="curve" smooth="yes"/>
      <point x="66" y="108"/>
      <point x="200" y="-27"/>
      <point x="459" y="-27" type="curve" smooth="yes"/>
      <point x="702" y="-27"/>
      <point x="888" y="130"/>
    </contour>
  </outline>
</glyph>
<glyph name="nine" format="2">
  <advance width="909"/>
  <unicode hex="0039"/>
  <outline>
    <contour>
      <point x="837" y="657" type="curve"/>
      <point x="837" y="976"/>
      <point x="676" y="1111"/>
      <point x="473" y="1111" type="curve" smooth="yes"/>
      <point x="243" y="1111"/>
      <point x="81" y="897"/>
      <point x="81" y="715" type="curve" smooth="yes"/>
      <point x="81" y="536"/>
      <point x="193" y="387"/>
      <point x="398" y="387" type="curve" smooth="yes"/>
      <point x="522" y="387"/>
      <point x="642" y="474"/>
      <point x="702" y="593" type="curve"/>
      <point x="691" y="705" type="line"/>
      <point x="645" y="603"/>
      <point x="558" y="508"/>
      <point x="450" y="508" type="curve" smooth="yes"/>
      <point x="381" y="508"/>
      <point x="274" y="562"/>
      <point x="274" y="770" type="curve" smooth="yes"/>
      <point x="274" y="912"/>
      <point x="337" y="1003"/>
      <point x="445" y="1003" type="curve" smooth="yes"/>
      <point x="534" y="1003"/>
      <point x="634" y="926"/>
      <point x="634" y="585" type="curve" smooth="yes"/>
      <point x="634" y="323"/>
      <point x="535" y="125"/>
      <point x="159" y="32" type="curve"/>
      <point x="180" y="-38" type="line"/>
      <point x="621" y="17"/>
      <point x="837" y="293"/>
    </contour>
  </outline>
</glyph>
<glyph name="less" format="2">
  <advance width="846"/>
  <unicode hex="003C"/>
  <outline>
    <contour>
      <point x="801" y="802" type="curve"/>
      <point x="769" y="834" type="line"/>
      <point x="81" y="588" type="line"/>
      <point x="71" y="564"/>
      <point x="51" y="496"/>
      <point x="45" y="472" type="curve"/>
      <point x="76" y="432" type="line"/>
      <point x="765" y="678" type="line"/>
      <point x="773" y="701"/>
      <point x="794" y="777"/>
    </contour>
    <contour>
      <point x="801" y="302" type="curve"/>
      <point x="776" y="343" type="line"/>
      <point x="81" y="588" type="line"/>
      <point x="71" y="564"/>
      <point x="51" y="496"/>
      <point x="45" y="472" type="curve"/>
      <point x="76" y="432" type="line"/>
      <point x="698" y="212" type="line"/>
      <point x="735" y="234"/>
      <point x="774" y="278"/>
    </contour>
  </outline>
</glyph>
<glyph name="equal" format="2">
  <advance width="827"/>
  <unicode hex="003D"/>
  <outline>
    <contour>
      <point x="777" y="673" type="curve"/>
      <point x="750" y="699" type="line"/>
      <point x="86" y="699" type="line"/>
      <point x="76" y="676"/>
      <point x="56" y="632"/>
      <point x="49" y="607" type="curve"/>
      <point x="76" y="580" type="line"/>
      <point x="741" y="580" type="line"/>
      <point x="749" y="600"/>
      <point x="770" y="648"/>
    </contour>
    <contour>
      <point x="777" y="403" type="curve"/>
      <point x="750" y="429" type="line"/>
      <point x="86" y="429" type="line"/>
      <point x="76" y="405"/>
      <point x="56" y="363"/>
      <point x="49" y="337" type="curve"/>
      <point x="76" y="310" type="line"/>
      <point x="741" y="310" type="line"/>
      <point x="749" y="331"/>
      <point x="770" y="377"/>
    </contour>
  </outline>
</glyph>
<glyph name="greater" format="2">
  <advance width="846"/>
  <unicode hex="003E"/>
  <outline>
    <contour>
      <point x="801" y="574" type="curve"/>
      <point x="769" y="614" type="line"/>
      <point x="147" y="834" type="line"/>
      <point x="110" y="811"/>
      <point x="71" y="768"/>
      <point x="45" y="744" type="curve"/>
      <point x="69" y="702" type="line"/>
      <point x="546" y="534" type="line"/>
      <point x="80" y="368" type="line"/>
      <point x="72" y="345"/>
      <point x="51" y="269"/>
      <point x="45" y="243" type="curve"/>
      <point x="76" y="212" type="line"/>
      <point x="764" y="458" type="line"/>
      <point x="775" y="488"/>
      <point x="792" y="540"/>
    </contour>
  </outline>
</glyph>
<glyph name="question" format="2">
  <advance width="852"/>
  <unicode hex="003F"/>
  <outline>
    <contour>
      <point x="797" y="1048" type="curve" smooth="yes"/>
      <point x="797" y="1216"/>
      <point x="684" y="1332"/>
      <point x="478" y="1332" type="curve" smooth="yes"/>
      <point x="252" y="1332"/>
      <point x="54" y="1197"/>
      <point x="54" y="1028" type="curve" smooth="yes"/>
      <point x="54" y="1019"/>
      <point x="54" y="990"/>
      <point x="55" y="981" type="curve"/>
      <point x="89" y="945" type="line"/>
      <point x="142" y="950"/>
      <point x="290" y="986"/>
      <point x="329" y="1006" type="curve"/>
      <point x="324" y="1023"/>
      <point x="318" y="1050"/>
      <point x="318" y="1067" type="curve" smooth="yes"/>
      <point x="318" y="1161"/>
      <point x="366" y="1218"/>
      <point x="417" y="1218" type="curve" smooth="yes"/>
      <point x="486" y="1218"/>
      <point x="532" y="1155"/>
      <point x="532" y="1008" type="curve" smooth="yes"/>
      <point x="532" y="841"/>
      <point x="327" y="678"/>
      <point x="327" y="478" type="curve" smooth="yes"/>
      <point x="327" y="473"/>
      <point x="327" y="468"/>
      <point x="327" y="463" type="curve"/>
      <point x="334" y="368" type="line"/>
      <point x="366" y="340" type="line"/>
      <point x="399" y="349"/>
      <point x="439" y="360"/>
      <point x="461" y="377" type="curve"/>
      <point x="467" y="463" type="line" smooth="yes"/>
      <point x="479" y="661"/>
      <point x="797" y="777"/>
    </contour>
    <contour>
      <point x="567" y="119" type="curve" smooth="yes"/>
      <point x="567" y="211"/>
      <point x="493" y="248"/>
      <point x="424" y="248" type="curve" smooth="yes"/>
      <point x="330" y="248"/>
      <point x="245" y="190"/>
      <point x="245" y="91" type="curve" smooth="yes"/>
      <point x="245" y="0"/>
      <point x="316" y="-36"/>
      <point x="389" y="-36" type="curve" smooth="yes"/>
      <point x="486" y="-36"/>
      <point x="567" y="18"/>
    </contour>
  </outline>
</glyph>
<glyph name="at" format="2">
  <advance width="1573"/>
  <unicode hex="0040"/>
  <outline>
    <contour>
      <point x="1501" y="507" type="curve"/>
      <point x="1501" y="981"/>
      <point x="1242" y="1217"/>
      <point x="863" y="1217" type="curve" smooth="yes"/>
      <point x="423" y="1217"/>
      <point x="72" y="844"/>
      <point x="72" y="418" type="curve" smooth="yes"/>
      <point x="72" y="-64"/>
      <point x="378" y="-360"/>
      <point x="813" y="-360" type="curve" smooth="yes"/>
      <point x="1094" y="-360"/>
      <point x="1284" y="-228"/>
      <point x="1370" y="-133" type="curve"/>
      <point x="1334" y="-64" type="line"/>
      <point x="1262" y="-126"/>
      <point x="1078" y="-220"/>
      <point x="857" y="-220" type="curve" smooth="yes"/>
      <point x="527" y="-220"/>
      <point x="252" y="23"/>
      <point x="252" y="471" type="curve" smooth="yes"/>
      <point x="252" y="796"/>
      <point x="460" y="1078"/>
      <point x="828" y="1078" type="curve" smooth="yes"/>
      <point x="1136" y="1078"/>
      <point x="1348" y="869"/>
      <point x="1348" y="460" type="curve" smooth="yes"/>
      <point x="1348" y="258"/>
      <point x="1254" y="129"/>
      <point x="1194" y="129" type="curve" smooth="yes"/>
      <point x="1141" y="129"/>
      <point x="1119" y="171"/>
      <point x="1119" y="256" type="curve" smooth="yes"/>
      <point x="1119" y="637" type="line" smooth="yes"/>
      <point x="1119" y="737"/>
      <point x="1146" y="837"/>
      <point x="1146" y="837" type="curve"/>
      <point x="1118" y="864" type="line"/>
      <point x="1071" y="827"/>
      <point x="1032" y="803"/>
      <point x="978" y="781" type="curve"/>
      <point x="918" y="851"/>
      <point x="882" y="864"/>
      <point x="827" y="864" type="curve" smooth="yes"/>
      <point x="584" y="864"/>
      <point x="436" y="615"/>
      <point x="436" y="395" type="curve" smooth="yes"/>
      <point x="436" y="114"/>
      <point x="578" y="-27"/>
      <point x="701" y="-27" type="curve" smooth="yes"/>
      <point x="796" y="-27"/>
      <point x="837" y="4"/>
      <point x="936" y="127" type="curve"/>
      <point x="956" y="11"/>
      <point x="1009" y="-27"/>
      <point x="1077" y="-27" type="curve" smooth="yes"/>
      <point x="1270" y="-27"/>
      <point x="1501" y="200"/>
    </contour>
    <contour>
      <point x="930" y="657" type="curve"/>
      <point x="930" y="243" type="line"/>
      <point x="857" y="149"/>
      <point x="829" y="126"/>
      <point x="783" y="126" type="curve" smooth="yes"/>
      <point x="711" y="126"/>
      <point x="625" y="218"/>
      <point x="625" y="423" type="curve" smooth="yes"/>
      <point x="625" y="648"/>
      <point x="693" y="751"/>
      <point x="808" y="751" type="curve" smooth="yes"/>
      <point x="871" y="751"/>
      <point x="901" y="715"/>
    </contour>
  </outline>
</glyph>
<glyph name="A" format="2">
  <advance width="1137"/>
  <unicode hex="0041"/>
  <outline>
    <contour>
      <point x="349" y="391" type="line"/>
      <point x="710" y="391" type="line"/>
      <point x="805" y="117" type="line" smooth="yes"/>
      <point x="819" y="78"/>
      <point x="786" y="62"/>
      <point x="693" y="56" type="curve"/>
      <point x="693" y="0" type="line"/>
      <point x="1118" y="0" type="line"/>
      <point x="1118" y="56" type="line"/>
      <point x="1041" y="65"/>
      <point x="1017" y="84"/>
      <point x="1005" y="117" type="curve" smooth="yes"/>
      <point x="627" y="1185" type="line"/>
      <point x="575" y="1167"/>
      <point x="505" y="1137"/>
      <point x="459" y="1095" type="curve"/>
      <point x="137" y="117" type="line" smooth="yes"/>
      <point x="126" y="81"/>
      <point x="81" y="71"/>
      <point x="0" y="56" type="curve"/>
      <point x="0" y="0" type="line"/>
      <point x="387" y="0" type="line"/>
      <point x="387" y="56" type="line"/>
      <point x="288" y="67"/>
      <point x="247" y="81"/>
      <point x="258" y="117" type="curve" smooth="yes"/>
    </contour>
    <contour>
      <point x="675" y="490" type="line"/>
      <point x="382" y="490" type="line"/>
      <point x="523" y="923" type="line"/>
    </contour>
  </outline>
</glyph>
<glyph name="B" format="2">
  <advance width="1139"/>
  <unicode hex="0042"/>
  <outline>
    <contour>
      <point x="1049" y="320" type="curve" smooth="yes"/>
      <point x="1049" y="486"/>
      <point x="922" y="621"/>
      <point x="733" y="650" type="curve"/>
      <point x="877" y="693"/>
      <point x="949" y="789"/>
      <point x="949" y="918" type="curve" smooth="yes"/>
      <point x="949" y="1069"/>
      <point x="780" y="1161"/>
      <point x="494" y="1161" type="curve" smooth="yes"/>
      <point x="345" y="1161"/>
      <point x="135" y="1133"/>
      <point x="23" y="1107" type="curve"/>
      <point x="36" y="1024" type="line"/>
      <point x="137" y="1043"/>
      <point x="340" y="1058"/>
      <point x="434" y="1058" type="curve" smooth="yes"/>
      <point x="630" y="1058"/>
      <point x="693" y="993"/>
      <point x="693" y="873" type="curve" smooth="yes"/>
      <point x="693" y="770"/>
      <point x="649" y="670"/>
      <point x="422" y="670" type="curve" smooth="yes"/>
      <point x="351" y="670" type="line"/>
      <point x="360" y="550" type="line"/>
      <point x="400" y="561"/>
      <point x="442" y="571"/>
      <point x="522" y="571" type="curve" smooth="yes"/>
      <point x="730" y="571"/>
      <point x="784" y="440"/>
      <point x="784" y="307" type="curve" smooth="yes"/>
      <point x="784" y="172"/>
      <point x="701" y="90"/>
      <point x="528" y="90" type="curve" smooth="yes"/>
      <point x="474" y="90"/>
      <point x="437" y="95"/>
      <point x="400" y="115" type="curve"/>
      <point x="110" y="0" type="line"/>
      <point x="244" y="-5"/>
      <point x="441" y="-12"/>
      <point x="566" y="-12" type="curve"/>
      <point x="872" y="-12"/>
      <point x="1049" y="116"/>
    </contour>
    <contour>
      <point x="36" y="0" type="line"/>
      <point x="513" y="0" type="line"/>
      <point x="513" y="65" type="line"/>
      <point x="425" y="81"/>
      <point x="409" y="106"/>
      <point x="409" y="120" type="curve" smooth="yes"/>
      <point x="409" y="1107" type="line"/>
      <point x="157" y="1089" type="line"/>
      <point x="157" y="129" type="line" smooth="yes"/>
      <point x="157" y="113"/>
      <point x="117" y="90"/>
      <point x="36" y="74" type="curve"/>
    </contour>
  </outline>
</glyph>
<glyph name="C" format="2">
  <advance width="1042"/>
  <unicode hex="0043"/>
  <outline>
    <contour>
      <point x="979" y="189" type="curve"/>
      <point x="973" y="198"/>
      <point x="940" y="247"/>
      <point x="927" y="257" type="curve"/>
      <point x="804" y="155"/>
      <point x="688" y="135"/>
      <point x="623" y="135" type="curve" smooth="yes"/>
      <point x="470" y="135"/>
      <point x="301" y="259"/>
      <point x="301" y="560" type="curve" smooth="yes"/>
      <point x="301" y="934"/>
      <point x="445" y="1035"/>
      <point x="568" y="1035" type="curve" smooth="yes"/>
      <point x="656" y="1035"/>
      <point x="736" y="988"/>
      <point x="795" y="866" type="curve"/>
      <point x="863" y="852" type="line"/>
      <point x="891" y="880"/>
      <point x="975" y="1060"/>
      <point x="962" y="1071" type="curve" smooth="yes"/>
      <point x="900" y="1120"/>
      <point x="755" y="1161"/>
      <point x="626" y="1161" type="curve" smooth="yes"/>
      <point x="296" y="1161"/>
      <point x="45" y="910"/>
      <point x="45" y="527" type="curve" smooth="yes"/>
      <point x="45" y="179"/>
      <point x="282" y="-27"/>
      <point x="531" y="-27" type="curve" smooth="yes"/>
      <point x="674" y="-27"/>
      <point x="826" y="35"/>
    </contour>
  </outline>
</glyph>
<glyph name="D" format="2">
  <advance width="1200"/>
  <unicode hex="0044"/>
  <outline>
    <contour>
      <point x="1127" y="608" type="curve" smooth="yes"/>
      <point x="1127" y="956"/>
      <point x="917" y="1161"/>
      <point x="538" y="1161" type="curve" smooth="yes"/>
      <point x="378" y="1161"/>
      <point x="146" y="1136"/>
      <point x="23" y="1107" type="curve"/>
      <point x="36" y="1015" type="line"/>
      <point x="135" y="1030"/>
      <point x="335" y="1058"/>
      <point x="470" y="1058" type="curve" smooth="yes"/>
      <point x="723" y="1058"/>
      <point x="857" y="891"/>
      <point x="857" y="573" type="curve" smooth="yes"/>
      <point x="857" y="235"/>
      <point x="666" y="102"/>
      <point x="537" y="102" type="curve" smooth="yes"/>
      <point x="409" y="102"/>
      <point x="409" y="129"/>
      <point x="409" y="171" type="curve"/>
      <point x="73" y="0" type="line"/>
      <point x="267" y="0"/>
      <point x="396" y="0"/>
      <point x="575" y="0" type="curve" smooth="yes"/>
      <point x="832" y="0"/>
      <point x="1127" y="158"/>
    </contour>
    <contour>
      <point x="36" y="0" type="line"/>
      <point x="495" y="0" type="line"/>
      <point x="495" y="90" type="line"/>
      <point x="407" y="108"/>
      <point x="409" y="127"/>
      <point x="409" y="174" type="curve" smooth="yes"/>
      <point x="409" y="1115" type="line"/>
      <point x="157" y="1115" type="line"/>
      <point x="157" y="129" type="line" smooth="yes"/>
      <point x="157" y="113"/>
      <point x="117" y="90"/>
      <point x="36" y="74" type="curve"/>
    </contour>
  </outline>
</glyph>
<glyph name="E" format="2">
  <advance width="986"/>
  <unicode hex="0045"/>
  <outline>
    <contour>
      <point x="890" y="1102" type="curve"/>
      <point x="851" y="1134" type="line"/>
      <point x="388" y="1134" type="line"/>
      <point x="362" y="1017" type="line"/>
      <point x="702" y="1017" type="line" smooth="yes"/>
      <point x="747" y="1017"/>
      <point x="771" y="947"/>
      <point x="776" y="837" type="curve"/>
      <point x="853" y="837" type="line"/>
      <point x="867" y="882"/>
      <point x="886" y="1041"/>
    </contour>
    <contour>
      <point x="797" y="627" type="curve"/>
      <point x="765" y="661" type="line"/>
      <point x="369" y="661" type="line"/>
      <point x="350" y="558" type="line"/>
      <point x="536" y="558" type="line" smooth="yes"/>
      <point x="637" y="558"/>
      <point x="677" y="544"/>
      <point x="714" y="509" type="curve"/>
      <point x="740" y="528"/>
      <point x="778" y="594"/>
    </contour>
    <contour>
      <point x="948" y="291" type="curve"/>
      <point x="873" y="316" type="line"/>
      <point x="822" y="176"/>
      <point x="783" y="117"/>
      <point x="673" y="117" type="curve" smooth="yes"/>
      <point x="593" y="117" type="line" smooth="yes"/>
      <point x="434" y="117"/>
      <point x="409" y="139"/>
      <point x="409" y="174" type="curve" smooth="yes"/>
      <point x="409" y="1023" type="line" smooth="yes"/>
      <point x="409" y="1039"/>
      <point x="459" y="1051"/>
      <point x="540" y="1059" type="curve"/>
      <point x="540" y="1134" type="line"/>
      <point x="36" y="1134" type="line"/>
      <point x="36" y="1059" type="line"/>
      <point x="122" y="1042"/>
      <point x="157" y="1017"/>
      <point x="157" y="1003" type="curve" smooth="yes"/>
      <point x="157" y="129" type="line" smooth="yes"/>
      <point x="157" y="113"/>
      <point x="117" y="90"/>
      <point x="36" y="74" type="curve"/>
      <point x="36" y="0" type="line"/>
      <point x="911" y="0" type="line"/>
      <point x="921" y="35"/>
      <point x="939" y="188"/>
    </contour>
  </outline>
</glyph>
<glyph name="F" format="2">
  <advance width="953"/>
  <unicode hex="0046"/>
  <outline>
    <contour>
      <point x="897" y="1102" type="curve"/>
      <point x="860" y="1134" type="line"/>
      <point x="388" y="1134" type="line"/>
      <point x="362" y="1017" type="line"/>
      <point x="710" y="1017" type="line" smooth="yes"/>
      <point x="756" y="1017"/>
      <point x="780" y="947"/>
      <point x="783" y="837" type="curve"/>
      <point x="862" y="837" type="line"/>
      <point x="876" y="882"/>
      <point x="895" y="1041"/>
    </contour>
    <contour>
      <point x="772" y="627" type="curve"/>
      <point x="737" y="661" type="line"/>
      <point x="344" y="661" type="line"/>
      <point x="214" y="558" type="line"/>
      <point x="510" y="558" type="line" smooth="yes"/>
      <point x="610" y="558"/>
      <point x="652" y="544"/>
      <point x="687" y="509" type="curve"/>
      <point x="712" y="528"/>
      <point x="749" y="585"/>
    </contour>
    <contour>
      <point x="36" y="0" type="line"/>
      <point x="558" y="0" type="line"/>
      <point x="558" y="74" type="line"/>
      <point x="440" y="97"/>
      <point x="409" y="115"/>
      <point x="409" y="129" type="curve" smooth="yes"/>
      <point x="409" y="1023" type="line" smooth="yes"/>
      <point x="409" y="1039"/>
      <point x="468" y="1051"/>
      <point x="540" y="1059" type="curve"/>
      <point x="540" y="1134" type="line"/>
      <point x="36" y="1134" type="line"/>
      <point x="36" y="1059" type="line"/>
      <point x="122" y="1042"/>
      <point x="157" y="1017"/>
      <point x="157" y="1003" type="curve" smooth="yes"/>
      <point x="157" y="129" type="line" smooth="yes"/>
      <point x="157" y="113"/>
      <point x="117" y="90"/>
      <point x="36" y="74" type="curve"/>
    </contour>
  </outline>
</glyph>
<glyph name="G" format="2">
  <advance width="1119"/>
  <unicode hex="0047"/>
  <outline>
    <contour>
      <point x="1084" y="492" type="curve"/>
      <point x="1084" y="567" type="line"/>
      <point x="624" y="567" type="line"/>
      <point x="624" y="492" type="line"/>
      <point x="756" y="468"/>
      <point x="756" y="444"/>
      <point x="756" y="418" type="curve" smooth="yes"/>
      <point x="756" y="88" type="line" smooth="yes"/>
      <point x="756" y="72"/>
      <point x="999" y="156"/>
      <point x="999" y="156" type="curve"/>
      <point x="999" y="418" type="line" smooth="yes"/>
      <point x="999" y="446"/>
      <point x="1016" y="476"/>
    </contour>
    <contour>
      <point x="1000" y="1069" type="curve" smooth="yes"/>
      <point x="923" y="1127"/>
      <point x="760" y="1161"/>
      <point x="681" y="1161" type="curve" smooth="yes"/>
      <point x="315" y="1161"/>
      <point x="45" y="923"/>
      <point x="45" y="523" type="curve" smooth="yes"/>
      <point x="45" y="153"/>
      <point x="306" y="-27"/>
      <point x="574" y="-27" type="curve" smooth="yes"/>
      <point x="683" y="-27"/>
      <point x="820" y="10"/>
      <point x="999" y="156" type="curve"/>
      <point x="991" y="165"/>
      <point x="875" y="221"/>
      <point x="860" y="229" type="curve"/>
      <point x="798" y="170"/>
      <point x="738" y="126"/>
      <point x="617" y="126" type="curve" smooth="yes"/>
      <point x="452" y="126"/>
      <point x="301" y="257"/>
      <point x="301" y="573" type="curve" smooth="yes"/>
      <point x="301" y="947"/>
      <point x="484" y="1044"/>
      <point x="574" y="1044" type="curve" smooth="yes"/>
      <point x="674" y="1044"/>
      <point x="751" y="999"/>
      <point x="830" y="870" type="curve"/>
      <point x="896" y="855" type="line"/>
      <point x="927" y="883"/>
      <point x="1017" y="1056"/>
    </contour>
  </outline>
</glyph>
<glyph name="H" format="2">
  <advance width="1241"/>
  <unicode hex="0048"/>
  <outline>
    <contour>
      <point x="733" y="0" type="line"/>
      <point x="1183" y="0" type="line"/>
      <point x="1183" y="56" type="line"/>
      <point x="1097" y="72"/>
      <point x="1057" y="97"/>
      <point x="1057" y="111" type="curve" smooth="yes"/>
      <point x="1057" y="1021" type="line" smooth="yes"/>
      <point x="1057" y="1038"/>
      <point x="1102" y="1060"/>
      <point x="1183" y="1077" type="curve"/>
      <point x="1183" y="1134" type="line"/>
      <point x="733" y="1134" type="line"/>
      <point x="733" y="1077" type="line"/>
      <point x="819" y="1060"/>
      <point x="859" y="1035"/>
      <point x="859" y="1021" type="curve" smooth="yes"/>
      <point x="859" y="111" type="line" smooth="yes"/>
      <point x="859" y="95"/>
      <point x="814" y="72"/>
      <point x="733" y="56" type="curve"/>
    </contour>
    <contour>
      <point x="339" y="544" type="line"/>
      <point x="877" y="544" type="line"/>
      <point x="877" y="643" type="line"/>
      <point x="339" y="643" type="line"/>
    </contour>
    <contour>
      <point x="40" y="0" type="line"/>
      <point x="490" y="0" type="line"/>
      <point x="490" y="56" type="line"/>
      <point x="403" y="72"/>
      <point x="364" y="97"/>
      <point x="364" y="111" type="curve" smooth="yes"/>
      <point x="364" y="1021" type="line" smooth="yes"/>
      <point x="364" y="1038"/>
      <point x="409" y="1060"/>
      <point x="490" y="1077" type="curve"/>
      <point x="490" y="1134" type="line"/>
      <point x="40" y="1134" type="line"/>
      <point x="40" y="1077" type="line"/>
      <point x="126" y="1060"/>
      <point x="166" y="1035"/>
      <point x="166" y="1021" type="curve" smooth="yes"/>
      <point x="166" y="111" type="line" smooth="yes"/>
      <point x="166" y="95"/>
      <point x="121" y="72"/>
      <point x="40" y="56" type="curve"/>
    </contour>
  </outline>
</glyph>
<glyph name="I" format="2">
  <advance width="585"/>
  <unicode hex="0049"/>
  <outline>
    <contour>
      <point x="58" y="0" type="line"/>
      <point x="508" y="0" type="line"/>
      <point x="508" y="56" type="line"/>
      <point x="422" y="72"/>
      <point x="382" y="97"/>
      <point x="382" y="111" type="curve" smooth="yes"/>
      <point x="382" y="1021" type="line" smooth="yes"/>
      <point x="382" y="1038"/>
      <point x="427" y="1060"/>
      <point x="508" y="1077" type="curve"/>
      <point x="508" y="1134" type="line"/>
      <point x="58" y="1134" type="line"/>
      <point x="58" y="1077" type="line"/>
      <point x="144" y="1060"/>
      <point x="184" y="1035"/>
      <point x="184" y="1021" type="curve" smooth="yes"/>
      <point x="184" y="111" type="line" smooth="yes"/>
      <point x="184" y="95"/>
      <point x="139" y="72"/>
      <point x="58" y="56" type="curve"/>
    </contour>
  </outline>
</glyph>
<glyph name="J" format="2">
  <advance width="634"/>
  <unicode hex="004A"/>
  <outline>
    <contour>
      <point x="580" y="1059" type="curve"/>
      <point x="580" y="1134" type="line"/>
      <point x="40" y="1134" type="line"/>
      <point x="40" y="1059" type="line"/>
      <point x="184" y="1038"/>
      <point x="207" y="1017"/>
      <point x="207" y="1003" type="curve" smooth="yes"/>
      <point x="207" y="92" type="line" smooth="yes"/>
      <point x="207" y="-189"/>
      <point x="147" y="-222"/>
      <point x="84" y="-222" type="curve" smooth="yes"/>
      <point x="38" y="-222"/>
      <point x="-27" y="-197"/>
      <point x="-93" y="-135" type="curve"/>
      <point x="-126" y="-147"/>
      <point x="-261" y="-268"/>
      <point x="-261" y="-297" type="curve" smooth="yes"/>
      <point x="-261" y="-326"/>
      <point x="-140" y="-387"/>
      <point x="-22" y="-387" type="curve" smooth="yes"/>
      <point x="69" y="-387"/>
      <point x="171" y="-338"/>
      <point x="234" y="-286" type="curve" smooth="yes"/>
      <point x="329" y="-209"/>
      <point x="459" y="-99"/>
      <point x="459" y="157" type="curve" smooth="yes"/>
      <point x="459" y="1003" type="line" smooth="yes"/>
      <point x="459" y="1020"/>
      <point x="499" y="1042"/>
    </contour>
  </outline>
</glyph>
<glyph name="K" format="2">
  <advance width="1115"/>
  <unicode hex="004B"/>
  <anchor x="267" y="0" name="H"/>
  <anchor x="554" y="1233" name="U"/>
  <outline>
    <contour>
      <point x="1053" y="1077" type="curve"/>
      <point x="1053" y="1134" type="line"/>
      <point x="657" y="1134" type="line"/>
      <point x="657" y="1077" type="line"/>
      <point x="751" y="1069"/>
      <point x="765" y="1062"/>
      <point x="710" y="997" type="curve" smooth="yes"/>
      <point x="355" y="578" type="line"/>
      <point x="493" y="578" type="line"/>
      <point x="909" y="1021" type="line" smooth="yes"/>
      <point x="946" y="1061"/>
      <point x="975" y="1067"/>
    </contour>
    <contour>
      <point x="1110" y="42" type="curve"/>
      <point x="1104" y="99" type="line"/>
      <point x="1042" y="91"/>
      <point x="994" y="93"/>
      <point x="954" y="136" type="curve" smooth="yes"/>
      <point x="481" y="648" type="line"/>
      <point x="355" y="578" type="line"/>
      <point x="800" y="26" type="line" smooth="yes"/>
      <point x="824" y="-3"/>
      <point x="849" y="-12"/>
      <point x="884" y="-12" type="curve" smooth="yes"/>
      <point x="942" y="-12"/>
      <point x="1040" y="19"/>
    </contour>
    <contour>
      <point x="40" y="0" type="line"/>
      <point x="490" y="0" type="line"/>
      <point x="490" y="56" type="line"/>
      <point x="403" y="72"/>
      <point x="364" y="97"/>
      <point x="364" y="111" type="curve" smooth="yes"/>
      <point x="364" y="1021" type="line" smooth="yes"/>
      <point x="364" y="1038"/>
      <point x="409" y="1060"/>
      <point x="490" y="1077" type="curve"/>
      <point x="490" y="1134" type="line"/>
      <point x="40" y="1134" type="line"/>
      <point x="40" y="1077" type="line"/>
      <point x="126" y="1060"/>
      <point x="166" y="1035"/>
      <point x="166" y="1021" type="curve" smooth="yes"/>
      <point x="166" y="111" type="line" smooth="yes"/>
      <point x="166" y="95"/>
      <point x="121" y="72"/>
      <point x="40" y="56" type="curve"/>
    </contour>
  </outline>
</glyph>
<glyph name="L" format="2">
  <advance width="918"/>
  <unicode hex="004C"/>
  <outline>
    <contour>
      <point x="894" y="255" type="curve"/>
      <point x="837" y="276" type="line"/>
      <point x="786" y="135"/>
      <point x="753" y="99"/>
      <point x="642" y="99" type="curve" smooth="yes"/>
      <point x="531" y="99" type="line" smooth="yes"/>
      <point x="400" y="99"/>
      <point x="364" y="123"/>
      <point x="364" y="165" type="curve" smooth="yes"/>
      <point x="364" y="1021" type="line" smooth="yes"/>
      <point x="364" y="1038"/>
      <point x="409" y="1060"/>
      <point x="490" y="1077" type="curve"/>
      <point x="490" y="1134" type="line"/>
      <point x="40" y="1134" type="line"/>
      <point x="40" y="1077" type="line"/>
      <point x="126" y="1060"/>
      <point x="166" y="1035"/>
      <point x="166" y="1021" type="curve" smooth="yes"/>
      <point x="166" y="111" type="line" smooth="yes"/>
      <point x="166" y="95"/>
      <point x="121" y="72"/>
      <point x="40" y="56" type="curve"/>
      <point x="40" y="0" type="line"/>
      <point x="857" y="0" type="line"/>
      <point x="866" y="35"/>
      <point x="885" y="152"/>
    </contour>
  </outline>
</glyph>
<glyph name="M" format="2">
  <advance width="1535"/>
  <unicode hex="004D"/>
  <outline>
    <contour>
      <point x="1017" y="0" type="line"/>
      <point x="1467" y="0" type="line"/>
      <point x="1467" y="56" type="line"/>
      <point x="1380" y="72"/>
      <point x="1336" y="97"/>
      <point x="1336" y="111" type="curve" smooth="yes"/>
      <point x="1327" y="1074" type="line"/>
      <point x="1143" y="1023" type="line"/>
      <point x="1152" y="111" type="line" smooth="yes"/>
      <point x="1152" y="95"/>
      <point x="1098" y="72"/>
      <point x="1017" y="56" type="curve"/>
    </contour>
    <contour>
      <point x="1444" y="1077" type="curve"/>
      <point x="1444" y="1134" type="line"/>
      <point x="1155" y="1134" type="line" smooth="yes"/>
      <point x="1133" y="1134"/>
      <point x="1124" y="1129"/>
      <point x="1093" y="1058" type="curve" smooth="yes"/>
      <point x="731" y="235" type="line" smooth="yes"/>
      <point x="715" y="197"/>
      <point x="727" y="151"/>
      <point x="755" y="0" type="curve"/>
      <point x="758" y="0" type="line"/>
      <point x="1166" y="930" type="line" smooth="yes"/>
      <point x="1201" y="1008"/>
      <point x="1363" y="1077"/>
    </contour>
    <contour>
      <point x="776" y="237" type="curve" smooth="yes"/>
      <point x="414" y="1058" type="line" smooth="yes"/>
      <point x="385" y="1123"/>
      <point x="375" y="1134"/>
      <point x="351" y="1134" type="curve" smooth="yes"/>
      <point x="58" y="1134" type="line"/>
      <point x="58" y="1077" type="line"/>
      <point x="124" y="1077"/>
      <point x="229" y="1049"/>
      <point x="276" y="941" type="curve" smooth="yes"/>
      <point x="687" y="0" type="line"/>
      <point x="755" y="0" type="line"/>
      <point x="784" y="151"/>
      <point x="792" y="200"/>
    </contour>
    <contour>
      <point x="49" y="0" type="line"/>
      <point x="423" y="0" type="line"/>
      <point x="423" y="56" type="line"/>
      <point x="336" y="72"/>
      <point x="297" y="97"/>
      <point x="297" y="111" type="curve" smooth="yes"/>
      <point x="306" y="1080" type="line"/>
      <point x="184" y="1058" type="line"/>
      <point x="175" y="111" type="line" smooth="yes"/>
      <point x="175" y="95"/>
      <point x="131" y="72"/>
      <point x="49" y="56" type="curve"/>
    </contour>
  </outline>
</glyph>
<glyph name="N" format="2">
  <advance width="1232"/>
  <unicode hex="004E"/>
  <outline>
    <contour>
      <point x="1197" y="1059" type="curve"/>
      <point x="1197" y="1134" type="line"/>
      <point x="810" y="1134" type="line"/>
      <point x="810" y="1059" type="line"/>
      <point x="906" y="1045"/>
      <point x="931" y="1017"/>
      <point x="931" y="1003" type="curve" smooth="yes"/>
      <point x="931" y="63" type="line"/>
      <point x="1075" y="28" type="line"/>
      <point x="1075" y="1003" type="line" smooth="yes"/>
      <point x="1075" y="1020"/>
      <point x="1110" y="1047"/>
    </contour>
    <contour>
      <point x="1075" y="-27" type="curve"/>
      <point x="1075" y="135" type="line"/>
      <point x="1075" y="135"/>
      <point x="976" y="255"/>
      <point x="951" y="290" type="curve" smooth="yes"/>
      <point x="394" y="1063" type="line" smooth="yes"/>
      <point x="349" y="1125"/>
      <point x="342" y="1134"/>
      <point x="307" y="1134" type="curve" smooth="yes"/>
      <point x="36" y="1134" type="line"/>
      <point x="36" y="1059" type="line"/>
      <point x="99" y="1049"/>
      <point x="164" y="996"/>
      <point x="214" y="927" type="curve" smooth="yes"/>
      <point x="824" y="81" type="line" smooth="yes"/>
      <point x="862" y="29"/>
      <point x="943" y="-17"/>
    </contour>
    <contour>
      <point x="36" y="0" type="line"/>
      <point x="423" y="0" type="line"/>
      <point x="423" y="74" type="line"/>
      <point x="330" y="87"/>
      <point x="301" y="115"/>
      <point x="301" y="129" type="curve" smooth="yes"/>
      <point x="301" y="1098" type="line"/>
      <point x="157" y="1040" type="line"/>
      <point x="157" y="129" type="line" smooth="yes"/>
      <point x="157" y="113"/>
      <point x="124" y="85"/>
      <point x="36" y="74" type="curve"/>
    </contour>
  </outline>
</glyph>
<glyph name="O" format="2">
  <advance width="1160"/>
  <unicode hex="004F"/>
  <outline>
    <contour>
      <point x="544" y="-27" type="curve" smooth="yes"/>
      <point x="843" y="-27"/>
      <point x="1096" y="256"/>
      <point x="1096" y="582" type="curve" smooth="yes"/>
      <point x="1096" y="875"/>
      <point x="920" y="1161"/>
      <point x="596" y="1161" type="curve" smooth="yes"/>
      <point x="269" y="1161"/>
      <point x="45" y="877"/>
      <point x="45" y="550" type="curve" smooth="yes"/>
      <point x="45" y="248"/>
      <point x="236" y="-27"/>
    </contour>
    <contour>
      <point x="588" y="99" type="curve" smooth="yes"/>
      <point x="431" y="99"/>
      <point x="301" y="307"/>
      <point x="301" y="576" type="curve" smooth="yes"/>
      <point x="301" y="870"/>
      <point x="384" y="1039"/>
      <point x="543" y="1039" type="curve" smooth="yes"/>
      <point x="720" y="1039"/>
      <point x="839" y="814"/>
      <point x="839" y="566" type="curve" smooth="yes"/>
      <point x="839" y="248"/>
      <point x="733" y="99"/>
    </contour>
  </outline>
</glyph>
<glyph name="P" format="2">
  <advance width="1071"/>
  <unicode hex="0050"/>
  <outline>
    <contour>
      <point x="1009" y="842" type="curve" smooth="yes"/>
      <point x="1009" y="1048"/>
      <point x="816" y="1161"/>
      <point x="531" y="1161" type="curve" smooth="yes"/>
      <point x="367" y="1161"/>
      <point x="157" y="1138"/>
      <point x="23" y="1107" type="curve"/>
      <point x="36" y="1015" type="line"/>
      <point x="152" y="1035"/>
      <point x="353" y="1058"/>
      <point x="479" y="1058" type="curve" smooth="yes"/>
      <point x="647" y="1058"/>
      <point x="753" y="966"/>
      <point x="753" y="805" type="curve" smooth="yes"/>
      <point x="753" y="636"/>
      <point x="662" y="567"/>
      <point x="560" y="567" type="curve" smooth="yes"/>
      <point x="518" y="567"/>
      <point x="489" y="571"/>
      <point x="440" y="594" type="curve"/>
      <point x="469" y="490" type="line"/>
      <point x="510" y="472"/>
      <point x="568" y="463"/>
      <point x="623" y="463" type="curve" smooth="yes"/>
      <point x="789" y="463"/>
      <point x="1009" y="593"/>
    </contour>
    <contour>
      <point x="36" y="0" type="line"/>
      <point x="558" y="0" type="line"/>
      <point x="558" y="74" type="line"/>
      <point x="432" y="95"/>
      <point x="409" y="115"/>
      <point x="409" y="129" type="curve" smooth="yes"/>
      <point x="409" y="1062" type="line"/>
      <point x="157" y="1062" type="line"/>
      <point x="157" y="129" type="line" smooth="yes"/>
      <point x="157" y="113"/>
      <point x="117" y="90"/>
      <point x="36" y="74" type="curve"/>
    </contour>
  </outline>
</glyph>
<glyph name="Q" format="2">
  <advance width="1160"/>
  <unicode hex="0051"/>
  <outline>
    <contour>
      <point x="1096" y="582" type="curve" smooth="yes"/>
      <point x="1096" y="875"/>
      <point x="920" y="1161"/>
      <point x="596" y="1161" type="curve" smooth="yes"/>
      <point x="269" y="1161"/>
      <point x="45" y="877"/>
      <point x="45" y="550" type="curve" smooth="yes"/>
      <point x="45" y="248"/>
      <point x="236" y="-27"/>
      <point x="544" y="-27" type="curve" smooth="yes"/>
      <point x="843" y="-27"/>
      <point x="1096" y="256"/>
    </contour>
    <contour>
      <point x="1315" y="-114" type="curve"/>
      <point x="1264" y="-46" type="line"/>
      <point x="1193" y="-99"/>
      <point x="1170" y="-108"/>
      <point x="1141" y="-108" type="curve" smooth="yes"/>
      <point x="1012" y="-108"/>
      <point x="879" y="7"/>
      <point x="705" y="44" type="curve" smooth="yes"/>
      <point x="674" y="50"/>
      <point x="477" y="18"/>
      <point x="477" y="18" type="curve"/>
      <point x="694" y="-14"/>
      <point x="922" y="-301"/>
      <point x="1135" y="-301" type="curve" smooth="yes"/>
      <point x="1172" y="-301"/>
      <point x="1259" y="-218"/>
    </contour>
    <contour>
      <point x="839" y="566" type="curve" smooth="yes"/>
      <point x="839" y="248"/>
      <point x="733" y="99"/>
      <point x="588" y="99" type="curve" smooth="yes"/>
      <point x="431" y="99"/>
      <point x="301" y="307"/>
      <point x="301" y="576" type="curve" smooth="yes"/>
      <point x="301" y="870"/>
      <point x="384" y="1039"/>
      <point x="543" y="1039" type="curve" smooth="yes"/>
      <point x="720" y="1039"/>
      <point x="839" y="814"/>
    </contour>
  </outline>
</glyph>
<glyph name="R" format="2">
  <advance width="1142"/>
  <unicode hex="0052"/>
  <outline>
    <contour>
      <point x="960" y="888" type="curve" smooth="yes"/>
      <point x="960" y="1043"/>
      <point x="835" y="1161"/>
      <point x="494" y="1161" type="curve" smooth="yes"/>
      <point x="317" y="1161"/>
      <point x="153" y="1134"/>
      <point x="23" y="1107" type="curve"/>
      <point x="36" y="1015" type="line"/>
      <point x="159" y="1034"/>
      <point x="346" y="1058"/>
      <point x="451" y="1058" type="curve" smooth="yes"/>
      <point x="657" y="1058"/>
      <point x="703" y="964"/>
      <point x="703" y="860" type="curve" smooth="yes"/>
      <point x="703" y="720"/>
      <point x="642" y="633"/>
      <point x="489" y="633" type="curve" smooth="yes"/>
      <point x="459" y="633"/>
      <point x="435" y="635"/>
      <point x="393" y="642" type="curve"/>
      <point x="398" y="534" type="line"/>
      <point x="435" y="525"/>
      <point x="471" y="522"/>
      <point x="504" y="522" type="curve" smooth="yes"/>
      <point x="755" y="522"/>
      <point x="960" y="657"/>
    </contour>
    <contour>
      <point x="1151" y="51" type="curve"/>
      <point x="1136" y="126" type="line"/>
      <point x="1055" y="118"/>
      <point x="1035" y="128"/>
      <point x="997" y="179" type="curve" smooth="yes"/>
      <point x="668" y="610" type="line"/>
      <point x="521" y="550" type="line"/>
      <point x="789" y="36" type="line"/>
      <point x="805" y="9"/>
      <point x="843" y="-12"/>
      <point x="877" y="-12" type="curve" smooth="yes"/>
      <point x="924" y="-12"/>
      <point x="1071" y="25"/>
    </contour>
    <contour>
      <point x="36" y="0" type="line"/>
      <point x="531" y="0" type="line"/>
      <point x="531" y="74" type="line"/>
      <point x="443" y="90"/>
      <point x="409" y="115"/>
      <point x="409" y="129" type="curve" smooth="yes"/>
      <point x="409" y="1071" type="line"/>
      <point x="157" y="1071" type="line"/>
      <point x="157" y="129" type="line" smooth="yes"/>
      <point x="157" y="113"/>
      <point x="117" y="90"/>
      <point x="36" y="74" type="curve"/>
    </contour>
  </outline>
</glyph>
<glyph name="S" format="2">
  <advance width="922"/>
  <unicode hex="0053"/>
  <outline>
    <contour>
      <point x="715" y="922" type="line"/>
      <point x="745" y="948"/>
      <point x="807" y="1063"/>
      <point x="790" y="1078" type="curve"/>
      <point x="746" y="1125"/>
      <point x="622" y="1161"/>
      <point x="500" y="1161" type="curve" smooth="yes"/>
      <point x="218" y="1161"/>
      <point x="105" y="978"/>
      <point x="105" y="865" type="curve" smooth="yes"/>
      <point x="105" y="517"/>
      <point x="670" y="575"/>
      <point x="670" y="282" type="curve" smooth="yes"/>
      <point x="670" y="168"/>
      <point x="563" y="94"/>
      <point x="455" y="94" type="curve" smooth="yes"/>
      <point x="333" y="94"/>
      <point x="223" y="181"/>
      <point x="168" y="323" type="curve"/>
      <point x="113" y="327" type="line"/>
      <point x="90" y="244"/>
      <point x="92" y="70"/>
      <point x="108" y="61" type="curve" smooth="yes"/>
      <point x="193" y="7"/>
      <point x="330" y="-27"/>
      <point x="414" y="-27" type="curve" smooth="yes"/>
      <point x="707" y="-27"/>
      <point x="846" y="179"/>
      <point x="846" y="339" type="curve" smooth="yes"/>
      <point x="846" y="694"/>
      <point x="276" y="690"/>
      <point x="276" y="917" type="curve" smooth="yes"/>
      <point x="276" y="985"/>
      <point x="327" y="1061"/>
      <point x="451" y="1061" type="curve" smooth="yes"/>
      <point x="520" y="1061"/>
      <point x="607" y="1029"/>
      <point x="665" y="927" type="curve"/>
    </contour>
  </outline>
</glyph>
<glyph name="T" format="2">
  <advance width="1087"/>
  <unicode hex="0054"/>
  <outline>
    <contour>
      <point x="1055" y="1102" type="curve"/>
      <point x="1019" y="1134" type="line"/>
      <point x="645" y="1134" type="line"/>
      <point x="619" y="1017" type="line"/>
      <point x="868" y="1017" type="line" smooth="yes"/>
      <point x="919" y="1017"/>
      <point x="919" y="939"/>
      <point x="943" y="828" type="curve"/>
      <point x="1019" y="828" type="line"/>
      <point x="1034" y="903"/>
      <point x="1053" y="1041"/>
    </contour>
    <contour>
      <point x="190" y="1017" type="curve" smooth="yes"/>
      <point x="430" y="1017" type="line"/>
      <point x="423" y="1134" type="line"/>
      <point x="38" y="1134" type="line"/>
      <point x="26" y="1071"/>
      <point x="5" y="915"/>
      <point x="0" y="845" type="curve"/>
      <point x="74" y="819" type="line"/>
      <point x="128" y="959"/>
      <point x="153" y="1017"/>
    </contour>
    <contour>
      <point x="267" y="0" type="line"/>
      <point x="796" y="0" type="line"/>
      <point x="796" y="74" type="line"/>
      <point x="685" y="97"/>
      <point x="657" y="124"/>
      <point x="657" y="139" type="curve" smooth="yes"/>
      <point x="657" y="1023" type="line" smooth="yes"/>
      <point x="657" y="1039"/>
      <point x="705" y="1042"/>
      <point x="786" y="1059" type="curve"/>
      <point x="786" y="1134" type="line"/>
      <point x="293" y="1134" type="line"/>
      <point x="293" y="1059" type="line"/>
      <point x="379" y="1042"/>
      <point x="405" y="1037"/>
      <point x="405" y="1023" type="curve" smooth="yes"/>
      <point x="405" y="139" type="line" smooth="yes"/>
      <point x="405" y="122"/>
      <point x="378" y="97"/>
      <point x="267" y="74" type="curve"/>
    </contour>
  </outline>
</glyph>
<glyph name="U" format="2">
  <advance width="1223"/>
  <unicode hex="0055"/>
  <outline>
    <contour>
      <point x="1170" y="1077" type="curve"/>
      <point x="1170" y="1134" type="line"/>
      <point x="774" y="1134" type="line"/>
      <point x="774" y="1077" type="line"/>
      <point x="860" y="1060"/>
      <point x="900" y="1035"/>
      <point x="900" y="1021" type="curve" smooth="yes"/>
      <point x="900" y="443" type="line" smooth="yes"/>
      <point x="900" y="265"/>
      <point x="828" y="94"/>
      <point x="657" y="94" type="curve" smooth="yes"/>
      <point x="451" y="94"/>
      <point x="364" y="223"/>
      <point x="364" y="453" type="curve" smooth="yes"/>
      <point x="364" y="1021" type="line" smooth="yes"/>
      <point x="364" y="1038"/>
      <point x="409" y="1060"/>
      <point x="490" y="1077" type="curve"/>
      <point x="490" y="1134" type="line"/>
      <point x="40" y="1134" type="line"/>
      <point x="40" y="1077" type="line"/>
      <point x="126" y="1060"/>
      <point x="166" y="1035"/>
      <point x="166" y="1021" type="curve" smooth="yes"/>
      <point x="166" y="399" type="line" smooth="yes"/>
      <point x="166" y="107"/>
      <point x="360" y="-27"/>
      <point x="608" y="-27" type="curve" smooth="yes"/>
      <point x="867" y="-27"/>
      <point x="1044" y="156"/>
      <point x="1044" y="471" type="curve" smooth="yes"/>
      <point x="1044" y="1021" type="line" smooth="yes"/>
      <point x="1044" y="1038"/>
      <point x="1089" y="1060"/>
    </contour>
  </outline>
</glyph>
<glyph name="V" format="2">
  <advance width="1215"/>
  <unicode hex="0056"/>
  <outline>
    <contour>
      <point x="1183" y="1077" type="curve"/>
      <point x="1183" y="1134" type="line"/>
      <point x="800" y="1134" type="line"/>
      <point x="800" y="1077" type="line"/>
      <point x="898" y="1065"/>
      <point x="931" y="1053"/>
      <point x="918" y="1017" type="curve" smooth="yes"/>
      <point x="639" y="232" type="line"/>
      <point x="339" y="1019" type="line" smooth="yes"/>
      <point x="326" y="1053"/>
      <point x="354" y="1070"/>
      <point x="450" y="1077" type="curve"/>
      <point x="450" y="1134" type="line"/>
      <point x="13" y="1134" type="line"/>
      <point x="13" y="1077" type="line"/>
      <point x="89" y="1067"/>
      <point x="124" y="1049"/>
      <point x="136" y="1017" type="curve" smooth="yes"/>
      <point x="541" y="-27" type="line"/>
      <point x="591" y="-15"/>
      <point x="684" y="13"/>
      <point x="703" y="66" type="curve" smooth="yes"/>
      <point x="1044" y="1017" type="line"/>
      <point x="1055" y="1051"/>
      <point x="1102" y="1062"/>
    </contour>
  </outline>
</glyph>
<glyph name="W" format="2">
  <advance width="1566"/>
  <unicode hex="0057"/>
  <outline>
    <contour>
      <point x="1567" y="1059" type="curve"/>
      <point x="1567" y="1134" type="line"/>
      <point x="1159" y="1134" type="line"/>
      <point x="1159" y="1059" type="line"/>
      <point x="1240" y="1045"/>
      <point x="1303" y="1031"/>
      <point x="1297" y="1003" type="curve"/>
      <point x="1161" y="387" type="line"/>
      <point x="864" y="1134" type="line"/>
      <point x="761" y="1134" type="line"/>
      <point x="508" y="387" type="line"/>
      <point x="362" y="996" type="line"/>
      <point x="357" y="1022"/>
      <point x="359" y="1047"/>
      <point x="476" y="1059" type="curve"/>
      <point x="476" y="1134" type="line"/>
      <point x="18" y="1134" type="line"/>
      <point x="18" y="1059" type="line"/>
      <point x="103" y="1044"/>
      <point x="135" y="1026"/>
      <point x="142" y="996" type="curve" smooth="yes"/>
      <point x="376" y="-27" type="line"/>
      <point x="424" y="-16"/>
      <point x="504" y="1"/>
      <point x="521" y="53" type="curve"/>
      <point x="779" y="768" type="line"/>
      <point x="1090" y="-27" type="line"/>
      <point x="1127" y="-18"/>
      <point x="1214" y="1"/>
      <point x="1224" y="53" type="curve" smooth="yes"/>
      <point x="1431" y="1003" type="line" smooth="yes"/>
      <point x="1434" y="1022"/>
      <point x="1461" y="1037"/>
    </contour>
  </outline>
</glyph>
<glyph name="X" format="2">
  <advance width="1170"/>
  <unicode hex="0058"/>
  <outline>
    <contour>
      <point x="1107" y="1059" type="curve"/>
      <point x="1107" y="1134" type="line"/>
      <point x="699" y="1134" type="line"/>
      <point x="699" y="1059" type="line"/>
      <point x="806" y="1051"/>
      <point x="815" y="1038"/>
      <point x="781" y="983" type="curve" smooth="yes"/>
      <point x="523" y="576" type="line"/>
      <point x="592" y="440" type="line"/>
      <point x="942" y="983" type="line" smooth="yes"/>
      <point x="974" y="1034"/>
      <point x="1019" y="1049"/>
    </contour>
    <contour>
      <point x="646" y="0" type="line"/>
      <point x="1151" y="0" type="line"/>
      <point x="1151" y="74" type="line"/>
      <point x="1080" y="83"/>
      <point x="1053" y="99"/>
      <point x="1017" y="150" type="curve" smooth="yes"/>
      <point x="445" y="983" type="line" smooth="yes"/>
      <point x="409" y="1035"/>
      <point x="440" y="1049"/>
      <point x="541" y="1059" type="curve"/>
      <point x="541" y="1134" type="line"/>
      <point x="27" y="1134" type="line"/>
      <point x="27" y="1059" type="line"/>
      <point x="107" y="1047"/>
      <point x="131" y="1036"/>
      <point x="168" y="983" type="curve" smooth="yes"/>
      <point x="740" y="150" type="line" smooth="yes"/>
      <point x="774" y="102"/>
      <point x="751" y="85"/>
      <point x="646" y="74" type="curve"/>
    </contour>
    <contour>
      <point x="343" y="150" type="curve" smooth="yes"/>
      <point x="594" y="520" type="line"/>
      <point x="536" y="676" type="line"/>
      <point x="182" y="150" type="line" smooth="yes"/>
      <point x="150" y="102"/>
      <point x="96" y="80"/>
      <point x="18" y="74" type="curve"/>
      <point x="18" y="0" type="line"/>
      <point x="423" y="0" type="line"/>
      <point x="423" y="74" type="line"/>
      <point x="313" y="81"/>
      <point x="308" y="98"/>
    </contour>
  </outline>
</glyph>
<glyph name="Y" format="2">
  <advance width="1140"/>
  <unicode hex="0059"/>
  <outline>
    <contour>
      <point x="1112" y="1059" type="curve"/>
      <point x="1112" y="1134" type="line"/>
      <point x="729" y="1134" type="line"/>
      <point x="729" y="1059" type="line"/>
      <point x="821" y="1047"/>
      <point x="846" y="1031"/>
      <point x="828" y="999" type="curve"/>
      <point x="629" y="610" type="line"/>
      <point x="545" y="783"/>
      <point x="436" y="980"/>
      <point x="348" y="1098" type="curve" smooth="yes"/>
      <point x="327" y="1126"/>
      <point x="286" y="1143"/>
      <point x="251" y="1143" type="curve" smooth="yes"/>
      <point x="201" y="1143"/>
      <point x="70" y="1125"/>
      <point x="0" y="1115" type="curve"/>
      <point x="3" y="1040" type="line"/>
      <point x="103" y="1040"/>
      <point x="121" y="1026"/>
      <point x="142" y="999" type="curve" smooth="yes"/>
      <point x="232" y="880"/>
      <point x="378" y="630"/>
      <point x="463" y="431" type="curve"/>
      <point x="679" y="431" type="line"/>
      <point x="981" y="999" type="line"/>
      <point x="998" y="1030"/>
      <point x="1030" y="1044"/>
    </contour>
    <contour>
      <point x="306" y="0" type="line"/>
      <point x="837" y="0" type="line"/>
      <point x="837" y="74" type="line"/>
      <point x="724" y="97"/>
      <point x="696" y="124"/>
      <point x="696" y="139" type="curve" smooth="yes"/>
      <point x="696" y="573" type="line"/>
      <point x="444" y="573" type="line"/>
      <point x="444" y="139" type="line" smooth="yes"/>
      <point x="444" y="122"/>
      <point x="414" y="97"/>
      <point x="306" y="74" type="curve"/>
    </contour>
  </outline>
</glyph>
<glyph name="Z" format="2">
  <advance width="1017"/>
  <unicode hex="005A"/>
  <outline>
    <contour>
      <point x="954" y="335" type="curve"/>
      <point x="869" y="357" type="line"/>
      <point x="823" y="209"/>
      <point x="797" y="126"/>
      <point x="746" y="126" type="curve" smooth="yes"/>
      <point x="356" y="126" type="line"/>
      <point x="945" y="1086" type="line"/>
      <point x="914" y="1134" type="line"/>
      <point x="297" y="1134" type="line" smooth="yes"/>
      <point x="226" y="1134"/>
      <point x="191" y="1134"/>
      <point x="126" y="1148" type="curve"/>
      <point x="90" y="805" type="line"/>
      <point x="178" y="785" type="line"/>
      <point x="204" y="910"/>
      <point x="268" y="1008"/>
      <point x="306" y="1008" type="curve" smooth="yes"/>
      <point x="639" y="1008" type="line"/>
      <point x="44" y="49" type="line"/>
      <point x="79" y="0" type="line"/>
      <point x="944" y="0" type="line"/>
      <point x="945" y="70"/>
      <point x="951" y="258"/>
    </contour>
  </outline>
</glyph>
<glyph name="bracketleft" format="2">
  <advance width="603"/>
  <unicode hex="005B"/>
  <outline>
    <contour>
      <point x="576" y="-210" type="curve"/>
      <point x="540" y="-180" type="line"/>
      <point x="297" y="-180" type="line"/>
      <point x="297" y="1318" type="line"/>
      <point x="545" y="1318" type="line"/>
      <point x="553" y="1332"/>
      <point x="569" y="1382"/>
      <point x="574" y="1412" type="curve"/>
      <point x="540" y="1440" type="line"/>
      <point x="117" y="1440" type="line"/>
      <point x="117" y="-301" type="line"/>
      <point x="545" y="-301" type="line"/>
      <point x="554" y="-280"/>
      <point x="571" y="-234"/>
    </contour>
  </outline>
</glyph>
<glyph name="backslash" format="2">
  <advance width="864"/>
  <unicode hex="005C"/>
  <outline>
    <contour>
      <point x="787" y="-301" type="curve"/>
      <point x="823" y="-274" type="line"/>
      <point x="202" y="1391" type="line"/>
      <point x="169" y="1412"/>
      <point x="113" y="1431"/>
      <point x="78" y="1440" type="curve"/>
      <point x="40" y="1415" type="line"/>
      <point x="662" y="-251" type="line"/>
      <point x="684" y="-267"/>
      <point x="758" y="-292"/>
    </contour>
  </outline>
</glyph>
<glyph name="bracketright" format="2">
  <advance width="567"/>
  <unicode hex="005D"/>
  <outline>
    <contour>
      <point x="58" y="-301" type="line"/>
      <point x="531" y="-301" type="line"/>
      <point x="531" y="1440" type="line"/>
      <point x="53" y="1440" type="line"/>
      <point x="44" y="1419"/>
      <point x="23" y="1359"/>
      <point x="18" y="1335" type="curve"/>
      <point x="58" y="1300" type="line"/>
      <point x="297" y="1300" type="line"/>
      <point x="297" y="-162" type="line"/>
      <point x="53" y="-162" type="line"/>
      <point x="45" y="-176"/>
      <point x="25" y="-239"/>
      <point x="19" y="-269" type="curve"/>
    </contour>
  </outline>
</glyph>
<glyph name="underscore" format="2">
  <advance width="732"/>
  <unicode hex="005F"/>
  <outline>
    <contour>
      <point x="771" y="-147" type="curve"/>
      <point x="739" y="-117" type="line"/>
      <point x="7" y="-117" type="line"/>
      <point x="-3" y="-140"/>
      <point x="-32" y="-199"/>
      <point x="-38" y="-225" type="curve"/>
      <point x="-7" y="-256" type="line"/>
      <point x="725" y="-256" type="line"/>
      <point x="734" y="-236"/>
      <point x="764" y="-173"/>
    </contour>
  </outline>
</glyph>
<glyph name="grave" format="2">
  <advance width="587"/>
  <unicode hex="0060"/>
  <outline>
    <contour>
      <point x="402" y="974" type="curve"/>
      <point x="199" y="1353" type="line"/>
      <point x="170" y="1351"/>
      <point x="46" y="1328"/>
      <point x="23" y="1323" type="curve"/>
      <point x="0" y="1277" type="line"/>
      <point x="333" y="937" type="line"/>
      <point x="354" y="944"/>
      <point x="389" y="963"/>
    </contour>
  </outline>
</glyph>
<glyph name="a" format="2">
  <advance width="895"/>
  <unicode hex="0061"/>
  <outline>
    <contour>
      <point x="887" y="91" type="curve"/>
      <point x="869" y="150" type="line"/>
      <point x="821" y="130"/>
      <point x="802" y="126"/>
      <point x="785" y="126" type="curve" smooth="yes"/>
      <point x="764" y="126"/>
      <point x="749" y="145"/>
      <point x="749" y="196" type="curve" smooth="yes"/>
      <point x="749" y="654" type="line" smooth="yes"/>
      <point x="749" y="777"/>
      <point x="675" y="864"/>
      <point x="521" y="864" type="curve" smooth="yes"/>
      <point x="337" y="864"/>
      <point x="140" y="752"/>
      <point x="83" y="617" type="curve"/>
      <point x="100" y="573" type="line"/>
      <point x="130" y="566"/>
      <point x="310" y="615"/>
      <point x="307" y="638" type="curve" smooth="yes"/>
      <point x="300" y="710"/>
      <point x="368" y="755"/>
      <point x="432" y="756" type="curve" smooth="yes"/>
      <point x="531" y="757"/>
      <point x="560" y="699"/>
      <point x="560" y="622" type="curve" smooth="yes"/>
      <point x="560" y="147" type="line" smooth="yes"/>
      <point x="560" y="40"/>
      <point x="594" y="-27"/>
      <point x="640" y="-27" type="curve" smooth="yes"/>
      <point x="681" y="-27"/>
      <point x="785" y="21"/>
    </contour>
    <contour>
      <point x="569" y="430" type="curve"/>
      <point x="569" y="511" type="line"/>
      <point x="277" y="467"/>
      <point x="200" y="419"/>
      <point x="141" y="360" type="curve" smooth="yes"/>
      <point x="97" y="316"/>
      <point x="63" y="261"/>
      <point x="63" y="176" type="curve" smooth="yes"/>
      <point x="63" y="36"/>
      <point x="168" y="-27"/>
      <point x="263" y="-27" type="curve" smooth="yes"/>
      <point x="344" y="-27"/>
      <point x="464" y="15"/>
      <point x="576" y="136" type="curve"/>
      <point x="569" y="225" type="line"/>
      <point x="475" y="142"/>
      <point x="408" y="117"/>
      <point x="352" y="117" type="curve" smooth="yes"/>
      <point x="321" y="117"/>
      <point x="264" y="137"/>
      <point x="264" y="224" type="curve" smooth="yes"/>
      <point x="264" y="276"/>
      <point x="285" y="311"/>
      <point x="316" y="343" type="curve" smooth="yes"/>
      <point x="351" y="379"/>
      <point x="399" y="402"/>
    </contour>
  </outline>
</glyph>
<glyph name="b" format="2">
  <advance width="1008"/>
  <unicode hex="0062"/>
  <outline>
    <contour>
      <point x="945" y="460" type="curve" smooth="yes"/>
      <point x="945" y="705"/>
      <point x="836" y="864"/>
      <point x="654" y="864" type="curve" smooth="yes"/>
      <point x="585" y="864"/>
      <point x="470" y="834"/>
      <point x="351" y="744" type="curve"/>
      <point x="351" y="1355" type="line"/>
      <point x="337" y="1368"/>
      <point x="324" y="1381"/>
      <point x="308" y="1395" type="curve"/>
      <point x="213" y="1358"/>
      <point x="124" y="1341"/>
      <point x="0" y="1323" type="curve"/>
      <point x="0" y="1251" type="line"/>
      <point x="98" y="1239"/>
      <point x="108" y="1237"/>
      <point x="108" y="1130" type="curve" smooth="yes"/>
      <point x="108" y="86" type="line"/>
      <point x="237" y="23"/>
      <point x="385" y="-27"/>
      <point x="458" y="-27" type="curve" smooth="yes"/>
      <point x="678" y="-27"/>
      <point x="945" y="252"/>
    </contour>
    <contour>
      <point x="720" y="376" type="curve" smooth="yes"/>
      <point x="720" y="237"/>
      <point x="665" y="135"/>
      <point x="546" y="135" type="curve" smooth="yes"/>
      <point x="513" y="135"/>
      <point x="446" y="155"/>
      <point x="351" y="200" type="curve"/>
      <point x="351" y="630" type="line"/>
      <point x="433" y="680"/>
      <point x="486" y="697"/>
      <point x="528" y="697" type="curve" smooth="yes"/>
      <point x="635" y="697"/>
      <point x="720" y="615"/>
    </contour>
  </outline>
</glyph>
<glyph name="c" format="2">
  <advance width="850"/>
  <unicode hex="0063"/>
  <outline>
    <contour>
      <point x="819" y="171" type="curve"/>
      <point x="765" y="234" type="line"/>
      <point x="641" y="147"/>
      <point x="586" y="135"/>
      <point x="519" y="135" type="curve" smooth="yes"/>
      <point x="393" y="135"/>
      <point x="297" y="241"/>
      <point x="297" y="427" type="curve" smooth="yes"/>
      <point x="297" y="662"/>
      <point x="387" y="747"/>
      <point x="486" y="747" type="curve" smooth="yes"/>
      <point x="573" y="747"/>
      <point x="621" y="680"/>
      <point x="666" y="537" type="curve"/>
      <point x="736" y="528" type="line"/>
      <point x="758" y="561"/>
      <point x="819" y="763"/>
      <point x="814" y="792" type="curve"/>
      <point x="774" y="835"/>
      <point x="628" y="864"/>
      <point x="549" y="864" type="curve" smooth="yes"/>
      <point x="254" y="864"/>
      <point x="54" y="657"/>
      <point x="54" y="399" type="curve" smooth="yes"/>
      <point x="54" y="132"/>
      <point x="234" y="-27"/>
      <point x="436" y="-27" type="curve" smooth="yes"/>
      <point x="549" y="-27"/>
      <point x="662" y="-3"/>
    </contour>
  </outline>
</glyph>
<glyph name="d" format="2">
  <advance width="1057"/>
  <unicode hex="0064"/>
  <outline>
    <contour>
      <point x="1053" y="111" type="curve"/>
      <point x="1024" y="186" type="line"/>
      <point x="961" y="158"/>
      <point x="948" y="160"/>
      <point x="934" y="167" type="curve" smooth="yes"/>
      <point x="919" y="174"/>
      <point x="913" y="198"/>
      <point x="913" y="282" type="curve" smooth="yes"/>
      <point x="913" y="1359" type="line"/>
      <point x="876" y="1395" type="line"/>
      <point x="814" y="1375"/>
      <point x="692" y="1349"/>
      <point x="549" y="1336" type="curve"/>
      <point x="549" y="1265" type="line"/>
      <point x="666" y="1257"/>
      <point x="670" y="1242"/>
      <point x="670" y="1110" type="curve" smooth="yes"/>
      <point x="670" y="280" type="line" smooth="yes"/>
      <point x="670" y="87"/>
      <point x="698" y="-27"/>
      <point x="764" y="-27" type="curve" smooth="yes"/>
      <point x="797" y="-27"/>
      <point x="943" y="37"/>
    </contour>
    <contour>
      <point x="737" y="180" type="curve"/>
      <point x="734" y="189"/>
      <point x="710" y="260"/>
      <point x="694" y="267" type="curve"/>
      <point x="610" y="186"/>
      <point x="559" y="162"/>
      <point x="492" y="162" type="curve" smooth="yes"/>
      <point x="393" y="162"/>
      <point x="297" y="269"/>
      <point x="297" y="454" type="curve" smooth="yes"/>
      <point x="297" y="657"/>
      <point x="378" y="738"/>
      <point x="486" y="738" type="curve" smooth="yes"/>
      <point x="567" y="738"/>
      <point x="630" y="693"/>
      <point x="676" y="618" type="curve"/>
      <point x="715" y="641"/>
      <point x="729" y="693"/>
      <point x="729" y="765" type="curve"/>
      <point x="636" y="849"/>
      <point x="567" y="864"/>
      <point x="495" y="864" type="curve" smooth="yes"/>
      <point x="235" y="864"/>
      <point x="54" y="651"/>
      <point x="54" y="399" type="curve" smooth="yes"/>
      <point x="54" y="132"/>
      <point x="223" y="-27"/>
      <point x="392" y="-27" type="curve" smooth="yes"/>
      <point x="516" y="-27"/>
      <point x="579" y="21"/>
    </contour>
  </outline>
</glyph>
<glyph name="e" format="2">
  <advance width="905"/>
  <unicode hex="0065"/>
  <outline>
    <contour>
      <point x="851" y="492" type="curve"/>
      <point x="851" y="699"/>
      <point x="734" y="864"/>
      <point x="498" y="864" type="curve" smooth="yes"/>
      <point x="398" y="864"/>
      <point x="301" y="824"/>
      <point x="234" y="774" type="curve" smooth="yes"/>
      <point x="113" y="684"/>
      <point x="54" y="561"/>
      <point x="54" y="399" type="curve" smooth="yes"/>
      <point x="54" y="145"/>
      <point x="225" y="-27"/>
      <point x="436" y="-27" type="curve" smooth="yes"/>
      <point x="586" y="-27"/>
      <point x="676" y="9"/>
      <point x="846" y="175" type="curve"/>
      <point x="840" y="184"/>
      <point x="810" y="231"/>
      <point x="794" y="239" type="curve"/>
      <point x="651" y="146"/>
      <point x="594" y="135"/>
      <point x="518" y="135" type="curve" smooth="yes"/>
      <point x="379" y="135"/>
      <point x="306" y="258"/>
      <point x="306" y="438" type="curve" smooth="yes"/>
      <point x="306" y="631"/>
      <point x="338" y="751"/>
      <point x="464" y="751" type="curve" smooth="yes"/>
      <point x="576" y="751"/>
      <point x="613" y="628"/>
      <point x="613" y="554" type="curve" smooth="yes"/>
      <point x="613" y="529"/>
      <point x="606" y="522"/>
      <point x="579" y="522" type="curve" smooth="yes"/>
      <point x="165" y="522" type="line"/>
      <point x="163" y="414" type="line"/>
      <point x="716" y="414" type="line"/>
      <point x="755" y="429"/>
      <point x="829" y="468"/>
    </contour>
  </outline>
</glyph>
<glyph name="f" format="2">
  <advance width="643"/>
  <unicode hex="0066"/>
  <outline>
    <contour>
      <point x="823" y="1308" type="curve" smooth="yes"/>
      <point x="823" y="1329"/>
      <point x="710" y="1395"/>
      <point x="591" y="1395" type="curve" smooth="yes"/>
      <point x="509" y="1395"/>
      <point x="401" y="1354"/>
      <point x="305" y="1258" type="curve" smooth="yes"/>
      <point x="208" y="1161"/>
      <point x="162" y="1034"/>
      <point x="162" y="864" type="curve" smooth="yes"/>
      <point x="162" y="837" type="line"/>
      <point x="101" y="837" type="line"/>
      <point x="31" y="749" type="line"/>
      <point x="59" y="715" type="line"/>
      <point x="162" y="715" type="line"/>
      <point x="162" y="127" type="line" smooth="yes"/>
      <point x="162" y="113"/>
      <point x="126" y="89"/>
      <point x="45" y="74" type="curve"/>
      <point x="45" y="0" type="line"/>
      <point x="584" y="0" type="line"/>
      <point x="584" y="74" type="line"/>
      <point x="443" y="100"/>
      <point x="405" y="113"/>
      <point x="405" y="127" type="curve" smooth="yes"/>
      <point x="405" y="715" type="line"/>
      <point x="501" y="715"/>
      <point x="545" y="698"/>
      <point x="573" y="684" type="curve"/>
      <point x="594" y="703"/>
      <point x="639" y="759"/>
      <point x="661" y="801" type="curve"/>
      <point x="626" y="837" type="line"/>
      <point x="405" y="837" type="line"/>
      <point x="405" y="914" type="line" smooth="yes"/>
      <point x="405" y="1184"/>
      <point x="449" y="1246"/>
      <point x="511" y="1246" type="curve" smooth="yes"/>
      <point x="551" y="1246"/>
      <point x="607" y="1214"/>
      <point x="664" y="1136" type="curve"/>
      <point x="699" y="1153"/>
      <point x="823" y="1261"/>
    </contour>
  </outline>
</glyph>
<glyph name="g" format="2">
  <advance width="971"/>
  <unicode hex="0067"/>
  <outline>
    <contour>
      <point x="954" y="-90" type="curve" smooth="yes"/>
      <point x="954" y="39"/>
      <point x="875" y="97"/>
      <point x="586" y="135" type="curve" smooth="yes"/>
      <point x="399" y="159"/>
      <point x="392" y="174"/>
      <point x="392" y="194" type="curve" smooth="yes"/>
      <point x="392" y="204"/>
      <point x="399" y="243"/>
      <point x="498" y="315" type="curve"/>
      <point x="325" y="299" type="line"/>
      <point x="186" y="209"/>
      <point x="127" y="132"/>
      <point x="127" y="101" type="curve" smooth="yes"/>
      <point x="127" y="44"/>
      <point x="275" y="-17"/>
      <point x="511" y="-48" type="curve" smooth="yes"/>
      <point x="693" y="-72"/>
      <point x="720" y="-119"/>
      <point x="720" y="-159" type="curve" smooth="yes"/>
      <point x="720" y="-229"/>
      <point x="667" y="-301"/>
      <point x="532" y="-301" type="curve" smooth="yes"/>
      <point x="369" y="-301"/>
      <point x="252" y="-235"/>
      <point x="252" y="-162" type="curve" smooth="yes"/>
      <point x="252" y="-121"/>
      <point x="260" y="-73"/>
      <point x="417" y="27" type="curve"/>
      <point x="412" y="51"/>
      <point x="300" y="54"/>
      <point x="300" y="54" type="curve"/>
      <point x="65" y="-65"/>
      <point x="9" y="-131"/>
      <point x="9" y="-197" type="curve" smooth="yes"/>
      <point x="9" y="-371"/>
      <point x="270" y="-441"/>
      <point x="465" y="-441" type="curve" smooth="yes"/>
      <point x="703" y="-441"/>
      <point x="954" y="-251"/>
    </contour>
    <contour>
      <point x="971" y="828" type="curve"/>
      <point x="944" y="864" type="line"/>
      <point x="888" y="843"/>
      <point x="765" y="801"/>
      <point x="652" y="792" type="curve"/>
      <point x="685" y="705" type="line"/>
      <point x="787" y="702"/>
      <point x="855" y="709"/>
      <point x="919" y="720" type="curve"/>
      <point x="938" y="749"/>
      <point x="965" y="803"/>
    </contour>
    <contour>
      <point x="828" y="576" type="curve" smooth="yes"/>
      <point x="828" y="732"/>
      <point x="684" y="864"/>
      <point x="481" y="864" type="curve" smooth="yes"/>
      <point x="261" y="864"/>
      <point x="72" y="718"/>
      <point x="72" y="541" type="curve" smooth="yes"/>
      <point x="72" y="374"/>
      <point x="235" y="265"/>
      <point x="449" y="265" type="curve" smooth="yes"/>
      <point x="656" y="265"/>
      <point x="828" y="393"/>
    </contour>
    <contour>
      <point x="594" y="540" type="curve" smooth="yes"/>
      <point x="594" y="429"/>
      <point x="541" y="378"/>
      <point x="471" y="378" type="curve" smooth="yes"/>
      <point x="356" y="378"/>
      <point x="306" y="474"/>
      <point x="306" y="593" type="curve" smooth="yes"/>
      <point x="306" y="702"/>
      <point x="369" y="756"/>
      <point x="428" y="756" type="curve" smooth="yes"/>
      <point x="536" y="756"/>
      <point x="594" y="658"/>
    </contour>
  </outline>
</glyph>
<glyph name="h" format="2">
  <advance width="1089"/>
  <unicode hex="0068"/>
  <outline>
    <contour>
      <point x="594" y="0" type="line"/>
      <point x="1071" y="0" type="line"/>
      <point x="1071" y="74" type="line"/>
      <point x="976" y="99"/>
      <point x="954" y="113"/>
      <point x="954" y="129" type="curve" smooth="yes"/>
      <point x="954" y="621" type="line" smooth="yes"/>
      <point x="954" y="801"/>
      <point x="858" y="864"/>
      <point x="755" y="864" type="curve" smooth="yes"/>
      <point x="661" y="864"/>
      <point x="549" y="831"/>
      <point x="400" y="732" type="curve"/>
      <point x="400" y="1355" type="line"/>
      <point x="358" y="1395" type="line"/>
      <point x="262" y="1359"/>
      <point x="187" y="1341"/>
      <point x="40" y="1323" type="curve"/>
      <point x="40" y="1251" type="line"/>
      <point x="156" y="1237"/>
      <point x="157" y="1232"/>
      <point x="157" y="1132" type="curve" smooth="yes"/>
      <point x="157" y="129" type="line" smooth="yes"/>
      <point x="157" y="109"/>
      <point x="119" y="95"/>
      <point x="40" y="74" type="curve"/>
      <point x="40" y="0" type="line"/>
      <point x="517" y="0" type="line"/>
      <point x="517" y="74" type="line"/>
      <point x="440" y="90"/>
      <point x="400" y="111"/>
      <point x="400" y="129" type="curve" smooth="yes"/>
      <point x="400" y="602" type="line"/>
      <point x="491" y="652"/>
      <point x="549" y="684"/>
      <point x="613" y="684" type="curve" smooth="yes"/>
      <point x="684" y="684"/>
      <point x="711" y="643"/>
      <point x="711" y="497" type="curve" smooth="yes"/>
      <point x="711" y="129" type="line" smooth="yes"/>
      <point x="711" y="113"/>
      <point x="680" y="97"/>
      <point x="594" y="74" type="curve"/>
    </contour>
  </outline>
</glyph>
<glyph name="i" format="2">
  <advance width="571"/>
  <unicode hex="0069"/>
  <outline>
    <contour>
      <point x="450" y="1134" type="curve" smooth="yes"/>
      <point x="450" y="1208"/>
      <point x="379" y="1238"/>
      <point x="310" y="1238" type="curve" smooth="yes"/>
      <point x="217" y="1238"/>
      <point x="144" y="1184"/>
      <point x="144" y="1098" type="curve" smooth="yes"/>
      <point x="144" y="1025"/>
      <point x="212" y="993"/>
      <point x="283" y="993" type="curve" smooth="yes"/>
      <point x="378" y="993"/>
      <point x="450" y="1049"/>
    </contour>
    <contour>
      <point x="54" y="0" type="line"/>
      <point x="531" y="0" type="line"/>
      <point x="531" y="74" type="line"/>
      <point x="443" y="90"/>
      <point x="414" y="115"/>
      <point x="414" y="129" type="curve" smooth="yes"/>
      <point x="414" y="864" type="line"/>
      <point x="347" y="864" type="line"/>
      <point x="259" y="834"/>
      <point x="165" y="815"/>
      <point x="54" y="801" type="curve"/>
      <point x="54" y="729" type="line"/>
      <point x="170" y="718"/>
      <point x="171" y="699"/>
      <point x="171" y="576" type="curve" smooth="yes"/>
      <point x="171" y="129" type="line" smooth="yes"/>
      <point x="171" y="113"/>
      <point x="135" y="90"/>
      <point x="54" y="74" type="curve"/>
    </contour>
  </outline>
</glyph>
<glyph name="j" format="2">
  <advance width="495"/>
  <unicode hex="006A"/>
  <anchor x="261" y="945" name="U"/>
  <outline>
    <contour>
      <point x="372" y="1134" type="curve" smooth="yes"/>
      <point x="372" y="1195"/>
      <point x="335" y="1224"/>
      <point x="280" y="1224" type="curve" smooth="yes"/>
      <point x="213" y="1224"/>
      <point x="160" y="1170"/>
      <point x="160" y="1098" type="curve" smooth="yes"/>
      <point x="160" y="1038"/>
      <point x="194" y="1007"/>
      <point x="253" y="1007" type="curve" smooth="yes"/>
      <point x="320" y="1007"/>
      <point x="372" y="1062"/>
    </contour>
    <contour>
      <point x="342" y="91" type="curve" smooth="yes"/>
      <point x="342" y="864" type="line"/>
      <point x="299" y="864" type="line"/>
      <point x="218" y="832"/>
      <point x="165" y="812"/>
      <point x="56" y="794" type="curve"/>
      <point x="56" y="749" type="line"/>
      <point x="179" y="735"/>
      <point x="180" y="719"/>
      <point x="180" y="596" type="curve" smooth="yes"/>
      <point x="180" y="38" type="line" smooth="yes"/>
      <point x="180" y="-245"/>
      <point x="112" y="-315"/>
      <point x="45" y="-315" type="curve" smooth="yes"/>
      <point x="0" y="-315"/>
      <point x="-51" y="-301"/>
      <point x="-90" y="-263" type="curve"/>
      <point x="-125" y="-279"/>
      <point x="-218" y="-353"/>
      <point x="-218" y="-378" type="curve" smooth="yes"/>
      <point x="-218" y="-400"/>
      <point x="-129" y="-447"/>
      <point x="-48" y="-447" type="curve" smooth="yes"/>
      <point x="4" y="-447"/>
      <point x="95" y="-406"/>
      <point x="159" y="-355" type="curve" smooth="yes"/>
      <point x="256" y="-279"/>
      <point x="342" y="-184"/>
    </contour>
  </outline>
</glyph>
<glyph name="k" format="2">
  <advance width="973"/>
  <unicode hex="006B"/>
  <anchor x="247" y="0" name="H"/>
  <anchor x="505" y="1458" name="U"/>
  <outline>
    <contour>
      <point x="946" y="780" type="curve"/>
      <point x="946" y="837" type="line"/>
      <point x="564" y="837" type="line"/>
      <point x="564" y="780" type="line"/>
      <point x="627" y="780"/>
      <point x="673" y="771"/>
      <point x="594" y="701" type="curve" smooth="yes"/>
      <point x="337" y="473" type="line"/>
      <point x="438" y="446" type="line"/>
      <point x="793" y="720" type="line" smooth="yes"/>
      <point x="844" y="759"/>
      <point x="893" y="774"/>
    </contour>
    <contour>
      <point x="33" y="0" type="line"/>
      <point x="443" y="0" type="line"/>
      <point x="443" y="56" type="line"/>
      <point x="354" y="84"/>
      <point x="344" y="93"/>
      <point x="344" y="111" type="curve" smooth="yes"/>
      <point x="344" y="1359" type="line"/>
      <point x="306" y="1395" type="line"/>
      <point x="232" y="1359"/>
      <point x="139" y="1340"/>
      <point x="33" y="1323" type="curve"/>
      <point x="33" y="1269" type="line"/>
      <point x="137" y="1257"/>
      <point x="155" y="1255"/>
      <point x="155" y="1148" type="curve" smooth="yes"/>
      <point x="155" y="111" type="line" smooth="yes"/>
      <point x="155" y="90"/>
      <point x="112" y="77"/>
      <point x="33" y="56" type="curve"/>
    </contour>
    <contour>
      <point x="977" y="25" type="curve"/>
      <point x="972" y="81" type="line"/>
      <point x="902" y="76"/>
      <point x="872" y="83"/>
      <point x="838" y="122" type="curve" smooth="yes"/>
      <point x="473" y="541" type="line"/>
      <point x="339" y="473" type="line"/>
      <point x="672" y="38" type="line" smooth="yes"/>
      <point x="699" y="3"/>
      <point x="730" y="-9"/>
      <point x="780" y="-9" type="curve" smooth="yes"/>
      <point x="805" y="-9"/>
      <point x="907" y="9"/>
    </contour>
  </outline>
</glyph>
<glyph name="l" format="2">
  <advance width="571"/>
  <unicode hex="006C"/>
  <outline>
    <contour>
      <point x="45" y="0" type="line"/>
      <point x="540" y="0" type="line"/>
      <point x="540" y="74" type="line"/>
      <point x="441" y="90"/>
      <point x="414" y="111"/>
      <point x="414" y="129" type="curve" smooth="yes"/>
      <point x="414" y="1355" type="line"/>
      <point x="372" y="1395" type="line"/>
      <point x="271" y="1356"/>
      <point x="185" y="1340"/>
      <point x="54" y="1323" type="curve"/>
      <point x="54" y="1251" type="line"/>
      <point x="154" y="1239"/>
      <point x="171" y="1236"/>
      <point x="171" y="1130" type="curve" smooth="yes"/>
      <point x="171" y="129" type="line" smooth="yes"/>
      <point x="171" y="109"/>
      <point x="148" y="92"/>
      <point x="45" y="74" type="curve"/>
    </contour>
  </outline>
</glyph>
<glyph name="m" format="2">
  <advance width="1530"/>
  <unicode hex="006D"/>
  <anchor x="1287" y="0" name="H"/>
  <anchor x="776" y="945" name="U"/>
  <outline>
    <contour>
      <point x="1080" y="0" type="line"/>
      <point x="1508" y="0" type="line"/>
      <point x="1508" y="56" type="line"/>
      <point x="1413" y="81"/>
      <point x="1381" y="95"/>
      <point x="1381" y="111" type="curve" smooth="yes"/>
      <point x="1381" y="644" type="line" smooth="yes"/>
      <point x="1381" y="801"/>
      <point x="1287" y="864"/>
      <point x="1172" y="864" type="curve" smooth="yes"/>
      <point x="1084" y="864"/>
      <point x="982" y="815"/>
      <point x="859" y="687" type="curve"/>
      <point x="857" y="702" type="line" smooth="yes"/>
      <point x="848" y="806"/>
      <point x="778" y="864"/>
      <point x="664" y="864" type="curve" smooth="yes"/>
      <point x="577" y="864"/>
      <point x="477" y="817"/>
      <point x="351" y="684" type="curve"/>
      <point x="342" y="828" type="line"/>
      <point x="306" y="864" type="line"/>
      <point x="227" y="832"/>
      <point x="158" y="810"/>
      <point x="45" y="796" type="curve"/>
      <point x="45" y="742" type="line"/>
      <point x="161" y="729"/>
      <point x="166" y="721"/>
      <point x="166" y="626" type="curve" smooth="yes"/>
      <point x="166" y="111" type="line" smooth="yes"/>
      <point x="166" y="91"/>
      <point x="124" y="77"/>
      <point x="45" y="56" type="curve"/>
      <point x="45" y="0" type="line"/>
      <point x="472" y="0" type="line"/>
      <point x="472" y="56" type="line"/>
      <point x="395" y="72"/>
      <point x="355" y="93"/>
      <point x="355" y="111" type="curve" smooth="yes"/>
      <point x="355" y="569" type="line"/>
      <point x="448" y="671"/>
      <point x="523" y="724"/>
      <point x="586" y="724" type="curve" smooth="yes"/>
      <point x="656" y="724"/>
      <point x="679" y="699"/>
      <point x="679" y="551" type="curve" smooth="yes"/>
      <point x="679" y="111" type="line" smooth="yes"/>
      <point x="679" y="95"/>
      <point x="654" y="79"/>
      <point x="567" y="56" type="curve"/>
      <point x="567" y="0" type="line"/>
      <point x="986" y="0" type="line"/>
      <point x="986" y="56" type="line"/>
      <point x="891" y="81"/>
      <point x="868" y="95"/>
      <point x="868" y="111" type="curve" smooth="yes"/>
      <point x="868" y="569" type="line"/>
      <point x="950" y="669"/>
      <point x="1034" y="724"/>
      <point x="1095" y="724" type="curve" smooth="yes"/>
      <point x="1162" y="724"/>
      <point x="1192" y="699"/>
      <point x="1192" y="551" type="curve" smooth="yes"/>
      <point x="1192" y="111" type="line" smooth="yes"/>
      <point x="1192" y="95"/>
      <point x="1167" y="79"/>
      <point x="1080" y="56" type="curve"/>
    </contour>
  </outline>
</glyph>
<glyph name="n" format="2">
  <advance width="1089"/>
  <unicode hex="006E"/>
  <outline>
    <contour>
      <point x="594" y="0" type="line"/>
      <point x="1071" y="0" type="line"/>
      <point x="1071" y="74" type="line"/>
      <point x="976" y="99"/>
      <point x="954" y="113"/>
      <point x="954" y="129" type="curve" smooth="yes"/>
      <point x="954" y="621" type="line" smooth="yes"/>
      <point x="954" y="801"/>
      <point x="858" y="864"/>
      <point x="755" y="864" type="curve" smooth="yes"/>
      <point x="661" y="864"/>
      <point x="547" y="831"/>
      <point x="396" y="725" type="curve"/>
      <point x="387" y="823" type="line"/>
      <point x="346" y="864" type="line"/>
      <point x="252" y="830"/>
      <point x="166" y="813"/>
      <point x="40" y="801" type="curve"/>
      <point x="40" y="729" type="line"/>
      <point x="156" y="715"/>
      <point x="157" y="706"/>
      <point x="157" y="612" type="curve" smooth="yes"/>
      <point x="157" y="129" type="line" smooth="yes"/>
      <point x="157" y="109"/>
      <point x="119" y="95"/>
      <point x="40" y="74" type="curve"/>
      <point x="40" y="0" type="line"/>
      <point x="517" y="0" type="line"/>
      <point x="517" y="74" type="line"/>
      <point x="440" y="90"/>
      <point x="400" y="111"/>
      <point x="400" y="129" type="curve" smooth="yes"/>
      <point x="400" y="602" type="line"/>
      <point x="516" y="671"/>
      <point x="571" y="684"/>
      <point x="622" y="684" type="curve" smooth="yes"/>
      <point x="689" y="684"/>
      <point x="711" y="643"/>
      <point x="711" y="515" type="curve" smooth="yes"/>
      <point x="711" y="129" type="line" smooth="yes"/>
      <point x="711" y="113"/>
      <point x="680" y="97"/>
      <point x="594" y="74" type="curve"/>
    </contour>
  </outline>
</glyph>
<glyph name="o" format="2">
  <advance width="954"/>
  <unicode hex="006F"/>
  <anchor x="495" y="0" name="H"/>
  <anchor x="495" y="945" name="U"/>
  <outline>
    <contour>
      <point x="891" y="436" type="curve" smooth="yes"/>
      <point x="891" y="682"/>
      <point x="734" y="864"/>
      <point x="495" y="864" type="curve" smooth="yes"/>
      <point x="247" y="864"/>
      <point x="63" y="638"/>
      <point x="63" y="399" type="curve" smooth="yes"/>
      <point x="63" y="154"/>
      <point x="219" y="-27"/>
      <point x="459" y="-27" type="curve" smooth="yes"/>
      <point x="692" y="-27"/>
      <point x="891" y="197"/>
    </contour>
    <contour>
      <point x="693" y="400" type="curve" smooth="yes"/>
      <point x="693" y="199"/>
      <point x="637" y="81"/>
      <point x="485" y="81" type="curve" smooth="yes"/>
      <point x="374" y="81"/>
      <point x="261" y="235"/>
      <point x="261" y="425" type="curve" smooth="yes"/>
      <point x="261" y="612"/>
      <point x="308" y="756"/>
      <point x="468" y="756" type="curve" smooth="yes"/>
      <point x="592" y="756"/>
      <point x="693" y="590"/>
    </contour>
  </outline>
</glyph>
<glyph name="p" format="2">
  <advance width="994"/>
  <unicode hex="0070"/>
  <anchor x="251" y="-432" name="H"/>
  <anchor x="486" y="945" name="U"/>
  <outline>
    <contour>
      <point x="580" y="-27" type="curve" smooth="yes"/>
      <point x="747" y="-27"/>
      <point x="927" y="227"/>
      <point x="927" y="445" type="curve" smooth="yes"/>
      <point x="927" y="714"/>
      <point x="800" y="864"/>
      <point x="636" y="864" type="curve" smooth="yes"/>
      <point x="568" y="864"/>
      <point x="451" y="809"/>
      <point x="327" y="674" type="curve"/>
      <point x="319" y="830" type="line"/>
      <point x="285" y="864" type="line"/>
      <point x="208" y="830"/>
      <point x="148" y="812"/>
      <point x="47" y="794" type="curve"/>
      <point x="47" y="749" type="line"/>
      <point x="161" y="743"/>
      <point x="171" y="723"/>
      <point x="171" y="633" type="curve" smooth="yes"/>
      <point x="171" y="-328" type="line" smooth="yes"/>
      <point x="171" y="-349"/>
      <point x="126" y="-365"/>
      <point x="47" y="-384" type="curve"/>
      <point x="47" y="-432" type="line"/>
      <point x="485" y="-432" type="line"/>
      <point x="485" y="-384" type="line"/>
      <point x="372" y="-367"/>
      <point x="333" y="-347"/>
      <point x="333" y="-328" type="curve" smooth="yes"/>
      <point x="333" y="83" type="line"/>
      <point x="424" y="9"/>
      <point x="510" y="-27"/>
    </contour>
    <contour>
      <point x="560" y="738" type="curve" smooth="yes"/>
      <point x="672" y="738"/>
      <point x="778" y="599"/>
      <point x="778" y="383" type="curve" smooth="yes"/>
      <point x="778" y="200"/>
      <point x="693" y="101"/>
      <point x="576" y="101" type="curve" smooth="yes"/>
      <point x="514" y="101"/>
      <point x="446" y="117"/>
      <point x="333" y="196" type="curve"/>
      <point x="333" y="569" type="line"/>
      <point x="438" y="701"/>
      <point x="517" y="738"/>
    </contour>
  </outline>
</glyph>
<glyph name="q" format="2">
  <advance width="990"/>
  <unicode hex="0071"/>
  <outline>
    <contour>
      <point x="513" y="-432" type="line"/>
      <point x="975" y="-432" type="line"/>
      <point x="975" y="-375" type="line"/>
      <point x="883" y="-358"/>
      <point x="855" y="-338"/>
      <point x="855" y="-319" type="curve" smooth="yes"/>
      <point x="855" y="631" type="line" smooth="yes"/>
      <point x="855" y="740"/>
      <point x="882" y="832"/>
      <point x="882" y="832" type="curve"/>
      <point x="850" y="864" type="line"/>
      <point x="820" y="834"/>
      <point x="704" y="762"/>
      <point x="666" y="749" type="curve"/>
      <point x="666" y="-319" type="line" smooth="yes"/>
      <point x="666" y="-340"/>
      <point x="625" y="-358"/>
      <point x="513" y="-375" type="curve"/>
    </contour>
    <contour>
      <point x="732" y="207" type="curve"/>
      <point x="727" y="216"/>
      <point x="710" y="260"/>
      <point x="694" y="267" type="curve"/>
      <point x="610" y="186"/>
      <point x="541" y="126"/>
      <point x="460" y="126" type="curve" smooth="yes"/>
      <point x="361" y="126"/>
      <point x="252" y="241"/>
      <point x="252" y="445" type="curve" smooth="yes"/>
      <point x="252" y="657"/>
      <point x="351" y="751"/>
      <point x="472" y="751" type="curve" smooth="yes"/>
      <point x="549" y="751"/>
      <point x="635" y="702"/>
      <point x="672" y="627" type="curve"/>
      <point x="711" y="650"/>
      <point x="725" y="684"/>
      <point x="725" y="756" type="curve"/>
      <point x="631" y="849"/>
      <point x="567" y="864"/>
      <point x="495" y="864" type="curve" smooth="yes"/>
      <point x="432" y="864"/>
      <point x="346" y="833"/>
      <point x="278" y="792" type="curve" smooth="yes"/>
      <point x="193" y="738"/>
      <point x="63" y="610"/>
      <point x="63" y="399" type="curve" smooth="yes"/>
      <point x="63" y="132"/>
      <point x="232" y="-27"/>
      <point x="369" y="-27" type="curve" smooth="yes"/>
      <point x="512" y="-27"/>
      <point x="593" y="48"/>
    </contour>
  </outline>
</glyph>
<glyph name="r" format="2">
  <advance width="846"/>
  <unicode hex="0072"/>
  <outline>
    <contour>
      <point x="819" y="821" type="curve" smooth="yes"/>
      <point x="775" y="846"/>
      <point x="720" y="864"/>
      <point x="672" y="864" type="curve" smooth="yes"/>
      <point x="568" y="864"/>
      <point x="463" y="797"/>
      <point x="398" y="718" type="curve"/>
      <point x="387" y="823" type="line"/>
      <point x="346" y="864" type="line"/>
      <point x="233" y="830"/>
      <point x="189" y="820"/>
      <point x="40" y="801" type="curve"/>
      <point x="40" y="729" type="line"/>
      <point x="107" y="725"/>
      <point x="120" y="720"/>
      <point x="136" y="704" type="curve" smooth="yes"/>
      <point x="147" y="693"/>
      <point x="157" y="669"/>
      <point x="157" y="590" type="curve" smooth="yes"/>
      <point x="157" y="129" type="line" smooth="yes"/>
      <point x="157" y="109"/>
      <point x="119" y="92"/>
      <point x="40" y="74" type="curve"/>
      <point x="40" y="0" type="line"/>
      <point x="561" y="0" type="line"/>
      <point x="561" y="74" type="line"/>
      <point x="449" y="90"/>
      <point x="400" y="111"/>
      <point x="400" y="129" type="curve" smooth="yes"/>
      <point x="400" y="536" type="line"/>
      <point x="476" y="677"/>
      <point x="534" y="684"/>
      <point x="578" y="684" type="curve" smooth="yes"/>
      <point x="641" y="684"/>
      <point x="673" y="588"/>
      <point x="678" y="491" type="curve"/>
      <point x="753" y="491" type="line"/>
      <point x="783" y="556"/>
      <point x="841" y="808"/>
    </contour>
  </outline>
</glyph>
<glyph name="s" format="2">
  <advance width="751"/>
  <unicode hex="0073"/>
  <outline>
    <contour>
      <point x="679" y="254" type="curve" smooth="yes"/>
      <point x="679" y="388"/>
      <point x="562" y="449"/>
      <point x="458" y="503" type="curve" smooth="yes"/>
      <point x="319" y="574"/>
      <point x="255" y="609"/>
      <point x="255" y="679" type="curve" smooth="yes"/>
      <point x="255" y="729"/>
      <point x="298" y="774"/>
      <point x="373" y="774" type="curve" smooth="yes"/>
      <point x="445" y="774"/>
      <point x="505" y="725"/>
      <point x="544" y="626" type="curve"/>
      <point x="597" y="619" type="line"/>
      <point x="621" y="651"/>
      <point x="661" y="782"/>
      <point x="646" y="794" type="curve" smooth="yes"/>
      <point x="594" y="837"/>
      <point x="481" y="864"/>
      <point x="387" y="864" type="curve" smooth="yes"/>
      <point x="233" y="864"/>
      <point x="84" y="774"/>
      <point x="84" y="625" type="curve" smooth="yes"/>
      <point x="84" y="511"/>
      <point x="189" y="447"/>
      <point x="289" y="395" type="curve" smooth="yes"/>
      <point x="423" y="324"/>
      <point x="508" y="279"/>
      <point x="508" y="190" type="curve" smooth="yes"/>
      <point x="508" y="117"/>
      <point x="458" y="76"/>
      <point x="373" y="76" type="curve" smooth="yes"/>
      <point x="263" y="76"/>
      <point x="172" y="157"/>
      <point x="153" y="276" type="curve"/>
      <point x="92" y="286" type="line"/>
      <point x="70" y="209"/>
      <point x="70" y="47"/>
      <point x="85" y="38" type="curve" smooth="yes"/>
      <point x="166" y="-6"/>
      <point x="267" y="-27"/>
      <point x="337" y="-27" type="curve" smooth="yes"/>
      <point x="430" y="-27"/>
      <point x="679" y="0"/>
    </contour>
  </outline>
</glyph>
<glyph name="t" format="2">
  <advance width="697"/>
  <unicode hex="0074"/>
  <outline>
    <contour>
      <point x="680" y="150" type="curve"/>
      <point x="636" y="223" type="line"/>
      <point x="533" y="166"/>
      <point x="489" y="153"/>
      <point x="447" y="153" type="curve" smooth="yes"/>
      <point x="411" y="153"/>
      <point x="378" y="195"/>
      <point x="378" y="312" type="curve" smooth="yes"/>
      <point x="378" y="715" type="line"/>
      <point x="442" y="715" type="line" smooth="yes"/>
      <point x="495" y="715"/>
      <point x="560" y="698"/>
      <point x="589" y="684" type="curve"/>
      <point x="613" y="703"/>
      <point x="657" y="759"/>
      <point x="680" y="801" type="curve"/>
      <point x="645" y="837" type="line"/>
      <point x="378" y="837" type="line"/>
      <point x="378" y="1129" type="line"/>
      <point x="341" y="1161" type="line"/>
      <point x="135" y="1013" type="line"/>
      <point x="135" y="837" type="line"/>
      <point x="70" y="837" type="line"/>
      <point x="0" y="749" type="line"/>
      <point x="27" y="715" type="line"/>
      <point x="135" y="715" type="line"/>
      <point x="135" y="225" type="line" smooth="yes"/>
      <point x="135" y="58"/>
      <point x="225" y="-27"/>
      <point x="335" y="-27" type="curve" smooth="yes"/>
      <point x="398" y="-27"/>
      <point x="508" y="27"/>
    </contour>
  </outline>
</glyph>
<glyph name="u" format="2">
  <advance width="1057"/>
  <unicode hex="0075"/>
  <outline>
    <contour>
      <point x="1052" y="109" type="curve"/>
      <point x="1025" y="186" type="line"/>
      <point x="963" y="160"/>
      <point x="947" y="154"/>
      <point x="934" y="165" type="curve" smooth="yes"/>
      <point x="918" y="178"/>
      <point x="913" y="190"/>
      <point x="913" y="264" type="curve" smooth="yes"/>
      <point x="913" y="819" type="line"/>
      <point x="877" y="864" type="line"/>
      <point x="784" y="842"/>
      <point x="684" y="824"/>
      <point x="553" y="813" type="curve"/>
      <point x="553" y="741" type="line"/>
      <point x="664" y="736"/>
      <point x="670" y="720"/>
      <point x="670" y="612" type="curve" smooth="yes"/>
      <point x="670" y="235" type="line"/>
      <point x="574" y="159"/>
      <point x="512" y="144"/>
      <point x="470" y="144" type="curve" smooth="yes"/>
      <point x="411" y="144"/>
      <point x="378" y="168"/>
      <point x="378" y="309" type="curve" smooth="yes"/>
      <point x="378" y="819" type="line"/>
      <point x="343" y="864" type="line"/>
      <point x="237" y="832"/>
      <point x="159" y="824"/>
      <point x="27" y="813" type="curve"/>
      <point x="27" y="741" type="line"/>
      <point x="134" y="730"/>
      <point x="135" y="727"/>
      <point x="135" y="612" type="curve" smooth="yes"/>
      <point x="135" y="251" type="line" smooth="yes"/>
      <point x="135" y="26"/>
      <point x="255" y="-27"/>
      <point x="367" y="-27" type="curve" smooth="yes"/>
      <point x="443" y="-27"/>
      <point x="521" y="-9"/>
      <point x="670" y="113" type="curve"/>
      <point x="686" y="-9"/>
      <point x="731" y="-27"/>
      <point x="774" y="-27" type="curve" smooth="yes"/>
      <point x="803" y="-27"/>
      <point x="963" y="52"/>
    </contour>
  </outline>
</glyph>
<glyph name="v" format="2">
  <advance width="945"/>
  <unicode hex="0076"/>
  <outline>
    <contour>
      <point x="935" y="762" type="curve"/>
      <point x="935" y="837" type="line"/>
      <point x="644" y="837" type="line"/>
      <point x="644" y="762" type="line"/>
      <point x="723" y="748"/>
      <point x="726" y="737"/>
      <point x="711" y="701" type="curve" smooth="yes"/>
      <point x="537" y="289" type="line"/>
      <point x="353" y="701" type="line" smooth="yes"/>
      <point x="336" y="738"/>
      <point x="344" y="750"/>
      <point x="437" y="762" type="curve"/>
      <point x="437" y="837" type="line"/>
      <point x="9" y="837" type="line"/>
      <point x="9" y="762" type="line"/>
      <point x="68" y="748"/>
      <point x="85" y="733"/>
      <point x="99" y="701" type="curve" smooth="yes"/>
      <point x="423" y="-27" type="line"/>
      <point x="491" y="-10"/>
      <point x="568" y="27"/>
      <point x="590" y="80" type="curve" smooth="yes"/>
      <point x="845" y="701" type="line" smooth="yes"/>
      <point x="859" y="735"/>
      <point x="864" y="745"/>
    </contour>
  </outline>
</glyph>
<glyph name="w" format="2">
  <advance width="1308"/>
  <unicode hex="0077"/>
  <anchor x="678" y="945" name="U"/>
  <outline>
    <contour>
      <point x="1291" y="789" type="curve"/>
      <point x="1291" y="837" type="line"/>
      <point x="999" y="837" type="line"/>
      <point x="999" y="789" type="line"/>
      <point x="1081" y="775"/>
      <point x="1102" y="761"/>
      <point x="1095" y="733" type="curve" smooth="yes"/>
      <point x="948" y="210" type="line"/>
      <point x="716" y="837" type="line"/>
      <point x="702" y="837"/>
      <point x="657" y="837"/>
      <point x="657" y="837" type="curve"/>
      <point x="639" y="603" type="line"/>
      <point x="877" y="-27" type="line"/>
      <point x="907" y="-19"/>
      <point x="987" y="0"/>
      <point x="1002" y="53" type="curve" smooth="yes"/>
      <point x="1201" y="733" type="line" smooth="yes"/>
      <point x="1209" y="761"/>
      <point x="1219" y="772"/>
    </contour>
    <contour>
      <point x="473" y="53" type="curve" smooth="yes"/>
      <point x="720" y="724" type="line"/>
      <point x="706" y="837" type="line"/>
      <point x="706" y="837"/>
      <point x="668" y="837"/>
      <point x="652" y="837" type="curve"/>
      <point x="433" y="210" type="line"/>
      <point x="275" y="733" type="line" smooth="yes"/>
      <point x="267" y="756"/>
      <point x="270" y="777"/>
      <point x="383" y="789" type="curve"/>
      <point x="383" y="837" type="line"/>
      <point x="15" y="837" type="line"/>
      <point x="15" y="789" type="line"/>
      <point x="75" y="775"/>
      <point x="108" y="755"/>
      <point x="113" y="733" type="curve"/>
      <point x="351" y="-27" type="line"/>
      <point x="383" y="-19"/>
      <point x="455" y="-1"/>
    </contour>
  </outline>
</glyph>
<glyph name="x" format="2">
  <advance width="972"/>
  <unicode hex="0078"/>
  <outline>
    <contour>
      <point x="931" y="762" type="curve"/>
      <point x="931" y="837" type="line"/>
      <point x="588" y="837" type="line"/>
      <point x="588" y="762" type="line"/>
      <point x="662" y="755"/>
      <point x="673" y="744"/>
      <point x="628" y="687" type="curve" smooth="yes"/>
      <point x="441" y="452" type="line"/>
      <point x="533" y="383" type="line"/>
      <point x="773" y="685" type="line" smooth="yes"/>
      <point x="807" y="729"/>
      <point x="834" y="755"/>
    </contour>
    <contour>
      <point x="489" y="0" type="line"/>
      <point x="959" y="0" type="line"/>
      <point x="959" y="74" type="line"/>
      <point x="880" y="85"/>
      <point x="850" y="118"/>
      <point x="824" y="154" type="curve"/>
      <point x="443" y="687" type="line" smooth="yes"/>
      <point x="402" y="745"/>
      <point x="413" y="755"/>
      <point x="486" y="762" type="curve"/>
      <point x="486" y="837" type="line"/>
      <point x="18" y="837" type="line"/>
      <point x="18" y="762" type="line"/>
      <point x="107" y="755"/>
      <point x="131" y="729"/>
      <point x="162" y="685" type="curve" smooth="yes"/>
      <point x="547" y="149" type="line" smooth="yes"/>
      <point x="594" y="84"/>
      <point x="549" y="80"/>
      <point x="489" y="74" type="curve"/>
    </contour>
    <contour>
      <point x="297" y="149" type="curve" smooth="yes"/>
      <point x="495" y="395" type="line"/>
      <point x="404" y="467" type="line"/>
      <point x="155" y="154" type="line" smooth="yes"/>
      <point x="126" y="118"/>
      <point x="96" y="89"/>
      <point x="9" y="74" type="curve"/>
      <point x="9" y="0" type="line"/>
      <point x="359" y="0" type="line"/>
      <point x="359" y="74" type="line"/>
      <point x="302" y="80"/>
      <point x="248" y="87"/>
    </contour>
  </outline>
</glyph>
<glyph name="y" format="2">
  <advance width="945"/>
  <unicode hex="0079"/>
  <outline>
    <contour>
      <point x="935" y="762" type="curve"/>
      <point x="935" y="837" type="line"/>
      <point x="643" y="837" type="line"/>
      <point x="643" y="762" type="line"/>
      <point x="714" y="750"/>
      <point x="716" y="737"/>
      <point x="702" y="701" type="curve" smooth="yes"/>
      <point x="536" y="289" type="line"/>
      <point x="362" y="701" type="line" smooth="yes"/>
      <point x="346" y="738"/>
      <point x="353" y="751"/>
      <point x="437" y="762" type="curve"/>
      <point x="437" y="837" type="line"/>
      <point x="9" y="837" type="line"/>
      <point x="9" y="762" type="line"/>
      <point x="68" y="748"/>
      <point x="95" y="733"/>
      <point x="108" y="701" type="curve" smooth="yes"/>
      <point x="413" y="-20" type="line"/>
      <point x="387" y="-82" type="line" smooth="yes"/>
      <point x="343" y="-186"/>
      <point x="297" y="-218"/>
      <point x="252" y="-234" type="curve" smooth="yes"/>
      <point x="207" y="-249"/>
      <point x="141" y="-241"/>
      <point x="81" y="-199" type="curve"/>
      <point x="42" y="-223"/>
      <point x="-60" y="-351"/>
      <point x="-60" y="-375" type="curve" smooth="yes"/>
      <point x="-60" y="-397"/>
      <point x="40" y="-441"/>
      <point x="132" y="-441" type="curve" smooth="yes"/>
      <point x="297" y="-441"/>
      <point x="432" y="-329"/>
      <point x="535" y="-64" type="curve" smooth="yes"/>
      <point x="836" y="701" type="line" smooth="yes"/>
      <point x="849" y="736"/>
      <point x="863" y="745"/>
    </contour>
  </outline>
</glyph>
<glyph name="z" format="2">
  <advance width="878"/>
  <unicode hex="007A"/>
  <outline>
    <contour>
      <point x="809" y="322" type="curve"/>
      <point x="739" y="340" type="line"/>
      <point x="703" y="204"/>
      <point x="688" y="117"/>
      <point x="640" y="117" type="curve" smooth="yes"/>
      <point x="355" y="117" type="line"/>
      <point x="825" y="798" type="line"/>
      <point x="805" y="837" type="line"/>
      <point x="281" y="837" type="line" smooth="yes"/>
      <point x="204" y="837"/>
      <point x="175" y="837"/>
      <point x="123" y="851" type="curve"/>
      <point x="98" y="532" type="line"/>
      <point x="169" y="513" type="line"/>
      <point x="202" y="650"/>
      <point x="253" y="720"/>
      <point x="310" y="720" type="curve" smooth="yes"/>
      <point x="518" y="720" type="line"/>
      <point x="50" y="40" type="line"/>
      <point x="73" y="0" type="line"/>
      <point x="798" y="0" type="line"/>
      <point x="805" y="42"/>
      <point x="809" y="246"/>
    </contour>
  </outline>
</glyph>
<glyph name="braceleft" format="2">
  <advance width="654"/>
  <unicode hex="007B"/>
  <outline>
    <contour>
      <point x="636" y="1361" type="curve"/>
      <point x="594" y="1440" type="line"/>
      <point x="388" y="1359"/>
      <point x="222" y="1255"/>
      <point x="222" y="1093" type="curve" smooth="yes"/>
      <point x="222" y="963"/>
      <point x="259" y="904"/>
      <point x="259" y="776" type="curve" smooth="yes"/>
      <point x="259" y="686"/>
      <point x="203" y="624"/>
      <point x="72" y="587" type="curve"/>
      <point x="87" y="504" type="line"/>
      <point x="122" y="509"/>
      <point x="112" y="509"/>
      <point x="145" y="509" type="curve" smooth="yes"/>
      <point x="216" y="509"/>
      <point x="259" y="477"/>
      <point x="259" y="379" type="curve" smooth="yes"/>
      <point x="259" y="248"/>
      <point x="222" y="170"/>
      <point x="222" y="46" type="curve" smooth="yes"/>
      <point x="222" y="-126"/>
      <point x="360" y="-202"/>
      <point x="588" y="-283" type="curve"/>
      <point x="627" y="-192" type="line"/>
      <point x="500" y="-122"/>
      <point x="479" y="-66"/>
      <point x="479" y="20" type="curve" smooth="yes"/>
      <point x="479" y="122"/>
      <point x="516" y="220"/>
      <point x="516" y="346" type="curve" smooth="yes"/>
      <point x="516" y="478"/>
      <point x="456" y="566"/>
      <point x="336" y="587" type="curve"/>
      <point x="437" y="631"/>
      <point x="516" y="730"/>
      <point x="516" y="830" type="curve" smooth="yes"/>
      <point x="516" y="952"/>
      <point x="479" y="1023"/>
      <point x="479" y="1144" type="curve" smooth="yes"/>
      <point x="479" y="1224"/>
      <point x="542" y="1303"/>
    </contour>
  </outline>
</glyph>
<glyph name="bar" format="2">
  <advance width="450"/>
  <unicode hex="007C"/>
  <outline>
    <contour>
      <point x="292" y="-379" type="curve"/>
      <point x="292" y="1480" type="line"/>
      <point x="257" y="1503" type="line"/>
      <point x="222" y="1494"/>
      <point x="190" y="1476"/>
      <point x="157" y="1456" type="curve"/>
      <point x="157" y="-405" type="line"/>
      <point x="191" y="-428" type="line"/>
      <point x="220" y="-418"/>
      <point x="270" y="-398"/>
    </contour>
  </outline>
</glyph>
<glyph name="braceright" format="2">
  <advance width="636"/>
  <unicode hex="007D"/>
  <outline>
    <contour>
      <point x="555" y="576" type="curve"/>
      <point x="540" y="643" type="line"/>
      <point x="504" y="637"/>
      <point x="514" y="638"/>
      <point x="481" y="638" type="curve" smooth="yes"/>
      <point x="401" y="638"/>
      <point x="355" y="679"/>
      <point x="355" y="777" type="curve" smooth="yes"/>
      <point x="355" y="916"/>
      <point x="391" y="968"/>
      <point x="391" y="1101" type="curve" smooth="yes"/>
      <point x="391" y="1273"/>
      <point x="280" y="1359"/>
      <point x="65" y="1439" type="curve"/>
      <point x="35" y="1366" type="line"/>
      <point x="161" y="1297"/>
      <point x="187" y="1237"/>
      <point x="187" y="1126" type="curve" smooth="yes"/>
      <point x="187" y="1016"/>
      <point x="151" y="944"/>
      <point x="151" y="810" type="curve" smooth="yes"/>
      <point x="151" y="677"/>
      <point x="202" y="590"/>
      <point x="323" y="567" type="curve"/>
      <point x="220" y="523"/>
      <point x="151" y="426"/>
      <point x="151" y="326" type="curve" smooth="yes"/>
      <point x="151" y="194"/>
      <point x="187" y="151"/>
      <point x="187" y="21" type="curve" smooth="yes"/>
      <point x="187" y="-81"/>
      <point x="120" y="-164"/>
      <point x="26" y="-222" type="curve"/>
      <point x="59" y="-283" type="line"/>
      <point x="251" y="-202"/>
      <point x="391" y="-89"/>
      <point x="391" y="72" type="curve" smooth="yes"/>
      <point x="391" y="211"/>
      <point x="355" y="242"/>
      <point x="355" y="379" type="curve" smooth="yes"/>
      <point x="355" y="470"/>
      <point x="418" y="540"/>
    </contour>
  </outline>
</glyph>
<glyph name="asciitilde" format="2">
  <advance width="899"/>
  <unicode hex="007E"/>
  <outline>
    <contour>
      <point x="859" y="698" type="curve"/>
      <point x="807" y="723" type="line"/>
      <point x="757" y="625"/>
      <point x="701" y="579"/>
      <point x="646" y="579" type="curve" smooth="yes"/>
      <point x="550" y="579"/>
      <point x="432" y="723"/>
      <point x="316" y="723" type="curve" smooth="yes"/>
      <point x="198" y="723"/>
      <point x="90" y="567"/>
      <point x="39" y="449" type="curve"/>
      <point x="91" y="423" type="line"/>
      <point x="142" y="522"/>
      <point x="194" y="568"/>
      <point x="250" y="568" type="curve" smooth="yes"/>
      <point x="354" y="568"/>
      <point x="481" y="424"/>
      <point x="582" y="424" type="curve" smooth="yes"/>
      <point x="701" y="424"/>
      <point x="810" y="580"/>
    </contour>
  </outline>
</glyph>
<glyph name="exclamdown" format="2">
  <advance width="592"/>
  <unicode hex="00A1"/>
  <outline>
    <contour>
      <point x="451" y="736" type="curve" smooth="yes"/>
      <point x="451" y="828"/>
      <point x="380" y="864"/>
      <point x="307" y="864" type="curve" smooth="yes"/>
      <point x="210" y="864"/>
      <point x="129" y="809"/>
      <point x="129" y="708" type="curve" smooth="yes"/>
      <point x="129" y="616"/>
      <point x="204" y="579"/>
      <point x="272" y="579" type="curve" smooth="yes"/>
      <point x="367" y="579"/>
      <point x="451" y="637"/>
    </contour>
    <contour>
      <point x="433" y="-394" type="curve"/>
      <point x="355" y="467" type="line"/>
      <point x="329" y="486" type="line"/>
      <point x="299" y="477"/>
      <point x="249" y="467"/>
      <point x="226" y="450" type="curve"/>
      <point x="146" y="-472" type="line"/>
      <point x="194" y="-504" type="line"/>
      <point x="243" y="-486"/>
      <point x="378" y="-423"/>
    </contour>
  </outline>
</glyph>
<glyph name="cent" format="2">
  <advance width="954"/>
  <unicode hex="00A2"/>
  <outline>
    <contour>
      <point x="571" y="10" type="curve"/>
      <point x="571" y="1091" type="line"/>
      <point x="539" y="1120" type="line"/>
      <point x="502" y="1111"/>
      <point x="487" y="1095"/>
      <point x="454" y="1074" type="curve"/>
      <point x="454" y="-5" type="line"/>
      <point x="486" y="-36" type="line"/>
      <point x="514" y="-27"/>
      <point x="549" y="-8"/>
    </contour>
    <contour>
      <point x="876" y="324" type="curve"/>
      <point x="814" y="396" type="line"/>
      <point x="696" y="279"/>
      <point x="631" y="253"/>
      <point x="549" y="253" type="curve" smooth="yes"/>
      <point x="405" y="253"/>
      <point x="293" y="348"/>
      <point x="293" y="554" type="curve" smooth="yes"/>
      <point x="293" y="777"/>
      <point x="412" y="846"/>
      <point x="516" y="846" type="curve" smooth="yes"/>
      <point x="640" y="846"/>
      <point x="704" y="751"/>
      <point x="727" y="709" type="curve"/>
      <point x="794" y="691" type="line"/>
      <point x="816" y="721"/>
      <point x="878" y="872"/>
      <point x="873" y="899" type="curve"/>
      <point x="832" y="944"/>
      <point x="676" y="971"/>
      <point x="597" y="971" type="curve" smooth="yes"/>
      <point x="284" y="971"/>
      <point x="75" y="783"/>
      <point x="75" y="527" type="curve" smooth="yes"/>
      <point x="75" y="260"/>
      <point x="312" y="116"/>
      <point x="485" y="116" type="curve" smooth="yes"/>
      <point x="619" y="116"/>
      <point x="720" y="150"/>
    </contour>
  </outline>
</glyph>
<glyph name="sterling" format="2">
  <advance width="909"/>
  <unicode hex="00A3"/>
  <outline>
    <contour>
      <point x="828" y="1048" type="curve"/>
      <point x="717" y="1105"/>
      <point x="638" y="1111"/>
      <point x="575" y="1111" type="curve" smooth="yes"/>
      <point x="289" y="1111"/>
      <point x="140" y="873"/>
      <point x="168" y="520" type="curve" smooth="yes"/>
      <point x="195" y="166"/>
      <point x="163" y="125"/>
      <point x="48" y="30" type="curve"/>
      <point x="78" y="-27" type="line"/>
      <point x="254" y="85"/>
      <point x="659" y="-89"/>
      <point x="820" y="0" type="curve"/>
      <point x="829" y="35"/>
      <point x="853" y="156"/>
      <point x="862" y="260" type="curve"/>
      <point x="805" y="280" type="line"/>
      <point x="754" y="140"/>
      <point x="712" y="116"/>
      <point x="602" y="113" type="curve" smooth="yes"/>
      <point x="468" y="109"/>
      <point x="450" y="126"/>
      <point x="286" y="113" type="curve"/>
      <point x="360" y="216"/>
      <point x="400" y="358"/>
      <point x="380" y="535" type="curve" smooth="yes"/>
      <point x="331" y="978"/>
      <point x="453" y="1008"/>
      <point x="535" y="1008" type="curve" smooth="yes"/>
      <point x="648" y="1008"/>
      <point x="716" y="927"/>
      <point x="733" y="778" type="curve"/>
      <point x="793" y="778" type="line"/>
      <point x="808" y="824"/>
      <point x="827" y="987"/>
    </contour>
    <contour>
      <point x="616" y="473" type="line"/>
      <point x="648" y="548" type="line"/>
      <point x="621" y="573" type="line"/>
      <point x="72" y="573" type="line"/>
      <point x="65" y="554"/>
      <point x="49" y="518"/>
      <point x="44" y="500" type="curve"/>
      <point x="68" y="473" type="line"/>
    </contour>
  </outline>
</glyph>
<glyph name="currency" format="2">
  <advance width="954"/>
  <unicode hex="00A4"/>
  <outline>
    <contour>
      <point x="330" y="692" type="curve" smooth="yes"/>
      <point x="371" y="733"/>
      <point x="424" y="753"/>
      <point x="478" y="753" type="curve" smooth="yes"/>
      <point x="533" y="753"/>
      <point x="584" y="733"/>
      <point x="626" y="692" type="curve" smooth="yes"/>
      <point x="667" y="650"/>
      <point x="689" y="595"/>
      <point x="689" y="541" type="curve" smooth="yes"/>
      <point x="689" y="487"/>
      <point x="667" y="433"/>
      <point x="627" y="392" type="curve" smooth="yes"/>
      <point x="585" y="350"/>
      <point x="533" y="330"/>
      <point x="478" y="330" type="curve" smooth="yes"/>
      <point x="424" y="330"/>
      <point x="371" y="350"/>
      <point x="328" y="393" type="curve" smooth="yes"/>
      <point x="287" y="433"/>
      <point x="267" y="486"/>
      <point x="267" y="540" type="curve" smooth="yes"/>
      <point x="267" y="594"/>
      <point x="288" y="650"/>
    </contour>
    <contour>
      <point x="245" y="776" type="curve" smooth="yes"/>
      <point x="180" y="711"/>
      <point x="147" y="625"/>
      <point x="147" y="539" type="curve" smooth="yes"/>
      <point x="147" y="455"/>
      <point x="179" y="371"/>
      <point x="243" y="307" type="curve" smooth="yes"/>
      <point x="308" y="242"/>
      <point x="393" y="210"/>
      <point x="478" y="210" type="curve" smooth="yes"/>
      <point x="565" y="210"/>
      <point x="648" y="242"/>
      <point x="711" y="306" type="curve" smooth="yes"/>
      <point x="775" y="370"/>
      <point x="809" y="455"/>
      <point x="809" y="539" type="curve" smooth="yes"/>
      <point x="809" y="625"/>
      <point x="774" y="711"/>
      <point x="710" y="776" type="curve" smooth="yes"/>
      <point x="645" y="841"/>
      <point x="563" y="874"/>
      <point x="478" y="874" type="curve" smooth="yes"/>
      <point x="395" y="874"/>
      <point x="311" y="841"/>
    </contour>
    <contour>
      <point x="340" y="321" type="line"/>
      <point x="301" y="405" type="line"/>
      <point x="258" y="402" type="line"/>
      <point x="72" y="216" type="line"/>
      <point x="82" y="189"/>
      <point x="98" y="160"/>
      <point x="110" y="137" type="curve"/>
      <point x="152" y="135" type="line"/>
    </contour>
    <contour>
      <point x="251" y="688" type="line"/>
      <point x="333" y="727" type="line"/>
      <point x="331" y="770" type="line"/>
      <point x="153" y="947" type="line"/>
      <point x="126" y="936"/>
      <point x="98" y="921"/>
      <point x="75" y="909" type="curve"/>
      <point x="72" y="866" type="line"/>
    </contour>
    <contour>
      <point x="800" y="135" type="line"/>
      <point x="882" y="173" type="line"/>
      <point x="882" y="216" type="line"/>
      <point x="702" y="396" type="line"/>
      <point x="677" y="384"/>
      <point x="647" y="369"/>
      <point x="624" y="356" type="curve"/>
      <point x="621" y="314" type="line"/>
    </contour>
    <contour>
      <point x="880" y="864" type="line"/>
      <point x="842" y="947" type="line"/>
      <point x="800" y="946" type="line"/>
      <point x="612" y="758" type="line"/>
      <point x="623" y="733"/>
      <point x="639" y="702"/>
      <point x="651" y="680" type="curve"/>
      <point x="693" y="677" type="line"/>
    </contour>
  </outline>
</glyph>
<glyph name="yen" format="2">
  <advance width="909"/>
  <unicode hex="00A5"/>
  <outline>
    <contour>
      <point x="207" y="0" type="line"/>
      <point x="693" y="0" type="line"/>
      <point x="693" y="56" type="line"/>
      <point x="581" y="79"/>
      <point x="549" y="106"/>
      <point x="549" y="121" type="curve" smooth="yes"/>
      <point x="549" y="363" type="line"/>
      <point x="783" y="363" type="line"/>
      <point x="812" y="442" type="line"/>
      <point x="790" y="463" type="line"/>
      <point x="549" y="463" type="line"/>
      <point x="549" y="489" type="line"/>
      <point x="803" y="967" type="line" smooth="yes"/>
      <point x="820" y="998"/>
      <point x="857" y="1011"/>
      <point x="939" y="1026" type="curve"/>
      <point x="939" y="1083" type="line"/>
      <point x="569" y="1083" type="line"/>
      <point x="569" y="1026" type="line"/>
      <point x="662" y="1015"/>
      <point x="687" y="999"/>
      <point x="669" y="967" type="curve" smooth="yes"/>
      <point x="490" y="634" type="line"/>
      <point x="406" y="806"/>
      <point x="332" y="935"/>
      <point x="243" y="1053" type="curve" smooth="yes"/>
      <point x="223" y="1078"/>
      <point x="190" y="1092"/>
      <point x="159" y="1092" type="curve" smooth="yes"/>
      <point x="110" y="1092"/>
      <point x="1" y="1079"/>
      <point x="-68" y="1069" type="curve"/>
      <point x="-65" y="1012" type="line"/>
      <point x="34" y="1012"/>
      <point x="56" y="994"/>
      <point x="77" y="967" type="curve" smooth="yes"/>
      <point x="160" y="859"/>
      <point x="267" y="673"/>
      <point x="351" y="491" type="curve"/>
      <point x="351" y="463" type="line"/>
      <point x="103" y="463" type="line"/>
      <point x="96" y="444"/>
      <point x="82" y="403"/>
      <point x="76" y="385" type="curve"/>
      <point x="96" y="363" type="line"/>
      <point x="351" y="363" type="line"/>
      <point x="351" y="121" type="line" smooth="yes"/>
      <point x="351" y="104"/>
      <point x="316" y="79"/>
      <point x="207" y="56" type="curve"/>
    </contour>
  </outline>
</glyph>
<glyph name="brokenbar" format="2">
  <advance width="450"/>
  <unicode hex="00A6"/>
  <outline>
    <contour>
      <point x="299" y="681" type="curve"/>
      <point x="299" y="1478" type="line"/>
      <point x="261" y="1503" type="line"/>
      <point x="225" y="1494"/>
      <point x="185" y="1474"/>
      <point x="150" y="1454" type="curve"/>
      <point x="150" y="655" type="line"/>
      <point x="188" y="630" type="line"/>
      <point x="217" y="639"/>
      <point x="275" y="662"/>
    </contour>
    <contour>
      <point x="299" y="-356" type="curve"/>
      <point x="299" y="431" type="line"/>
      <point x="261" y="458" type="line"/>
      <point x="225" y="446"/>
      <point x="185" y="427"/>
      <point x="150" y="406" type="curve"/>
      <point x="150" y="-382" type="line"/>
      <point x="188" y="-407" type="line"/>
      <point x="217" y="-397"/>
      <point x="275" y="-375"/>
    </contour>
  </outline>
</glyph>
<glyph name="section" format="2">
  <advance width="903"/>
  <unicode hex="00A7"/>
  <outline>
    <contour>
      <point x="409" y="-27" type="curve" smooth="yes"/>
      <point x="502" y="-27"/>
      <point x="751" y="-9"/>
      <point x="751" y="245" type="curve" smooth="yes"/>
      <point x="751" y="379"/>
      <point x="616" y="441"/>
      <point x="512" y="494" type="curve"/>
      <point x="343" y="589"/>
      <point x="265" y="636"/>
      <point x="265" y="743" type="curve" smooth="yes"/>
      <point x="265" y="814"/>
      <point x="327" y="882"/>
      <point x="404" y="889" type="curve"/>
      <point x="338" y="967" type="line"/>
      <point x="211" y="940"/>
      <point x="98" y="818"/>
      <point x="98" y="699" type="curve" smooth="yes"/>
      <point x="98" y="539"/>
      <point x="218" y="450"/>
      <point x="347" y="381" type="curve" smooth="yes"/>
      <point x="457" y="323"/>
      <point x="580" y="278"/>
      <point x="580" y="181" type="curve" smooth="yes"/>
      <point x="580" y="106"/>
      <point x="532" y="74"/>
      <point x="445" y="74" type="curve" smooth="yes"/>
      <point x="335" y="74"/>
      <point x="244" y="162"/>
      <point x="225" y="280" type="curve"/>
      <point x="164" y="290" type="line"/>
      <point x="142" y="214"/>
      <point x="141" y="50"/>
      <point x="157" y="43" type="curve"/>
      <point x="238" y="0"/>
      <point x="339" y="-27"/>
    </contour>
    <contour>
      <point x="605" y="317" type="line"/>
      <point x="692" y="333"/>
      <point x="804" y="437"/>
      <point x="804" y="598" type="curve" smooth="yes"/>
      <point x="804" y="774"/>
      <point x="676" y="849"/>
      <point x="544" y="921" type="curve" smooth="yes"/>
      <point x="410" y="994"/>
      <point x="327" y="1035"/>
      <point x="327" y="1116" type="curve" smooth="yes"/>
      <point x="327" y="1172"/>
      <point x="370" y="1206"/>
      <point x="445" y="1206" type="curve" smooth="yes"/>
      <point x="517" y="1206"/>
      <point x="577" y="1152"/>
      <point x="616" y="1053" type="curve"/>
      <point x="669" y="1046" type="line"/>
      <point x="693" y="1079"/>
      <point x="733" y="1209"/>
      <point x="718" y="1222" type="curve"/>
      <point x="665" y="1264"/>
      <point x="553" y="1296"/>
      <point x="459" y="1296" type="curve" smooth="yes"/>
      <point x="305" y="1296"/>
      <point x="156" y="1215"/>
      <point x="156" y="1066" type="curve" smooth="yes"/>
      <point x="156" y="948"/>
      <point x="270" y="867"/>
      <point x="379" y="809" type="curve" smooth="yes"/>
      <point x="556" y="713"/>
      <point x="637" y="657"/>
      <point x="637" y="540" type="curve" smooth="yes"/>
      <point x="637" y="467"/>
      <point x="577" y="402"/>
      <point x="504" y="399" type="curve"/>
    </contour>
  </outline>
</glyph>
<glyph name="dieresis" format="2">
  <advance width="720"/>
  <unicode hex="00A8"/>
  <outline>
    <contour>
      <point x="303" y="1143" type="curve" smooth="yes"/>
      <point x="303" y="1221"/>
      <point x="258" y="1260"/>
      <point x="186" y="1260" type="curve" smooth="yes"/>
      <point x="107" y="1260"/>
      <point x="33" y="1184"/>
      <point x="33" y="1089" type="curve" smooth="yes"/>
      <point x="33" y="1012"/>
      <point x="75" y="972"/>
      <point x="150" y="972" type="curve" smooth="yes"/>
      <point x="233" y="972"/>
      <point x="303" y="1048"/>
    </contour>
    <contour>
      <point x="690" y="1143" type="curve" smooth="yes"/>
      <point x="690" y="1221"/>
      <point x="645" y="1260"/>
      <point x="573" y="1260" type="curve" smooth="yes"/>
      <point x="494" y="1260"/>
      <point x="420" y="1184"/>
      <point x="420" y="1089" type="curve" smooth="yes"/>
      <point x="420" y="1012"/>
      <point x="462" y="972"/>
      <point x="537" y="972" type="curve" smooth="yes"/>
      <point x="620" y="972"/>
      <point x="690" y="1048"/>
    </contour>
  </outline>
</glyph>
<glyph name="copyright" format="2">
  <advance width="1335"/>
  <unicode hex="00A9"/>
  <outline>
    <contour>
      <point x="666" y="-27" type="curve" smooth="yes"/>
      <point x="1006" y="-27"/>
      <point x="1254" y="248"/>
      <point x="1254" y="588" type="curve" smooth="yes"/>
      <point x="1254" y="927"/>
      <point x="1006" y="1202"/>
      <point x="666" y="1202" type="curve" smooth="yes"/>
      <point x="327" y="1202"/>
      <point x="81" y="927"/>
      <point x="81" y="588" type="curve" smooth="yes"/>
      <point x="81" y="248"/>
      <point x="327" y="-27"/>
    </contour>
    <contour>
      <point x="647" y="205" type="curve" smooth="yes"/>
      <point x="738" y="205"/>
      <point x="825" y="232"/>
      <point x="945" y="357" type="curve"/>
      <point x="911" y="397" type="line"/>
      <point x="812" y="326"/>
      <point x="769" y="314"/>
      <point x="715" y="314" type="curve" smooth="yes"/>
      <point x="611" y="314"/>
      <point x="482" y="414"/>
      <point x="482" y="589" type="curve" smooth="yes"/>
      <point x="482" y="802"/>
      <point x="586" y="881"/>
      <point x="679" y="881" type="curve" smooth="yes"/>
      <point x="760" y="881"/>
      <point x="802" y="819"/>
      <point x="832" y="753" type="curve"/>
      <point x="872" y="747" type="line"/>
      <point x="892" y="770"/>
      <point x="941" y="888"/>
      <point x="934" y="904" type="curve"/>
      <point x="895" y="938"/>
      <point x="811" y="967"/>
      <point x="728" y="967" type="curve" smooth="yes"/>
      <point x="499" y="967"/>
      <point x="324" y="794"/>
      <point x="324" y="563" type="curve" smooth="yes"/>
      <point x="324" y="341"/>
      <point x="483" y="205"/>
    </contour>
    <contour>
      <point x="666" y="71" type="curve" smooth="yes"/>
      <point x="383" y="71"/>
      <point x="178" y="302"/>
      <point x="178" y="588" type="curve" smooth="yes"/>
      <point x="178" y="872"/>
      <point x="383" y="1104"/>
      <point x="666" y="1104" type="curve" smooth="yes"/>
      <point x="953" y="1104"/>
      <point x="1157" y="872"/>
      <point x="1157" y="588" type="curve" smooth="yes"/>
      <point x="1157" y="302"/>
      <point x="953" y="71"/>
    </contour>
  </outline>
</glyph>
<glyph name="ordfeminine" format="2">
  <advance width="519"/>
  <unicode hex="00AA"/>
  <outline>
    <contour>
      <point x="505" y="729" type="curve"/>
      <point x="493" y="770" type="line"/>
      <point x="459" y="756"/>
      <point x="450" y="754"/>
      <point x="444" y="757" type="curve"/>
      <point x="437" y="765"/>
      <point x="432" y="778"/>
      <point x="432" y="811" type="curve" smooth="yes"/>
      <point x="432" y="988" type="line" smooth="yes"/>
      <point x="432" y="1112"/>
      <point x="385" y="1143"/>
      <point x="298" y="1143" type="curve" smooth="yes"/>
      <point x="190" y="1143"/>
      <point x="81" y="1090"/>
      <point x="43" y="1006" type="curve"/>
      <point x="54" y="980" type="line"/>
      <point x="71" y="976"/>
      <point x="196" y="1009"/>
      <point x="193" y="1020" type="curve" smooth="yes"/>
      <point x="184" y="1062"/>
      <point x="211" y="1077"/>
      <point x="246" y="1077" type="curve" smooth="yes"/>
      <point x="302" y="1077"/>
      <point x="303" y="1037"/>
      <point x="303" y="963" type="curve" smooth="yes"/>
      <point x="303" y="815" type="line" smooth="yes"/>
      <point x="303" y="683"/>
      <point x="321" y="657"/>
      <point x="342" y="657" type="curve" smooth="yes"/>
      <point x="388" y="657"/>
      <point x="450" y="693"/>
    </contour>
    <contour>
      <point x="255" y="894" type="curve" smooth="yes"/>
      <point x="360" y="916" type="line"/>
      <point x="360" y="965" type="line"/>
      <point x="205" y="935" type="line" smooth="yes"/>
      <point x="81" y="910"/>
      <point x="35" y="834"/>
      <point x="35" y="760" type="curve" smooth="yes"/>
      <point x="35" y="684"/>
      <point x="98" y="657"/>
      <point x="145" y="657" type="curve" smooth="yes"/>
      <point x="189" y="657"/>
      <point x="249" y="674"/>
      <point x="311" y="738" type="curve"/>
      <point x="307" y="798" type="line"/>
      <point x="258" y="754"/>
      <point x="234" y="747"/>
      <point x="212" y="747" type="curve" smooth="yes"/>
      <point x="195" y="747"/>
      <point x="171" y="759"/>
      <point x="171" y="800" type="curve" smooth="yes"/>
      <point x="171" y="851"/>
      <point x="209" y="884"/>
    </contour>
    <contour>
      <point x="36" y="527" type="line"/>
      <point x="481" y="527" type="line"/>
      <point x="481" y="611" type="line"/>
      <point x="36" y="611" type="line"/>
    </contour>
  </outline>
</glyph>
<glyph name="guillemetleft" format="2">
  <advance width="930"/>
  <unicode hex="00AB"/>
  <outline>
    <contour>
      <point x="418" y="387" type="curve"/>
      <point x="765" y="6" type="line"/>
      <point x="813" y="42" type="line"/>
      <point x="623" y="420" type="line"/>
      <point x="621" y="418"/>
      <point x="813" y="794"/>
      <point x="812" y="794" type="curve"/>
      <point x="765" y="830" type="line"/>
      <point x="420" y="452" type="line"/>
      <point x="418" y="450"/>
      <point x="418" y="387"/>
    </contour>
    <contour>
      <point x="63" y="387" type="curve"/>
      <point x="410" y="6" type="line"/>
      <point x="458" y="42" type="line"/>
      <point x="268" y="420" type="line"/>
      <point x="265" y="418"/>
      <point x="458" y="794"/>
      <point x="457" y="794" type="curve"/>
      <point x="410" y="830" type="line"/>
      <point x="64" y="452" type="line"/>
      <point x="63" y="450"/>
      <point x="63" y="387"/>
    </contour>
  </outline>
</glyph>
<glyph name="guillemotleft" format="2">
  <advance width="966"/>
  <unicode hex="00AB"/>
  <outline>
    <contour>
      <point x="432" y="387" type="curve"/>
      <point x="801" y="-2" type="line"/>
      <point x="858" y="42" type="line"/>
      <point x="686" y="420" type="line"/>
      <point x="684" y="418"/>
      <point x="858" y="794"/>
      <point x="857" y="794" type="curve"/>
      <point x="801" y="839" type="line"/>
      <point x="433" y="452" type="line" smooth="yes"/>
      <point x="432" y="450"/>
      <point x="432" y="387"/>
    </contour>
    <contour>
      <point x="54" y="387" type="curve"/>
      <point x="423" y="-2" type="line"/>
      <point x="480" y="42" type="line"/>
      <point x="308" y="420" type="line"/>
      <point x="306" y="418"/>
      <point x="480" y="794"/>
      <point x="479" y="794" type="curve"/>
      <point x="423" y="839" type="line"/>
      <point x="55" y="452" type="line" smooth="yes"/>
      <point x="54" y="450"/>
      <point x="54" y="387"/>
    </contour>
  </outline>
</glyph>
<glyph name="logicalnot" format="2">
  <advance width="887"/>
  <unicode hex="00AC"/>
  <outline>
    <contour>
      <point x="819" y="209" type="curve"/>
      <point x="819" y="538" type="line"/>
      <point x="791" y="560" type="line"/>
      <point x="791" y="560"/>
      <point x="799" y="560"/>
      <point x="91" y="560" type="curve"/>
      <point x="80" y="537"/>
      <point x="65" y="499"/>
      <point x="59" y="474" type="curve"/>
      <point x="83" y="450" type="line"/>
      <point x="708" y="450" type="line"/>
      <point x="708" y="184" type="line"/>
      <point x="733" y="159" type="line"/>
      <point x="763" y="169"/>
      <point x="795" y="191"/>
    </contour>
  </outline>
</glyph>
<glyph name="registered" format="2">
  <advance width="657"/>
  <unicode hex="00AE"/>
  <outline>
    <contour>
      <point x="635" y="975" type="curve"/>
      <point x="635" y="1152"/>
      <point x="504" y="1296"/>
      <point x="327" y="1296" type="curve" smooth="yes"/>
      <point x="151" y="1296"/>
      <point x="22" y="1152"/>
      <point x="22" y="975" type="curve" smooth="yes"/>
      <point x="22" y="799"/>
      <point x="151" y="655"/>
      <point x="327" y="655" type="curve" smooth="yes"/>
      <point x="504" y="655"/>
      <point x="635" y="799"/>
    </contour>
    <contour>
      <point x="573" y="975" type="curve"/>
      <point x="573" y="832"/>
      <point x="470" y="717"/>
      <point x="327" y="717" type="curve" smooth="yes"/>
      <point x="186" y="717"/>
      <point x="83" y="832"/>
      <point x="83" y="975" type="curve" smooth="yes"/>
      <point x="83" y="1117"/>
      <point x="186" y="1233"/>
      <point x="327" y="1233" type="curve" smooth="yes"/>
      <point x="470" y="1233"/>
      <point x="573" y="1117"/>
    </contour>
    <contour>
      <point x="458" y="1076" type="curve"/>
      <point x="458" y="1125"/>
      <point x="414" y="1163"/>
      <point x="315" y="1163" type="curve" smooth="yes"/>
      <point x="265" y="1163"/>
      <point x="221" y="1156"/>
      <point x="186" y="1148" type="curve"/>
      <point x="189" y="1119" type="line"/>
      <point x="228" y="1125"/>
      <point x="271" y="1130"/>
      <point x="305" y="1130" type="curve" smooth="yes"/>
      <point x="364" y="1130"/>
      <point x="390" y="1103"/>
      <point x="390" y="1068" type="curve" smooth="yes"/>
      <point x="390" y="1022"/>
      <point x="366" y="997"/>
      <point x="306" y="997" type="curve" smooth="yes"/>
      <point x="295" y="997"/>
      <point x="287" y="998"/>
      <point x="274" y="1000" type="curve"/>
      <point x="276" y="965" type="line"/>
      <point x="288" y="963"/>
      <point x="299" y="961"/>
      <point x="309" y="961" type="curve" smooth="yes"/>
      <point x="401" y="961"/>
      <point x="458" y="1004"/>
    </contour>
    <contour>
      <point x="502" y="809" type="curve"/>
      <point x="500" y="829" type="line"/>
      <point x="474" y="827"/>
      <point x="464" y="830"/>
      <point x="456" y="843" type="curve" smooth="yes"/>
      <point x="355" y="987" type="line"/>
      <point x="308" y="972" type="line"/>
      <point x="400" y="806" type="line" smooth="yes"/>
      <point x="404" y="799"/>
      <point x="415" y="792"/>
      <point x="426" y="792" type="curve" smooth="yes"/>
      <point x="439" y="792"/>
      <point x="478" y="801"/>
    </contour>
    <contour>
      <point x="188" y="796" type="line"/>
      <point x="320" y="796" type="line"/>
      <point x="320" y="815" type="line"/>
      <point x="293" y="821"/>
      <point x="285" y="827"/>
      <point x="285" y="832" type="curve" smooth="yes"/>
      <point x="285" y="1144" type="line"/>
      <point x="225" y="1144" type="line"/>
      <point x="225" y="832" type="line" smooth="yes"/>
      <point x="225" y="826"/>
      <point x="213" y="821"/>
      <point x="188" y="815" type="curve"/>
    </contour>
  </outline>
</glyph>
<glyph name="macron" format="2">
  <advance width="909"/>
  <unicode hex="00AF"/>
  <outline>
    <contour>
      <point x="785" y="1160" type="curve"/>
      <point x="762" y="1184" type="line"/>
      <point x="165" y="1184" type="line"/>
      <point x="153" y="1161"/>
      <point x="129" y="1108"/>
      <point x="123" y="1082" type="curve"/>
      <point x="146" y="1057" type="line"/>
      <point x="744" y="1057" type="line"/>
      <point x="753" y="1079"/>
      <point x="779" y="1134"/>
    </contour>
  </outline>
</glyph>
<glyph name="degree" format="2">
  <advance width="659"/>
  <unicode hex="00B0"/>
  <outline>
    <contour>
      <point x="564" y="946" type="curve" smooth="yes"/>
      <point x="564" y="1052"/>
      <point x="476" y="1143"/>
      <point x="369" y="1143" type="curve" smooth="yes"/>
      <point x="239" y="1143"/>
      <point x="95" y="1018"/>
      <point x="95" y="846" type="curve" smooth="yes"/>
      <point x="95" y="739"/>
      <point x="177" y="650"/>
      <point x="290" y="650" type="curve" smooth="yes"/>
      <point x="418" y="650"/>
      <point x="564" y="777"/>
    </contour>
    <contour>
      <point x="414" y="895" type="curve" smooth="yes"/>
      <point x="414" y="829"/>
      <point x="368" y="792"/>
      <point x="321" y="792" type="curve" smooth="yes"/>
      <point x="274" y="792"/>
      <point x="245" y="844"/>
      <point x="245" y="898" type="curve" smooth="yes"/>
      <point x="245" y="961"/>
      <point x="290" y="1001"/>
      <point x="338" y="1001" type="curve" smooth="yes"/>
      <point x="385" y="1001"/>
      <point x="414" y="952"/>
    </contour>
  </outline>
</glyph>
<glyph name="plusminus" format="2">
  <advance width="762"/>
  <unicode hex="00B1"/>
  <outline>
    <contour>
      <point x="709" y="633" type="curve"/>
      <point x="685" y="657" type="line"/>
      <point x="84" y="657" type="line"/>
      <point x="74" y="633"/>
      <point x="58" y="596"/>
      <point x="52" y="571" type="curve"/>
      <point x="77" y="548" type="line"/>
      <point x="677" y="548" type="line"/>
      <point x="686" y="567"/>
      <point x="703" y="608"/>
    </contour>
    <contour>
      <point x="437" y="309" type="curve"/>
      <point x="437" y="904" type="line"/>
      <point x="414" y="927" type="line"/>
      <point x="387" y="920"/>
      <point x="347" y="905"/>
      <point x="325" y="898" type="curve"/>
      <point x="325" y="301" type="line"/>
      <point x="350" y="279" type="line"/>
      <point x="376" y="284"/>
      <point x="414" y="297"/>
    </contour>
    <contour>
      <point x="709" y="200" type="curve"/>
      <point x="685" y="223" type="line"/>
      <point x="84" y="223" type="line"/>
      <point x="74" y="200"/>
      <point x="58" y="163"/>
      <point x="52" y="138" type="curve"/>
      <point x="77" y="114" type="line"/>
      <point x="677" y="114" type="line"/>
      <point x="686" y="134"/>
      <point x="703" y="175"/>
    </contour>
  </outline>
</glyph>
<glyph name="SupTwo" format="2">
  <advance width="650"/>
  <unicode hex="00B2"/>
  <outline>
    <contour>
      <point x="593" y="558" type="line"/>
      <point x="602" y="770" type="line"/>
      <point x="545" y="782" type="line"/>
      <point x="545" y="782"/>
      <point x="538" y="670"/>
      <point x="481" y="670" type="curve" smooth="yes"/>
      <point x="261" y="670" type="line"/>
      <point x="533" y="924"/>
      <point x="593" y="996"/>
      <point x="593" y="1093" type="curve" smooth="yes"/>
      <point x="593" y="1178"/>
      <point x="507" y="1224"/>
      <point x="368" y="1224" type="curve" smooth="yes"/>
      <point x="202" y="1224"/>
      <point x="65" y="1132"/>
      <point x="65" y="1057" type="curve"/>
      <point x="89" y="1014" type="line"/>
      <point x="127" y="1017"/>
      <point x="235" y="1037"/>
      <point x="264" y="1051" type="curve"/>
      <point x="250" y="1106"/>
      <point x="266" y="1149"/>
      <point x="325" y="1149" type="curve" smooth="yes"/>
      <point x="377" y="1149"/>
      <point x="396" y="1116"/>
      <point x="396" y="1056" type="curve" smooth="yes"/>
      <point x="396" y="981"/>
      <point x="342" y="893"/>
      <point x="49" y="597" type="curve"/>
      <point x="67" y="558" type="line"/>
    </contour>
  </outline>
</glyph>
<glyph name="twosuperior" format="2">
  <advance width="667"/>
  <unicode hex="00B2"/>
  <outline>
    <contour>
      <point x="593" y="558" type="line"/>
      <point x="602" y="761" type="line"/>
      <point x="545" y="773" type="line"/>
      <point x="545" y="773"/>
      <point x="538" y="661"/>
      <point x="481" y="661" type="curve" smooth="yes"/>
      <point x="234" y="661" type="line"/>
      <point x="506" y="915"/>
      <point x="594" y="996"/>
      <point x="594" y="1093" type="curve" smooth="yes"/>
      <point x="594" y="1178"/>
      <point x="507" y="1224"/>
      <point x="369" y="1224" type="curve" smooth="yes"/>
      <point x="202" y="1224"/>
      <point x="66" y="1132"/>
      <point x="66" y="1057" type="curve"/>
      <point x="89" y="1014" type="line"/>
      <point x="127" y="1017"/>
      <point x="216" y="1037"/>
      <point x="245" y="1051" type="curve"/>
      <point x="232" y="1106"/>
      <point x="257" y="1160"/>
      <point x="325" y="1160" type="curve" smooth="yes"/>
      <point x="388" y="1160"/>
      <point x="414" y="1116"/>
      <point x="414" y="1056" type="curve" smooth="yes"/>
      <point x="414" y="981"/>
      <point x="342" y="893"/>
      <point x="49" y="597" type="curve"/>
      <point x="67" y="558" type="line"/>
    </contour>
  </outline>
</glyph>
<glyph name="threesuperior" format="2">
  <advance width="667"/>
  <unicode hex="00B3"/>
  <outline>
    <contour>
      <point x="595" y="764" type="curve" smooth="yes"/>
      <point x="595" y="851"/>
      <point x="530" y="926"/>
      <point x="424" y="935" type="curve"/>
      <point x="504" y="955"/>
      <point x="559" y="1021"/>
      <point x="559" y="1075" type="curve" smooth="yes"/>
      <point x="559" y="1148"/>
      <point x="498" y="1224"/>
      <point x="335" y="1224" type="curve" smooth="yes"/>
      <point x="172" y="1224"/>
      <point x="66" y="1128"/>
      <point x="66" y="1068" type="curve"/>
      <point x="89" y="1029" type="line"/>
      <point x="139" y="1034"/>
      <point x="208" y="1053"/>
      <point x="245" y="1072" type="curve"/>
      <point x="227" y="1122"/>
      <point x="263" y="1160"/>
      <point x="299" y="1160" type="curve" smooth="yes"/>
      <point x="358" y="1160"/>
      <point x="377" y="1115"/>
      <point x="377" y="1065" type="curve" smooth="yes"/>
      <point x="377" y="1021"/>
      <point x="356" y="960"/>
      <point x="216" y="928" type="curve"/>
      <point x="227" y="874" type="line"/>
      <point x="253" y="878"/>
      <point x="260" y="878"/>
      <point x="283" y="878" type="curve" smooth="yes"/>
      <point x="333" y="878"/>
      <point x="412" y="848"/>
      <point x="412" y="751" type="curve" smooth="yes"/>
      <point x="412" y="659"/>
      <point x="351" y="622"/>
      <point x="279" y="622" type="curve" smooth="yes"/>
      <point x="216" y="622"/>
      <point x="153" y="642"/>
      <point x="76" y="691" type="curve"/>
      <point x="49" y="632" type="line"/>
      <point x="125" y="570"/>
      <point x="234" y="541"/>
      <point x="299" y="541" type="curve" smooth="yes"/>
      <point x="472" y="541"/>
      <point x="595" y="642"/>
    </contour>
  </outline>
</glyph>
<glyph name="acute" format="2">
  <advance width="587"/>
  <unicode hex="00B4"/>
  <anchor x="294" y="1269" name="U"/>
  <outline>
    <contour>
      <point x="255" y="937" type="curve"/>
      <point x="588" y="1279" type="line"/>
      <point x="563" y="1323" type="line"/>
      <point x="536" y="1331"/>
      <point x="411" y="1351"/>
      <point x="383" y="1353" type="curve"/>
      <point x="186" y="972" type="line"/>
      <point x="200" y="961"/>
      <point x="234" y="941"/>
    </contour>
  </outline>
</glyph>
<glyph name="mu" format="2">
  <advance width="1030"/>
  <unicode hex="00B5"/>
  <outline>
    <contour>
      <point x="1021" y="82" type="curve"/>
      <point x="1003" y="141" type="line"/>
      <point x="963" y="123"/>
      <point x="938" y="116"/>
      <point x="912" y="116" type="curve" smooth="yes"/>
      <point x="887" y="116"/>
      <point x="877" y="147"/>
      <point x="877" y="259" type="curve" smooth="yes"/>
      <point x="877" y="295"/>
      <point x="877" y="662"/>
      <point x="877" y="683" type="curve"/>
      <point x="879" y="757"/>
      <point x="887" y="793"/>
      <point x="891" y="824" type="curve"/>
      <point x="862" y="864" type="line"/>
      <point x="801" y="842"/>
      <point x="715" y="822"/>
      <point x="654" y="810" type="curve"/>
      <point x="670" y="787"/>
      <point x="688" y="711"/>
      <point x="688" y="673" type="curve" smooth="yes"/>
      <point x="688" y="644"/>
      <point x="688" y="220"/>
      <point x="688" y="194" type="curve" smooth="yes"/>
      <point x="688" y="78"/>
      <point x="718" y="-27"/>
      <point x="785" y="-27" type="curve" smooth="yes"/>
      <point x="839" y="-27"/>
      <point x="950" y="33"/>
    </contour>
    <contour>
      <point x="743" y="224" type="curve"/>
      <point x="729" y="326" type="line"/>
      <point x="617" y="162"/>
      <point x="552" y="140"/>
      <point x="493" y="140" type="curve" smooth="yes"/>
      <point x="422" y="140"/>
      <point x="346" y="239"/>
      <point x="346" y="338" type="curve" smooth="yes"/>
      <point x="346" y="351"/>
      <point x="346" y="813"/>
      <point x="346" y="820" type="curve"/>
      <point x="336" y="833"/>
      <point x="308" y="864"/>
      <point x="307" y="864" type="curve"/>
      <point x="226" y="831"/>
      <point x="148" y="816"/>
      <point x="45" y="804" type="curve"/>
      <point x="45" y="750" type="line"/>
      <point x="159" y="738"/>
      <point x="157" y="728"/>
      <point x="157" y="635" type="curve" smooth="yes"/>
      <point x="157" y="624"/>
      <point x="157" y="424"/>
      <point x="157" y="406" type="curve" smooth="yes"/>
      <point x="157" y="169"/>
      <point x="330" y="-27"/>
      <point x="445" y="-27" type="curve" smooth="yes"/>
      <point x="532" y="-27"/>
      <point x="626" y="49"/>
    </contour>
    <contour>
      <point x="257" y="413" type="curve"/>
      <point x="250" y="460"/>
      <point x="157" y="553"/>
      <point x="157" y="553" type="curve"/>
      <point x="157" y="489"/>
      <point x="157" y="-393"/>
      <point x="157" y="-419" type="curve"/>
      <point x="197" y="-450" type="line"/>
      <point x="225" y="-435"/>
      <point x="366" y="-379"/>
      <point x="401" y="-368" type="curve"/>
      <point x="332" y="-292"/>
      <point x="258" y="-148"/>
      <point x="259" y="86" type="curve"/>
      <point x="261" y="226"/>
      <point x="249" y="303"/>
    </contour>
  </outline>
</glyph>
<glyph name="paragraph" format="2">
  <advance width="1084"/>
  <unicode hex="00B6"/>
  <outline>
    <contour>
      <point x="957" y="1134" type="curve"/>
      <point x="957" y="1134"/>
      <point x="580" y="1161"/>
      <point x="475" y="1161" type="curve" smooth="yes"/>
      <point x="210" y="1161"/>
      <point x="35" y="1017"/>
      <point x="35" y="812" type="curve" smooth="yes"/>
      <point x="35" y="587"/>
      <point x="226" y="468"/>
      <point x="472" y="468" type="curve" smooth="yes"/>
      <point x="593" y="468"/>
      <point x="626" y="502"/>
      <point x="626" y="502" type="curve"/>
      <point x="619" y="569" type="line"/>
      <point x="619" y="569"/>
      <point x="588" y="562"/>
      <point x="510" y="562" type="curve" smooth="yes"/>
      <point x="322" y="562"/>
      <point x="243" y="713"/>
      <point x="243" y="844" type="curve" smooth="yes"/>
      <point x="243" y="978"/>
      <point x="355" y="1067"/>
      <point x="481" y="1067" type="curve" smooth="yes"/>
      <point x="545" y="1067"/>
      <point x="705" y="1058"/>
      <point x="821" y="1014" type="curve"/>
      <point x="831" y="1005"/>
      <point x="957" y="1134"/>
    </contour>
    <contour>
      <point x="422" y="-225" type="line"/>
      <point x="1017" y="-225" type="line"/>
      <point x="1017" y="-168" type="line"/>
      <point x="930" y="-151"/>
      <point x="890" y="-127"/>
      <point x="890" y="-112" type="curve" smooth="yes"/>
      <point x="890" y="1021" type="line" smooth="yes"/>
      <point x="890" y="1038"/>
      <point x="936" y="1060"/>
      <point x="1017" y="1077" type="curve"/>
      <point x="1017" y="1134" type="line"/>
      <point x="419" y="1134" type="line"/>
      <point x="419" y="1077" type="line"/>
      <point x="507" y="1060"/>
      <point x="551" y="1095"/>
      <point x="551" y="1080" type="curve" smooth="yes"/>
      <point x="549" y="-112" type="line" smooth="yes"/>
      <point x="549" y="-129"/>
      <point x="504" y="-151"/>
      <point x="422" y="-168" type="curve"/>
    </contour>
    <contour>
      <point x="757" y="1065" type="line"/>
      <point x="757" y="-112" type="line"/>
      <point x="757" y="-126"/>
      <point x="734" y="-136"/>
      <point x="720" y="-140" type="curve"/>
      <point x="708" y="-136"/>
      <point x="685" y="-126"/>
      <point x="685" y="-112" type="curve" smooth="yes"/>
      <point x="685" y="1082" type="line"/>
    </contour>
  </outline>
</glyph>
<glyph name="periodcentered" format="2">
  <advance width="341"/>
  <unicode hex="00B7"/>
  <outline>
    <contour>
      <point x="296" y="640" type="curve"/>
      <point x="296" y="714"/>
      <point x="246" y="747"/>
      <point x="186" y="747" type="curve" smooth="yes"/>
      <point x="111" y="747"/>
      <point x="45" y="692"/>
      <point x="45" y="608" type="curve" smooth="yes"/>
      <point x="45" y="535"/>
      <point x="92" y="501"/>
      <point x="155" y="501" type="curve" smooth="yes"/>
      <point x="233" y="501"/>
      <point x="296" y="556"/>
    </contour>
  </outline>
</glyph>
<glyph name="cedilla" format="2">
  <advance width="422"/>
  <unicode hex="00B8"/>
  <outline>
    <contour>
      <point x="394" y="-206" type="curve"/>
      <point x="394" y="-138"/>
      <point x="337" y="-100"/>
      <point x="255" y="-84" type="curve"/>
      <point x="301" y="45" type="line"/>
      <point x="204" y="46" type="line"/>
      <point x="140" y="-153"/>
      <point x="122" y="-183"/>
      <point x="122" y="-183" type="curve"/>
      <point x="182" y="-189"/>
      <point x="211" y="-203"/>
      <point x="211" y="-243" type="curve" smooth="yes"/>
      <point x="211" y="-282"/>
      <point x="168" y="-324"/>
      <point x="57" y="-342" type="curve"/>
      <point x="85" y="-399" type="line"/>
      <point x="276" y="-376"/>
      <point x="394" y="-295"/>
    </contour>
  </outline>
</glyph>
<glyph name="onesuperior" format="2">
  <advance width="650"/>
  <unicode hex="00B9"/>
  <outline>
    <contour>
      <point x="94" y="558" type="line"/>
      <point x="592" y="558" type="line"/>
      <point x="592" y="617" type="line"/>
      <point x="465" y="630"/>
      <point x="443" y="651"/>
      <point x="443" y="666" type="curve" smooth="yes"/>
      <point x="443" y="1206" type="line"/>
      <point x="414" y="1230" type="line"/>
      <point x="351" y="1207"/>
      <point x="147" y="1150"/>
      <point x="74" y="1138" type="curve"/>
      <point x="94" y="1080" type="line"/>
      <point x="205" y="1100"/>
      <point x="234" y="1097"/>
      <point x="243" y="1088" type="curve" smooth="yes"/>
      <point x="254" y="1078"/>
      <point x="255" y="1063"/>
      <point x="255" y="1035" type="curve" smooth="yes"/>
      <point x="255" y="666" type="line" smooth="yes"/>
      <point x="255" y="650"/>
      <point x="225" y="630"/>
      <point x="94" y="617" type="curve"/>
    </contour>
  </outline>
</glyph>
<glyph name="ordmasculine" format="2">
  <advance width="518"/>
  <unicode hex="00BA"/>
  <outline>
    <contour>
      <point x="482" y="896" type="curve"/>
      <point x="482" y="1026"/>
      <point x="396" y="1128"/>
      <point x="270" y="1128" type="curve" smooth="yes"/>
      <point x="135" y="1128"/>
      <point x="35" y="1003"/>
      <point x="35" y="877" type="curve" smooth="yes"/>
      <point x="35" y="746"/>
      <point x="118" y="648"/>
      <point x="247" y="648" type="curve" smooth="yes"/>
      <point x="368" y="648"/>
      <point x="482" y="773"/>
    </contour>
    <contour>
      <point x="45" y="527" type="line"/>
      <point x="472" y="527" type="line"/>
      <point x="472" y="602" type="line"/>
      <point x="45" y="602" type="line"/>
    </contour>
    <contour>
      <point x="372" y="877" type="curve"/>
      <point x="372" y="775"/>
      <point x="337" y="705"/>
      <point x="268" y="705" type="curve" smooth="yes"/>
      <point x="203" y="705"/>
      <point x="145" y="794"/>
      <point x="145" y="895" type="curve" smooth="yes"/>
      <point x="145" y="997"/>
      <point x="178" y="1070"/>
      <point x="249" y="1070" type="curve" smooth="yes"/>
      <point x="324" y="1070"/>
      <point x="372" y="978"/>
    </contour>
  </outline>
</glyph>
<glyph name="guillemetright" format="2">
  <advance width="930"/>
  <unicode hex="00BB"/>
  <outline>
    <contour>
      <point x="511" y="385" type="line"/>
      <point x="511" y="451" type="line"/>
      <point x="164" y="830" type="line"/>
      <point x="117" y="794" type="line"/>
      <point x="306" y="418" type="line"/>
      <point x="117" y="42" type="line"/>
      <point x="164" y="6" type="line"/>
    </contour>
    <contour>
      <point x="866" y="385" type="line"/>
      <point x="866" y="451" type="line"/>
      <point x="520" y="830" type="line"/>
      <point x="472" y="794" type="line"/>
      <point x="662" y="418" type="line"/>
      <point x="472" y="42" type="line"/>
      <point x="520" y="6" type="line"/>
    </contour>
  </outline>
</glyph>
<glyph name="guillemotright" format="2">
  <advance width="966"/>
  <unicode hex="00BB"/>
  <outline>
    <contour>
      <point x="532" y="384" type="line"/>
      <point x="534" y="450" type="line"/>
      <point x="164" y="839" type="line"/>
      <point x="108" y="794" type="line"/>
      <point x="279" y="416" type="line"/>
      <point x="108" y="42" type="line"/>
      <point x="164" y="-2" type="line"/>
    </contour>
    <contour>
      <point x="910" y="384" type="line"/>
      <point x="912" y="450" type="line"/>
      <point x="542" y="839" type="line"/>
      <point x="486" y="794" type="line"/>
      <point x="657" y="416" type="line"/>
      <point x="486" y="42" type="line"/>
      <point x="542" y="-2" type="line"/>
    </contour>
  </outline>
</glyph>
<glyph name="onequarter" format="2">
  <advance width="1170"/>
  <unicode hex="00BC"/>
  <outline>
    <contour>
      <point x="275" y="2" type="curve"/>
      <point x="1110" y="1086" type="line"/>
      <point x="1088" y="1111" type="line"/>
      <point x="1062" y="1106"/>
      <point x="986" y="1092"/>
      <point x="963" y="1082" type="curve"/>
      <point x="124" y="0" type="line"/>
      <point x="146" y="-27" type="line"/>
      <point x="179" y="-18"/>
      <point x="247" y="-10"/>
    </contour>
    <contour>
      <point x="1125" y="194" type="curve"/>
      <point x="1112" y="207" type="line"/>
      <point x="1044" y="207" type="line"/>
      <point x="1044" y="518" type="line"/>
      <point x="1019" y="538" type="line"/>
      <point x="987" y="528"/>
      <point x="927" y="512"/>
      <point x="893" y="503" type="curve"/>
      <point x="648" y="161" type="line"/>
      <point x="671" y="142" type="line"/>
      <point x="911" y="142" type="line"/>
      <point x="911" y="66" type="line" smooth="yes"/>
      <point x="911" y="56"/>
      <point x="892" y="48"/>
      <point x="802" y="36" type="curve"/>
      <point x="802" y="0" type="line"/>
      <point x="1115" y="0" type="line"/>
      <point x="1115" y="36" type="line"/>
      <point x="1059" y="46"/>
      <point x="1044" y="54"/>
      <point x="1044" y="62" type="curve" smooth="yes"/>
      <point x="1044" y="142" type="line"/>
      <point x="1070" y="142" type="line"/>
      <point x="1085" y="152"/>
      <point x="1111" y="175"/>
    </contour>
    <contour>
      <point x="911" y="414" type="line"/>
      <point x="911" y="207" type="line"/>
      <point x="756" y="207" type="line"/>
    </contour>
    <contour>
      <point x="76" y="573" type="line"/>
      <point x="482" y="573" type="line"/>
      <point x="482" y="613" type="line"/>
      <point x="378" y="624"/>
      <point x="353" y="640"/>
      <point x="353" y="652" type="curve" smooth="yes"/>
      <point x="353" y="1091" type="line"/>
      <point x="330" y="1111" type="line"/>
      <point x="279" y="1093"/>
      <point x="119" y="1047"/>
      <point x="61" y="1037" type="curve"/>
      <point x="76" y="998" type="line"/>
      <point x="167" y="1014"/>
      <point x="198" y="1011"/>
      <point x="206" y="1004" type="curve" smooth="yes"/>
      <point x="214" y="996"/>
      <point x="215" y="984"/>
      <point x="215" y="962" type="curve" smooth="yes"/>
      <point x="215" y="652" type="line" smooth="yes"/>
      <point x="215" y="639"/>
      <point x="184" y="624"/>
      <point x="76" y="613" type="curve"/>
    </contour>
  </outline>
</glyph>
<glyph name="onehalf" format="2">
  <advance width="1102"/>
  <unicode hex="00BD"/>
  <outline>
    <contour>
      <point x="282" y="2" type="curve"/>
      <point x="1003" y="1086" type="line"/>
      <point x="980" y="1111" type="line"/>
      <point x="954" y="1106"/>
      <point x="912" y="1092"/>
      <point x="889" y="1082" type="curve"/>
      <point x="165" y="0" type="line"/>
      <point x="187" y="-27" type="line"/>
      <point x="220" y="-18"/>
      <point x="254" y="-10"/>
    </contour>
    <contour>
      <point x="84" y="573" type="line"/>
      <point x="439" y="573" type="line"/>
      <point x="439" y="606" type="line"/>
      <point x="337" y="617"/>
      <point x="317" y="633"/>
      <point x="317" y="645" type="curve" smooth="yes"/>
      <point x="317" y="1095" type="line"/>
      <point x="298" y="1111" type="line"/>
      <point x="252" y="1090"/>
      <point x="125" y="1050"/>
      <point x="69" y="1037" type="curve"/>
      <point x="81" y="1005" type="line"/>
      <point x="170" y="1022"/>
      <point x="198" y="1019"/>
      <point x="206" y="1011" type="curve" smooth="yes"/>
      <point x="215" y="1004"/>
      <point x="215" y="992"/>
      <point x="215" y="969" type="curve" smooth="yes"/>
      <point x="215" y="645" type="line" smooth="yes"/>
      <point x="215" y="632"/>
      <point x="190" y="617"/>
      <point x="84" y="606" type="curve"/>
    </contour>
    <contour>
      <point x="1026" y="0" type="line"/>
      <point x="1034" y="133" type="line"/>
      <point x="998" y="139" type="line"/>
      <point x="998" y="139"/>
      <point x="992" y="65"/>
      <point x="946" y="65" type="curve" smooth="yes"/>
      <point x="749" y="65" type="line"/>
      <point x="959" y="271"/>
      <point x="1026" y="337"/>
      <point x="1026" y="415" type="curve" smooth="yes"/>
      <point x="1026" y="495"/>
      <point x="962" y="533"/>
      <point x="867" y="533" type="curve" smooth="yes"/>
      <point x="750" y="533"/>
      <point x="645" y="456"/>
      <point x="645" y="396" type="curve"/>
      <point x="660" y="378" type="line"/>
      <point x="691" y="380"/>
      <point x="729" y="389"/>
      <point x="752" y="401" type="curve"/>
      <point x="749" y="443"/>
      <point x="780" y="484"/>
      <point x="833" y="484" type="curve" smooth="yes"/>
      <point x="897" y="484"/>
      <point x="921" y="450"/>
      <point x="921" y="398" type="curve" smooth="yes"/>
      <point x="921" y="334"/>
      <point x="871" y="269"/>
      <point x="631" y="31" type="curve"/>
      <point x="646" y="0" type="line"/>
    </contour>
  </outline>
</glyph>
<glyph name="threequarters" format="2">
  <advance width="1170"/>
  <unicode hex="00BE"/>
  <outline>
    <contour>
      <point x="275" y="2" type="curve"/>
      <point x="1110" y="1086" type="line"/>
      <point x="1088" y="1111" type="line"/>
      <point x="1062" y="1106"/>
      <point x="986" y="1092"/>
      <point x="963" y="1082" type="curve"/>
      <point x="124" y="0" type="line"/>
      <point x="146" y="-27" type="line"/>
      <point x="179" y="-18"/>
      <point x="247" y="-10"/>
    </contour>
    <contour>
      <point x="485" y="738" type="curve" smooth="yes"/>
      <point x="485" y="808"/>
      <point x="432" y="867"/>
      <point x="346" y="874" type="curve"/>
      <point x="410" y="891"/>
      <point x="454" y="944"/>
      <point x="454" y="987" type="curve" smooth="yes"/>
      <point x="454" y="1045"/>
      <point x="405" y="1107"/>
      <point x="273" y="1107" type="curve" smooth="yes"/>
      <point x="140" y="1107"/>
      <point x="54" y="1029"/>
      <point x="54" y="981" type="curve"/>
      <point x="72" y="951" type="line"/>
      <point x="113" y="954"/>
      <point x="170" y="970"/>
      <point x="199" y="984" type="curve"/>
      <point x="185" y="1025"/>
      <point x="214" y="1053"/>
      <point x="243" y="1053" type="curve" smooth="yes"/>
      <point x="291" y="1053"/>
      <point x="306" y="1018"/>
      <point x="306" y="979" type="curve" smooth="yes"/>
      <point x="306" y="944"/>
      <point x="290" y="895"/>
      <point x="176" y="869" type="curve"/>
      <point x="185" y="826" type="line"/>
      <point x="207" y="829"/>
      <point x="211" y="829"/>
      <point x="230" y="829" type="curve" smooth="yes"/>
      <point x="270" y="829"/>
      <point x="336" y="805"/>
      <point x="336" y="728" type="curve" smooth="yes"/>
      <point x="336" y="654"/>
      <point x="285" y="626"/>
      <point x="227" y="626" type="curve" smooth="yes"/>
      <point x="176" y="626"/>
      <point x="125" y="640"/>
      <point x="63" y="679" type="curve"/>
      <point x="39" y="633" type="line"/>
      <point x="101" y="584"/>
      <point x="189" y="560"/>
      <point x="243" y="560" type="curve" smooth="yes"/>
      <point x="384" y="560"/>
      <point x="485" y="640"/>
    </contour>
    <contour>
      <point x="1125" y="194" type="curve"/>
      <point x="1112" y="207" type="line"/>
      <point x="1044" y="207" type="line"/>
      <point x="1044" y="518" type="line"/>
      <point x="1019" y="538" type="line"/>
      <point x="987" y="528"/>
      <point x="927" y="512"/>
      <point x="893" y="503" type="curve"/>
      <point x="648" y="161" type="line"/>
      <point x="671" y="142" type="line"/>
      <point x="911" y="142" type="line"/>
      <point x="911" y="66" type="line" smooth="yes"/>
      <point x="911" y="56"/>
      <point x="892" y="48"/>
      <point x="802" y="36" type="curve"/>
      <point x="802" y="0" type="line"/>
      <point x="1115" y="0" type="line"/>
      <point x="1115" y="36" type="line"/>
      <point x="1059" y="46"/>
      <point x="1044" y="54"/>
      <point x="1044" y="62" type="curve" smooth="yes"/>
      <point x="1044" y="142" type="line"/>
      <point x="1070" y="142" type="line"/>
      <point x="1085" y="152"/>
      <point x="1111" y="175"/>
    </contour>
    <contour>
      <point x="911" y="414" type="line"/>
      <point x="911" y="207" type="line"/>
      <point x="756" y="207" type="line"/>
    </contour>
  </outline>
</glyph>
<glyph name="questiondown" format="2">
  <advance width="825"/>
  <unicode hex="00BF"/>
  <outline>
    <contour>
      <point x="567" y="749" type="curve" smooth="yes"/>
      <point x="567" y="828"/>
      <point x="517" y="864"/>
      <point x="449" y="864" type="curve" smooth="yes"/>
      <point x="366" y="864"/>
      <point x="298" y="804"/>
      <point x="298" y="713" type="curve" smooth="yes"/>
      <point x="298" y="634"/>
      <point x="350" y="597"/>
      <point x="414" y="597" type="curve" smooth="yes"/>
      <point x="495" y="597"/>
      <point x="567" y="659"/>
    </contour>
    <contour>
      <point x="386" y="463" type="curve"/>
      <point x="380" y="377" type="line"/>
      <point x="364" y="152"/>
      <point x="63" y="49"/>
      <point x="63" y="-220" type="curve" smooth="yes"/>
      <point x="63" y="-387"/>
      <point x="168" y="-503"/>
      <point x="360" y="-503" type="curve" smooth="yes"/>
      <point x="573" y="-503"/>
      <point x="762" y="-374"/>
      <point x="762" y="-205" type="curve" smooth="yes"/>
      <point x="762" y="-196"/>
      <point x="762" y="-175"/>
      <point x="760" y="-166" type="curve"/>
      <point x="731" y="-135" type="line"/>
      <point x="678" y="-139"/>
      <point x="584" y="-162"/>
      <point x="544" y="-183" type="curve"/>
      <point x="550" y="-199"/>
      <point x="556" y="-221"/>
      <point x="556" y="-239" type="curve" smooth="yes"/>
      <point x="556" y="-333"/>
      <point x="494" y="-404"/>
      <point x="425" y="-404" type="curve" smooth="yes"/>
      <point x="328" y="-404"/>
      <point x="270" y="-328"/>
      <point x="270" y="-180" type="curve" smooth="yes"/>
      <point x="270" y="-9"/>
      <point x="513" y="171"/>
      <point x="500" y="377" type="curve"/>
      <point x="494" y="477" type="line"/>
      <point x="467" y="500" type="line"/>
      <point x="434" y="491"/>
      <point x="407" y="481"/>
    </contour>
  </outline>
</glyph>
<glyph name="AE" format="2">
  <advance width="1507"/>
  <unicode hex="00C6"/>
  <outline>
    <contour>
      <point x="1469" y="291" type="curve"/>
      <point x="1395" y="316" type="line"/>
      <point x="1344" y="176"/>
      <point x="1303" y="117"/>
      <point x="1192" y="117" type="curve" smooth="yes"/>
      <point x="1116" y="117" type="line" smooth="yes"/>
      <point x="958" y="117"/>
      <point x="930" y="139"/>
      <point x="930" y="174" type="curve" smooth="yes"/>
      <point x="930" y="553" type="line"/>
      <point x="1147" y="553" type="line" smooth="yes"/>
      <point x="1121" y="553"/>
      <point x="1201" y="539"/>
      <point x="1236" y="504" type="curve"/>
      <point x="1259" y="525"/>
      <point x="1298" y="594"/>
      <point x="1319" y="627" type="curve"/>
      <point x="1286" y="661" type="line"/>
      <point x="930" y="661" type="line"/>
      <point x="930" y="1017" type="line"/>
      <point x="1224" y="1017" type="line" smooth="yes"/>
      <point x="1270" y="1017"/>
      <point x="1292" y="947"/>
      <point x="1297" y="837" type="curve"/>
      <point x="1374" y="837" type="line"/>
      <point x="1391" y="882"/>
      <point x="1407" y="1041"/>
      <point x="1411" y="1102" type="curve"/>
      <point x="1375" y="1134" type="line"/>
      <point x="971" y="1134" type="line"/>
      <point x="819" y="1134" type="line"/>
      <point x="342" y="1134" type="line"/>
      <point x="342" y="1059" type="line"/>
      <point x="460" y="1036"/>
      <point x="486" y="1024"/>
      <point x="468" y="983" type="curve"/>
      <point x="126" y="135" type="line"/>
      <point x="111" y="100"/>
      <point x="71" y="84"/>
      <point x="0" y="74" type="curve"/>
      <point x="0" y="0" type="line"/>
      <point x="374" y="0" type="line"/>
      <point x="374" y="74" type="line"/>
      <point x="288" y="85"/>
      <point x="268" y="100"/>
      <point x="283" y="135" type="curve"/>
      <point x="452" y="553" type="line"/>
      <point x="678" y="553" type="line"/>
      <point x="678" y="129" type="line" smooth="yes"/>
      <point x="678" y="113"/>
      <point x="639" y="90"/>
      <point x="558" y="74" type="curve"/>
      <point x="558" y="0" type="line"/>
      <point x="1433" y="0" type="line"/>
      <point x="1442" y="35"/>
      <point x="1458" y="188"/>
    </contour>
    <contour>
      <point x="678" y="997" type="curve" smooth="yes"/>
      <point x="678" y="661" type="line"/>
      <point x="494" y="661" type="line"/>
      <point x="626" y="981" type="line" smooth="yes"/>
      <point x="643" y="1023"/>
      <point x="678" y="1023"/>
    </contour>
  </outline>
</glyph>
<glyph name="Eth" format="2">
  <advance width="1119"/>
  <unicode hex="00D0"/>
  <anchor x="532" y="1233" name="U"/>
  <outline>
    <component base="D"/>
    <contour>
      <point x="566" y="553" type="line"/>
      <point x="592" y="622" type="line"/>
      <point x="569" y="643" type="line"/>
      <point x="47" y="643" type="line"/>
      <point x="40" y="624"/>
      <point x="29" y="593"/>
      <point x="24" y="575" type="curve"/>
      <point x="44" y="553" type="line"/>
    </contour>
  </outline>
</glyph>
<glyph name="multiply" format="2">
  <advance width="756"/>
  <unicode hex="00D7"/>
  <outline>
    <contour>
      <point x="676" y="256" type="curve"/>
      <point x="676" y="290" type="line"/>
      <point x="181" y="785" type="line"/>
      <point x="155" y="779"/>
      <point x="101" y="766"/>
      <point x="77" y="756" type="curve"/>
      <point x="78" y="718" type="line"/>
      <point x="574" y="223" type="line"/>
      <point x="597" y="228"/>
      <point x="652" y="246"/>
    </contour>
    <contour>
      <point x="79" y="291" type="line"/>
      <point x="79" y="256" type="line"/>
      <point x="108" y="241"/>
      <point x="158" y="228"/>
      <point x="180" y="223" type="curve"/>
      <point x="675" y="717" type="line"/>
      <point x="675" y="752" type="line"/>
      <point x="651" y="765"/>
      <point x="599" y="779"/>
      <point x="573" y="785" type="curve"/>
    </contour>
  </outline>
</glyph>
